<svg width="225" height="261" viewBox="0 0 225 261" fill="none" xmlns="http://www.w3.org/2000/svg">
<g clip-path="url(#clip0_3009_3551)">
<path d="M47.1151 137.323C45.9674 137.403 45.0951 138.397 45.1744 139.549C45.2955 141.311 45.525 143.07 45.8589 144.773C46.0551 145.767 46.9273 146.46 47.9039 146.46C48.0375 146.46 48.1752 146.448 48.3088 146.423C49.4398 146.202 50.1743 145.103 49.9532 143.972C49.6527 142.439 49.444 140.856 49.3355 139.265C49.2562 138.113 48.2587 137.248 47.111 137.323H47.1151Z" fill="#A5B4FC"/>
<path d="M1.23536 81.8706C0.914001 83.5661 0.646894 85.2824 0.446564 86.9695C0.313011 88.1138 1.13103 89.1536 2.27458 89.2872C2.35805 89.2956 2.44152 89.2997 2.52082 89.2997C3.5642 89.2997 4.46569 88.5188 4.59089 87.4581C4.7787 85.8712 5.02912 84.2551 5.33379 82.6515C5.55081 81.5199 4.80792 80.4257 3.67689 80.2086C2.54586 79.9914 1.45239 80.7348 1.23536 81.8665V81.8706Z" fill="#A5B4FC"/>
<path d="M40.4041 23.8201C39.4776 24.505 39.2814 25.812 39.9659 26.7391C40.3749 27.2945 41.0051 27.5868 41.6478 27.5868C42.0777 27.5868 42.5117 27.4532 42.8874 27.1776C44.1895 26.2171 45.5417 25.2525 46.9107 24.317C47.8622 23.6656 48.1043 22.3668 47.4532 21.4147C46.8021 20.4626 45.5042 20.2162 44.5526 20.8718C43.1461 21.8323 41.7522 22.8262 40.4083 23.8159L40.4041 23.8201Z" fill="#A5B4FC"/>
<path d="M5.15434 74.5499C5.37137 74.6209 5.59256 74.6543 5.80959 74.6543C6.68603 74.6543 7.49987 74.0989 7.79202 73.2219C8.29702 71.6935 8.86462 70.1484 9.46979 68.6367C9.89966 67.5676 9.37797 66.3524 8.30954 65.9223C7.24111 65.4921 6.02661 66.0141 5.59674 67.0832C4.95818 68.6742 4.36554 70.2987 3.83133 71.9106C3.46823 73.0048 4.06087 74.1866 5.15434 74.5499Z" fill="#A5B4FC"/>
<path d="M32.4619 30.1884C31.1764 31.3076 29.9076 32.4643 28.689 33.6211C27.8543 34.4145 27.8209 35.7383 28.6138 36.5735C29.0228 37.0036 29.5738 37.225 30.1288 37.225C30.6464 37.225 31.1639 37.0329 31.5645 36.6487C32.7373 35.5337 33.9643 34.4187 35.2039 33.3413C36.072 32.5854 36.1638 31.2658 35.4084 30.3972C34.653 29.5286 33.3341 29.4367 32.466 30.1926L32.4619 30.1884Z" fill="#A5B4FC"/>
<path d="M76.8057 101.143C78.3041 101.034 79.8733 101.064 81.4342 101.231C81.5093 101.239 81.5845 101.243 81.6596 101.243C82.7113 101.243 83.617 100.45 83.7338 99.3765C83.8549 98.2281 83.0243 97.2008 81.8808 97.0797C80.0736 96.8876 78.254 96.8542 76.5053 96.9795C75.3575 97.063 74.4936 98.0652 74.5771 99.2136C74.6605 100.362 75.658 101.231 76.8099 101.143H76.8057Z" fill="#A5B4FC"/>
<path d="M90.4157 103.707C91.8389 104.35 93.2245 105.106 94.5308 105.954C94.8814 106.183 95.2737 106.292 95.666 106.292C96.3505 106.292 97.0182 105.958 97.4189 105.34C98.0449 104.371 97.7695 103.081 96.8054 102.45C95.3238 101.485 93.7503 100.629 92.1352 99.8984C91.0834 99.4265 89.8481 99.89 89.3765 100.942C88.9007 101.995 89.3681 103.231 90.4198 103.703L90.4157 103.707Z" fill="#A5B4FC"/>
<path d="M94.4807 151.004C95.449 150.378 95.7244 149.083 95.0984 148.119C94.4724 147.154 93.1827 146.874 92.2145 147.501C90.8998 148.352 89.5058 149.146 88.066 149.868C87.0351 150.386 86.6178 151.639 87.1353 152.67C87.5025 153.401 88.2371 153.823 89.005 153.823C89.318 153.823 89.6394 153.752 89.9357 153.602C91.5133 152.812 93.045 151.94 94.4849 151.004H94.4807Z" fill="#A5B4FC"/>
<path d="M87.2396 183.477C86.1628 183.059 85.0777 182.612 84.0176 182.14C82.9659 181.673 81.7305 182.149 81.2631 183.205C80.7957 184.257 81.2714 185.494 82.3274 185.961C83.45 186.458 84.5978 186.934 85.7371 187.373C86.1879 187.548 86.6428 187.719 87.0977 187.886C87.3356 187.974 87.5777 188.016 87.8156 188.016C88.667 188.016 89.4641 187.494 89.7771 186.646C90.1736 185.565 89.6185 184.366 88.5376 183.965C88.1035 183.806 87.6737 183.644 87.2396 183.477Z" fill="#A5B4FC"/>
<path d="M81.1296 6.05503C81.3967 6.05503 81.6679 6.00492 81.9267 5.89635C83.4125 5.2783 84.965 4.6519 86.5385 4.03385C87.6111 3.61207 88.1369 2.39686 87.7154 1.32363C87.2939 0.250394 86.0794 -0.275782 85.0068 0.145994C83.4125 0.776569 81.8391 1.41132 80.3324 2.03772C79.2682 2.48038 78.7632 3.69977 79.2014 4.76465C79.5353 5.57062 80.3115 6.05503 81.1296 6.05503Z" fill="#A5B4FC"/>
<path d="M204.395 226.953C203.364 227.462 202.939 228.715 203.452 229.751C204.166 231.191 204.817 232.674 205.393 234.165C205.714 234.992 206.503 235.501 207.342 235.501C207.592 235.501 207.847 235.455 208.093 235.359C209.17 234.942 209.704 233.735 209.287 232.657C208.665 231.054 207.964 229.45 207.196 227.897C206.686 226.865 205.434 226.439 204.399 226.953H204.395Z" fill="#A5B4FC"/>
<path d="M101.772 109.253C100.866 109.967 100.712 111.278 101.426 112.184C102.394 113.416 103.237 114.715 103.921 116.047C104.293 116.765 105.023 117.179 105.779 117.179C106.1 117.179 106.425 117.104 106.734 116.945C107.757 116.415 108.162 115.158 107.632 114.13C106.822 112.56 105.837 111.036 104.702 109.595C103.988 108.689 102.678 108.534 101.772 109.249V109.253Z" fill="#A5B4FC"/>
<path d="M195.481 214.901C194.633 215.682 194.579 217.002 195.359 217.854C196.42 219.006 197.45 220.251 198.423 221.545C198.832 222.092 199.458 222.38 200.096 222.38C200.531 222.38 200.969 222.242 201.344 221.963C202.267 221.269 202.455 219.962 201.762 219.04C200.706 217.632 199.587 216.279 198.431 215.022C197.651 214.174 196.328 214.12 195.485 214.901H195.481Z" fill="#A5B4FC"/>
<path d="M53.9264 109.904C52.8663 111.278 51.8772 112.752 50.9882 114.293C50.4122 115.291 50.7503 116.569 51.7478 117.145C52.0775 117.337 52.4364 117.425 52.7912 117.425C53.5132 117.425 54.2102 117.053 54.5983 116.385C55.3955 115.007 56.2844 113.683 57.2318 112.456C57.9371 111.541 57.766 110.23 56.8562 109.528C55.9422 108.822 54.6317 108.994 53.9305 109.904H53.9264Z" fill="#A5B4FC"/>
<path d="M57.5198 12.9039C56.0299 13.7266 54.5524 14.5743 53.1209 15.422C52.1276 16.0109 51.8021 17.2887 52.3863 18.2826C52.7745 18.9424 53.4715 19.3099 54.1851 19.3099C54.5482 19.3099 54.9113 19.2139 55.2452 19.0176C56.6434 18.1907 58.0874 17.3639 59.5398 16.5621C60.5498 16.0025 60.9129 14.733 60.3578 13.7224C59.7986 12.7118 58.5298 12.3485 57.5198 12.9039Z" fill="#A5B4FC"/>
<path d="M62.7492 106.329C63.1666 106.329 63.5881 106.204 63.9512 105.945C65.2283 105.039 66.5764 104.241 67.962 103.569C68.997 103.064 69.4311 101.815 68.9261 100.78C68.4211 99.7439 67.1732 99.3096 66.1382 99.8149C64.5522 100.587 63.0038 101.502 61.5389 102.538C60.5999 103.206 60.3745 104.509 61.0423 105.448C61.4471 106.025 62.094 106.329 62.7451 106.329H62.7492Z" fill="#A5B4FC"/>
<path d="M72.6781 156.613C72.8451 157.64 73.7299 158.367 74.7357 158.367C74.8442 158.367 74.9569 158.358 75.0696 158.337C76.6722 158.078 78.279 157.744 79.8441 157.352C79.9526 157.323 80.0611 157.298 80.1696 157.268C81.284 156.972 81.9476 155.832 81.6554 154.717C81.3633 153.602 80.2239 152.938 79.1054 153.23L78.8258 153.301C77.3775 153.669 75.8876 153.978 74.406 154.216C73.2666 154.399 72.4945 155.473 72.6781 156.608V156.613Z" fill="#A5B4FC"/>
<path d="M46.8814 123.956C46.3931 125.631 46.0008 127.351 45.7087 129.072C45.5167 130.208 46.2805 131.285 47.4198 131.477C47.5367 131.498 47.6536 131.506 47.7704 131.506C48.7721 131.506 49.6527 130.784 49.8238 129.765C50.0867 128.203 50.4457 126.637 50.888 125.117C51.2094 124.01 50.575 122.849 49.469 122.528C48.3589 122.206 47.2028 122.841 46.8814 123.948V123.956Z" fill="#A5B4FC"/>
<path d="M71.3718 174.904C70.4369 174.231 69.1348 174.44 68.4587 175.375C67.7826 176.311 67.9954 177.614 68.9303 178.29C70.3076 179.284 71.7516 180.249 73.2165 181.155C73.5587 181.368 73.9385 181.468 74.31 181.468C75.007 181.468 75.6914 181.117 76.0879 180.479C76.6931 179.497 76.3926 178.211 75.4118 177.605C74.0262 176.749 72.6698 175.839 71.3718 174.904Z" fill="#A5B4FC"/>
<path d="M71.0713 6.07626C69.5229 6.79036 67.9829 7.51698 66.5013 8.23943C65.4663 8.74472 65.0364 9.99335 65.5414 11.0332C65.9045 11.7765 66.6474 12.2066 67.4195 12.2066C67.7283 12.2066 68.0372 12.1398 68.3335 11.9937C69.7859 11.2837 71.2967 10.5696 72.8159 9.86807C73.8634 9.38783 74.3225 8.14756 73.8384 7.09938C73.3584 6.0512 72.1189 5.59185 71.0713 6.07626Z" fill="#A5B4FC"/>
<path d="M23.6097 142.903C24.1982 142.903 24.7825 142.656 25.1957 142.172C25.9469 141.295 25.8426 139.98 24.9703 139.228C23.7433 138.176 22.5413 137.069 21.4061 135.937C20.5881 135.123 19.2692 135.127 18.4554 135.946C17.6416 136.764 17.6457 138.084 18.4638 138.898C19.6741 140.101 20.9512 141.283 22.2575 142.402C22.6498 142.74 23.134 142.903 23.6139 142.903H23.6097Z" fill="#A5B4FC"/>
<path d="M132.235 191.983L130.498 191.808C129.417 191.699 128.337 191.586 127.256 191.478C126.108 191.361 125.085 192.192 124.964 193.34C124.847 194.489 125.678 195.512 126.826 195.633C127.911 195.746 128.992 195.854 130.077 195.967L131.813 196.142C131.884 196.151 131.955 196.155 132.026 196.155C133.082 196.155 133.992 195.353 134.1 194.28C134.217 193.131 133.382 192.108 132.235 191.991V191.983Z" fill="#A5B4FC"/>
<path d="M117.348 190.359C115.595 190.138 113.988 189.92 112.427 189.691C111.283 189.52 110.228 190.313 110.056 191.453C109.889 192.593 110.678 193.654 111.818 193.825C113.408 194.059 115.044 194.284 116.822 194.506C116.909 194.518 116.997 194.522 117.085 194.522C118.12 194.522 119.021 193.75 119.155 192.693C119.301 191.549 118.487 190.505 117.348 190.359Z" fill="#A5B4FC"/>
<path d="M110.403 125.284C110.403 125.067 110.403 124.85 110.394 124.637C110.365 123.484 109.397 122.578 108.253 122.607C107.102 122.636 106.192 123.597 106.225 124.749C106.229 124.929 106.233 125.109 106.233 125.288C106.233 125.94 106.2 126.599 106.133 127.251C106.066 127.923 105.962 128.604 105.833 129.272C105.612 130.404 106.346 131.502 107.477 131.723C107.615 131.748 107.748 131.761 107.882 131.761C108.859 131.761 109.731 131.072 109.927 130.074C110.081 129.28 110.202 128.474 110.286 127.673C110.365 126.879 110.407 126.077 110.407 125.284H110.403Z" fill="#A5B4FC"/>
<path d="M176.841 200.974C175.293 200.352 173.674 199.755 172.029 199.199C170.936 198.832 169.755 199.421 169.388 200.51C169.02 201.605 169.609 202.786 170.698 203.154C172.267 203.68 173.807 204.248 175.285 204.845C175.539 204.95 175.802 204.996 176.061 204.996C176.887 204.996 177.672 204.499 177.998 203.684C178.427 202.615 177.91 201.4 176.837 200.97L176.841 200.974Z" fill="#A5B4FC"/>
<path d="M105.215 137.123C104.251 136.493 102.957 136.764 102.327 137.729C101.501 138.998 100.537 140.239 99.4639 141.42C98.6877 142.272 98.7503 143.596 99.6017 144.369C100.002 144.732 100.503 144.912 101.004 144.912C101.572 144.912 102.135 144.682 102.548 144.227C103.771 142.882 104.873 141.462 105.82 140.009C106.45 139.044 106.179 137.75 105.215 137.119V137.123Z" fill="#A5B4FC"/>
<path d="M37.8374 150.257C38.3799 149.238 37.9959 147.977 36.9776 147.434C35.5544 146.674 34.1396 145.851 32.779 144.991C31.8066 144.377 30.517 144.669 29.8993 145.642C29.2816 146.615 29.5779 147.906 30.5503 148.524C31.9986 149.438 33.4969 150.311 35.0119 151.117C35.3249 151.284 35.6588 151.363 35.9926 151.363C36.7397 151.363 37.4617 150.962 37.8374 150.257Z" fill="#A5B4FC"/>
<path d="M147.239 193.704C145.644 193.483 144.004 193.27 142.23 193.061C141.083 192.919 140.048 193.742 139.91 194.886C139.772 196.03 140.59 197.07 141.734 197.208C143.482 197.416 145.093 197.625 146.663 197.842C146.759 197.855 146.855 197.863 146.951 197.863C147.977 197.863 148.87 197.107 149.016 196.063C149.175 194.919 148.378 193.867 147.239 193.708V193.704Z" fill="#A5B4FC"/>
<path d="M15.4046 52.6887C14.4238 52.0832 13.1383 52.388 12.5332 53.3694C11.6358 54.8226 10.7719 56.3177 9.96226 57.8043C9.41135 58.8191 9.78697 60.0844 10.8011 60.6356C11.1183 60.8069 11.4606 60.8904 11.7944 60.8904C12.5332 60.8904 13.251 60.4937 13.6308 59.7963C14.4029 58.3764 15.2251 56.9524 16.0848 55.5618C16.69 54.5804 16.3853 53.2942 15.4046 52.6887Z" fill="#A5B4FC"/>
<path d="M190.501 208.178C189.095 207.222 187.622 206.303 186.119 205.443C185.118 204.871 183.845 205.217 183.273 206.219C182.701 207.222 183.048 208.495 184.049 209.067C185.46 209.873 186.841 210.738 188.156 211.632C188.515 211.874 188.924 211.995 189.329 211.995C189.996 211.995 190.652 211.673 191.057 211.08C191.703 210.128 191.457 208.829 190.506 208.178H190.501Z" fill="#A5B4FC"/>
<path d="M21.619 40.9958C20.5046 42.282 19.4112 43.6141 18.3719 44.9546C17.6666 45.865 17.8294 47.1763 18.7392 47.8862C19.119 48.1827 19.5698 48.3247 20.0163 48.3247C20.6382 48.3247 21.2559 48.0491 21.6649 47.5187C22.6582 46.2367 23.7057 44.963 24.77 43.7311C25.5254 42.8583 25.4294 41.5428 24.5613 40.787C23.689 40.0311 22.3744 40.1272 21.619 40.9958Z" fill="#A5B4FC"/>
<path d="M102.694 187.966C101.05 187.619 99.4389 187.244 97.903 186.851C96.7845 186.563 95.6493 187.239 95.3655 188.359C95.0817 189.478 95.7537 190.614 96.8722 190.898C98.4665 191.303 100.136 191.691 101.835 192.05C101.981 192.079 102.127 192.096 102.269 192.096C103.233 192.096 104.101 191.424 104.309 190.438C104.547 189.311 103.825 188.204 102.698 187.962L102.694 187.966Z" fill="#A5B4FC"/>
<path d="M53.2795 160.43C53.6342 160.43 53.9931 160.338 54.3229 160.15C55.3203 159.574 55.6626 158.296 55.0866 157.298C54.2811 155.907 53.5466 154.47 52.8997 153.03C52.4281 151.977 51.1927 151.51 50.141 151.982C49.8572 152.107 49.6193 152.291 49.4273 152.508C48.2295 152.161 47.0317 151.773 45.8547 151.355C44.7696 150.967 43.576 151.535 43.1878 152.62C42.7997 153.706 43.3673 154.901 44.4566 155.289C46.0801 155.865 47.7412 156.387 49.3856 156.834C49.636 156.901 49.8864 156.922 50.1243 156.897C50.55 157.736 51.0007 158.567 51.4723 159.381C51.8605 160.05 52.5616 160.425 53.2795 160.425V160.43Z" fill="#A5B4FC"/>
<path d="M64.7985 154.888C63.2083 154.859 61.5848 154.758 59.978 154.587C58.8345 154.47 57.8036 155.301 57.6867 156.445C57.5657 157.594 58.4004 158.621 59.544 158.738C61.2676 158.918 63.008 159.026 64.715 159.06C64.7275 159.06 64.7442 159.06 64.7567 159.06C65.8919 159.06 66.8226 158.149 66.8435 157.013C66.8644 155.861 65.9504 154.909 64.7985 154.888Z" fill="#A5B4FC"/>
<path d="M60.6625 165.132C59.9113 164.259 58.5924 164.159 57.7201 164.906C56.8479 165.658 56.7477 166.978 57.4948 167.85C58.6049 169.141 59.7944 170.414 61.0339 171.634C61.4388 172.035 61.9688 172.235 62.4989 172.235C63.0289 172.235 63.5756 172.026 63.9846 171.613C64.7943 170.79 64.7818 169.471 63.9638 168.66C62.8077 167.52 61.6975 166.334 60.6625 165.128V165.132Z" fill="#A5B4FC"/>
<path d="M162.205 196.426C160.611 196.051 158.937 195.691 157.23 195.357C156.099 195.132 155.001 195.871 154.78 197.003C154.559 198.134 155.293 199.233 156.424 199.454C158.081 199.78 159.701 200.126 161.245 200.49C161.404 200.527 161.566 200.544 161.725 200.544C162.672 200.544 163.528 199.897 163.753 198.932C164.016 197.809 163.319 196.685 162.201 196.422L162.205 196.426Z" fill="#A5B4FC"/>
<path d="M12.3704 124.587C11.7652 123.605 10.4798 123.3 9.49898 123.906C8.51819 124.512 8.21352 125.798 8.81869 126.779C9.716 128.232 10.6884 129.677 11.711 131.072C12.12 131.627 12.7543 131.924 13.3929 131.924C13.8228 131.924 14.2568 131.79 14.6283 131.519C15.559 130.834 15.7551 129.531 15.0748 128.6C14.1191 127.297 13.2093 125.948 12.3704 124.587Z" fill="#A5B4FC"/>
<path d="M2.68777 104.287C3.83132 104.158 4.65351 103.122 4.52413 101.978C4.34466 100.387 4.22363 98.7624 4.16937 97.1505C4.13181 95.9979 3.18024 95.0959 2.01583 95.1335C0.863927 95.171 -0.0375586 96.1357 3.27744e-06 97.2883C0.0584329 99.013 0.183639 100.75 0.379796 102.45C0.500829 103.515 1.40231 104.3 2.44987 104.3C2.52917 104.3 2.60847 104.3 2.68777 104.287Z" fill="#A5B4FC"/>
<path d="M8.02154 115.976C7.42473 114.481 6.88634 112.948 6.43142 111.424C6.10171 110.318 4.93729 109.691 3.83548 110.021C2.72949 110.351 2.10346 111.516 2.43317 112.619C2.92564 114.26 3.50159 115.913 4.14432 117.525C4.46986 118.34 5.25448 118.837 6.08085 118.837C6.33961 118.837 6.60254 118.787 6.85712 118.686C7.92555 118.256 8.44725 117.041 8.01737 115.972L8.02154 115.976Z" fill="#A5B4FC"/>
<path d="M193.243 232.453C199.604 239.744 205.614 251.512 209.141 261C212.65 251.512 218.648 239.736 225 232.436L209.128 238.191L193.248 232.453H193.243Z" fill="#A5B4FC"/>
</g>
<defs>
<clipPath id="clip0_3009_3551">
<rect width="225" height="261" fill="white"/>
</clipPath>
</defs>
</svg>
