<svg width="94" height="94" viewBox="0 0 94 94" fill="none" xmlns="http://www.w3.org/2000/svg">
<path d="M71.7058 48.5135C58.6497 48.5135 48.0652 37.9337 48.0652 24.8776C48.0652 13.7893 55.703 4.48797 65.9976 1.92619C63.1887 1.23228 60.2467 0.852051 57.2144 0.852051C37.2097 0.852051 20.9883 17.0735 20.9883 37.0782C20.9883 57.0828 37.2097 73.2995 57.2144 73.2995C77.2191 73.2995 93.4357 57.0828 93.4357 37.0782C93.4357 36.1799 93.3977 35.3006 93.3312 34.4213C89.662 42.7198 81.3588 48.5135 71.7058 48.5135Z" fill="#FDB73B"/>
<g style="mix-blend-mode:multiply">
<path d="M93.3299 34.4219C90.7919 40.1681 86.0343 44.707 80.1456 46.9694C74.1047 56.4655 63.4917 62.8818 51.5906 62.8818C38.8862 62.8818 27.6363 55.5767 21.8711 45.0017C25.4832 61.1993 39.9271 73.3048 57.2132 73.3048C77.2178 73.3048 93.4345 57.0881 93.4345 37.0835C93.4345 36.1852 93.3965 35.3059 93.3299 34.4266V34.4219Z" fill="#FDB73B"/>
</g>
<path d="M87.107 78.7489C86.3418 75.0655 84.3361 71.9524 81.6127 70.2128C79.0319 68.5683 76.0281 67.6796 73.0101 67.6083C73.1051 67.5037 73.2097 67.3944 73.3047 67.2756C74.8304 65.3649 75.5243 62.979 75.2534 60.5503C74.9825 58.1216 73.7895 55.9543 71.8836 54.4239C69.55 52.5608 66.6318 51.7195 63.6565 52.0332C61.4607 52.2804 59.4312 53.1501 57.7677 54.5285C57.7582 54.2956 57.7439 54.0579 57.7154 53.825C57.34 50.731 55.7858 47.9743 53.3333 46.0494C50.8761 44.1245 47.8295 43.2738 44.7307 43.6445C38.9988 44.3431 34.3315 48.4353 32.7155 53.7633C31.1661 51.2538 28.3952 49.576 25.2346 49.576C19.3078 49.576 14.4884 54.3954 14.4884 60.3222C14.4884 62.1615 14.8734 63.9723 15.6053 65.6406C13.1291 65.1701 10.5721 65.46 8.21942 66.5056C5.17285 67.8602 2.83921 70.3269 1.651 73.44C0.187128 77.2755 0.296443 81.458 1.97419 85.2033C3.64244 88.9627 6.6795 91.8335 10.515 93.3068C10.6148 93.3401 10.7242 93.3686 10.8382 93.3686L75.9996 93.3876C76.3513 93.4257 76.7125 93.4542 77.0737 93.4542C77.8009 93.4542 78.5329 93.3734 79.2648 93.2118C81.8788 92.6367 84.1079 91.073 85.5528 88.8154C87.2971 86.0683 87.8627 82.3991 87.1117 78.7394L87.107 78.7489Z" fill="#818CF8"/>
<path d="M83.3001 71.3912C76.8933 82.0042 65.2346 89.219 52.1405 89.219C32.9866 89.219 16.8887 73.7723 15.8241 54.8418C14.8878 56.4435 14.3412 58.3066 14.3412 60.298C14.3412 62.1469 14.7309 63.9625 15.4724 65.6355C12.9771 65.1602 10.4106 65.4549 8.04371 66.51C4.98288 67.8693 2.63974 70.3503 1.44202 73.4824C-0.0361076 77.3322 0.0827124 81.5337 1.76046 85.3027C3.44297 89.0765 6.48953 91.9614 10.3488 93.4396C10.4534 93.4776 10.5675 93.4918 10.6768 93.4918L76.1423 93.5251C76.5035 93.5631 76.8647 93.5916 77.2307 93.5916C77.9579 93.5916 78.6946 93.5108 79.4265 93.3445C82.0596 92.7647 84.3029 91.1867 85.7525 88.9244C87.5063 86.1677 88.0767 82.4795 87.3115 78.8008C86.6984 75.8208 85.2725 73.2115 83.3048 71.3959L83.3001 71.3912Z" fill="#4F46E5"/>
<path d="M36.0184 82.0405C36.0184 83.7895 33.7893 85.2106 31.0517 85.2106C28.314 85.2106 26.085 83.7895 26.085 82.0405C26.085 80.2914 28.3093 78.8608 31.0517 78.8608C33.7941 78.8608 36.0184 80.2772 36.0184 82.0405Z" fill="#F6B1CF"/>
<path d="M61.9705 82.0405C61.9705 83.7895 59.7462 85.2106 57.0038 85.2106C54.2614 85.2106 52.0371 83.7895 52.0371 82.0405C52.0371 80.2914 54.2614 78.8608 57.0038 78.8608C59.7462 78.8608 61.9705 80.2772 61.9705 82.0405Z" fill="#F6B1CF"/>
<path d="M34.2087 69.9297V71.2367C34.2087 72.9145 32.8541 74.2643 31.1859 74.2643C29.5129 74.2643 28.1631 72.9145 28.1631 71.2367V69.9297" stroke="#3730A3" stroke-width="2.17764" stroke-linecap="round" stroke-linejoin="round"/>
<path d="M61.2224 69.9297V71.2367C61.2224 72.9145 59.8631 74.2643 58.1996 74.2643C56.5266 74.2643 55.1768 72.9145 55.1768 71.2367V69.9297" stroke="#3730A3" stroke-width="2.17764" stroke-linecap="round" stroke-linejoin="round"/>
<path d="M47.1254 81.8994V84.1713C47.1254 85.8823 45.7376 87.2701 44.0266 87.2701C42.3108 87.2701 40.9277 85.8823 40.9277 84.1713V81.8994" stroke="#3730A3" stroke-width="2.17764" stroke-linecap="round" stroke-linejoin="round"/>
</svg>
