<svg width="116" height="67" viewBox="0 0 116 67" fill="none" xmlns="http://www.w3.org/2000/svg">
<path d="M115.135 46.7317C114.119 41.8401 111.455 37.7059 107.838 35.3957C104.411 33.2119 100.422 32.0315 96.4137 31.9369C96.54 31.798 96.6788 31.6528 96.8051 31.495C98.8312 28.9577 99.7528 25.7892 99.393 22.5638C99.0332 19.3385 97.4489 16.4603 94.9178 14.4279C91.8186 11.9537 87.943 10.8365 83.9917 11.2531C81.0756 11.5813 78.3804 12.7364 76.1712 14.5668C76.1585 14.2575 76.1396 13.9419 76.1017 13.6326C75.6031 9.52366 73.5391 5.86281 70.2821 3.30653C67.0188 0.750249 62.9728 -0.379562 58.8574 0.112759C51.2451 1.04059 45.0467 6.47505 42.9007 13.5506C40.8429 10.218 37.1631 7.98989 32.9656 7.98989C25.0945 7.98989 18.6942 14.3901 18.6942 22.2609C18.6942 24.7035 19.2054 27.1083 20.1775 29.3238C16.8889 28.6989 13.4931 29.0839 10.3686 30.4725C6.32266 32.2714 3.22347 35.5472 1.64548 39.6814C-0.298617 44.7751 -0.153441 50.3295 2.07469 55.3032C4.2902 60.2958 8.32356 64.1081 13.4173 66.0648C13.5499 66.109 13.6951 66.1468 13.8466 66.1468L100.384 66.1721C100.851 66.2226 101.331 66.2605 101.81 66.2605C102.776 66.2605 103.748 66.1532 104.72 65.9386C108.192 65.1748 111.152 63.0982 113.071 60.1001C115.388 56.4519 116.139 51.5792 115.141 46.7191L115.135 46.7317Z" fill="#818CF8"/>
<path d="M110.079 36.9606C101.571 51.0549 86.0873 60.6362 68.6978 60.6362C43.2605 60.6362 21.8818 40.1228 20.4679 14.9829C19.2244 17.11 18.4985 19.5842 18.4985 22.2289C18.4985 24.6841 19.0161 27.0953 20.0008 29.317C16.687 28.6858 13.2785 29.0772 10.1351 30.4784C6.07021 32.2836 2.9584 35.5783 1.36778 39.7378C-0.595254 44.8504 -0.437455 50.43 1.79068 55.4353C4.02512 60.4468 8.07111 64.2781 13.1964 66.2411C13.3353 66.2916 13.4868 66.3105 13.632 66.3105L100.573 66.3547C101.053 66.4052 101.533 66.443 102.019 66.443C102.985 66.443 103.963 66.3357 104.935 66.1148C108.432 65.3448 111.411 63.2493 113.336 60.2448C115.665 56.584 116.423 51.6861 115.407 46.8007C114.592 42.8432 112.699 39.378 110.086 36.9669L110.079 36.9606Z" fill="#4F46E5"/>
<path d="M47.2868 51.1005C47.2868 53.4233 44.3265 55.3105 40.6908 55.3105C37.0551 55.3105 34.0947 53.4233 34.0947 51.1005C34.0947 48.7778 37.0487 46.8779 40.6908 46.8779C44.3328 46.8779 47.2868 48.7588 47.2868 51.1005Z" fill="#F6B1CF"/>
<path d="M81.7526 51.1005C81.7526 53.4233 78.7986 55.3105 75.1566 55.3105C71.5146 55.3105 68.5605 53.4233 68.5605 51.1005C68.5605 48.7778 71.5146 46.8779 75.1566 46.8779C78.7986 46.8779 81.7526 48.7588 81.7526 51.1005Z" fill="#F6B1CF"/>
<g clip-path="url(#clip0_2879_5384)">
<path d="M45.2128 37.999C45.2128 40.4396 43.2405 42.4173 40.7979 42.4173C38.3553 42.4173 36.376 40.4326 36.376 37.999C36.376 35.5655 38.3623 33.5737 40.7909 33.5737C43.2194 33.5737 45.2057 35.5584 45.2057 37.999H45.2128Z" fill="#3730A3"/>
<path d="M41.0948 36.5894C41.0948 37.466 40.3789 38.1674 39.4945 38.1674C38.6101 38.1674 37.9082 37.4731 37.9082 36.5894C37.9082 35.7057 38.6241 34.9834 39.4945 34.9834C40.3648 34.9834 41.0948 35.7057 41.0948 36.5894Z" fill="white"/>
</g>
<g clip-path="url(#clip1_2879_5384)">
<path d="M81.1913 37.999C81.1913 40.4396 79.219 42.4173 76.7764 42.4173C74.3338 42.4173 72.3545 40.4326 72.3545 37.999C72.3545 35.5655 74.3408 33.5737 76.7694 33.5737C79.1979 33.5737 81.1843 35.5584 81.1843 37.999H81.1913Z" fill="#3730A3"/>
<path d="M77.0723 36.5894C77.0723 37.466 76.3564 38.1674 75.472 38.1674C74.5876 38.1674 73.8857 37.4731 73.8857 36.5894C73.8857 35.7057 74.6017 34.9834 75.472 34.9834C76.3424 34.9834 77.0723 35.7057 77.0723 36.5894Z" fill="white"/>
</g>
<path d="M62.0385 50.9219V53.9389C62.0385 56.2112 60.1954 58.0542 57.923 58.0542C55.6444 58.0542 53.8076 56.2112 53.8076 53.9389V50.9219" stroke="#3730A3" stroke-width="2.19831" stroke-linecap="round" stroke-linejoin="round"/>
<defs>
<clipPath id="clip0_2879_5384">
<rect width="8.83679" height="8.83652" fill="white" transform="translate(36.376 33.5737)"/>
</clipPath>
<clipPath id="clip1_2879_5384">
<rect width="8.83679" height="8.83652" fill="white" transform="translate(72.3545 33.5737)"/>
</clipPath>
</defs>
</svg>
