<svg width="279" height="205" viewBox="0 0 279 205" fill="none" xmlns="http://www.w3.org/2000/svg">
<g clip-path="url(#clip0_2894_5505)">
<path d="M139.695 205.102C216.798 205.102 279.303 186.444 279.303 163.427C279.303 140.411 216.798 121.753 139.695 121.753C62.5911 121.753 0.0863037 140.411 0.0863037 163.427C0.0863037 186.444 62.5911 205.102 139.695 205.102Z" fill="#E0E7FF"/>
<path d="M94.2773 109.96C94.2773 109.96 82.0713 110.648 67.9179 119.823C53.7645 128.999 46.7732 140.071 44.9818 140.329C43.1905 140.587 39.1846 139.821 38.1519 141.799C37.1209 143.776 37.8048 144.454 41.002 144.671C44.1992 144.887 45.4964 145.101 46.0291 146.585C46.5619 148.069 54.2264 160.205 73.2805 166.436C92.3329 172.667 109.107 169.105 110.55 170.095C111.992 171.085 113.467 170.728 114.719 170.193C115.971 169.658 116.541 167.744 116.541 167.744L147.36 134.246C147.36 134.246 143.635 123.435 129.275 116.224C114.914 109.013 94.2772 109.962 94.2772 109.962L94.2773 109.96Z" fill="#6366F1"/>
<path d="M47.3706 144.43C47.3706 144.43 47.9248 146.897 50.3389 148.858C52.7547 150.819 57.0218 151.052 57.0218 151.052C57.0218 151.052 57.6286 147.794 53.9683 145.778C50.308 143.761 47.3706 144.43 47.3706 144.43Z" fill="#4C4EBD"/>
<path d="M57.9659 152.103C57.9659 152.103 58.5193 154.57 60.9328 156.529C63.3481 158.489 67.6152 158.721 67.6152 158.721C67.6152 158.721 68.2231 155.464 64.5633 153.448C60.9035 151.433 57.9659 152.103 57.9659 152.103Z" fill="#4C4EBD"/>
<path d="M68.7423 159.691C68.7423 159.691 69.9572 162.049 72.848 163.649C75.7389 165.248 79.958 164.888 79.958 164.888C79.958 164.888 79.6562 161.589 75.5389 160.107C71.4217 158.624 68.7423 159.691 68.7423 159.691Z" fill="#4C4EBD"/>
<path d="M82.0523 165.007C82.0523 165.007 84.5922 166.776 88.1376 167.328C91.683 167.881 95.1809 166.23 95.1809 166.23C95.1809 166.23 92.862 163.319 88.3057 163.257C83.7495 163.196 82.0507 165.007 82.0507 165.007L82.0523 165.007Z" fill="#4C4EBD"/>
<path d="M97.2465 166.477C97.2465 166.477 99.9698 168.101 103.557 168.454C107.143 168.807 110.437 166.959 110.437 166.959C110.437 166.959 107.806 164.18 103.269 164.376C98.7317 164.571 97.2465 166.477 97.2465 166.477Z" fill="#4C4EBD"/>
<path d="M190.243 51.8568C190.243 51.8568 194.618 60.0337 193.349 71.6016C192.079 83.1696 186.611 86.925 186.611 86.925C186.611 86.925 189.711 82.8846 190.894 77.4362C192.078 71.9861 191.12 67.5579 191.12 67.5579C191.12 67.5579 192.255 75.8562 188.37 82.6317C184.485 89.4072 177.801 95.3565 169.686 95.1642C161.571 94.972 144.664 96.1187 144.664 96.1187C144.664 96.1187 135.42 91.333 132.23 84.7176C129.039 78.1023 127.962 74.5763 127.962 74.5763C127.962 74.5763 128.905 79.6048 130.654 83.9099C132.404 88.215 134.676 91.4308 134.676 91.4308C134.676 91.4308 127.162 88.4309 122.687 81.6385C118.213 74.8461 117.602 66.3758 117.602 66.3758C117.602 66.3758 119.163 76.2069 120.119 79.3519C121.076 82.4968 121.823 84.2657 121.823 84.2657C121.823 84.2657 115.215 83.5221 115.079 68.9643C114.943 54.4065 121.583 42.9043 121.583 42.9043L190.241 51.8585L190.243 51.8568Z" fill="#1F2937"/>
<path d="M186.292 158.588C185.175 164.446 189.318 167.987 200.756 169.887C212.194 171.788 218.704 172.872 220.12 172.656C221.537 172.44 222.231 171.616 222.493 170.056C222.755 168.496 221.863 167.545 222.679 166.156C223.494 164.766 224.555 164.151 224.692 162.25C224.83 160.35 224.964 156.407 225.674 156.417C225.536 156.348 225.372 156.377 225.193 156.458C224.427 156.802 221.974 161.94 221.707 161.641C221.441 161.343 208.135 150.799 205.627 150.293C203.121 149.787 201.442 148.942 201.442 148.942C201.442 148.942 183.686 137.733 180.027 142.035C179.457 142.706 178.847 143.9 178.223 145.439C182.786 145.876 186.877 146.316 186.877 146.316C186.877 146.316 187.407 152.733 186.29 158.589L186.292 158.588Z" fill="white"/>
<path d="M215.635 173.58C215.635 173.58 220.671 174.184 221.984 174.181C223.297 174.177 224.5 169.25 225.326 163.761C225.957 159.554 226.124 156.647 225.675 156.419C224.968 156.409 224.832 160.351 224.694 162.252C224.556 164.152 223.496 164.768 222.68 166.157C221.865 167.547 222.757 168.498 222.495 170.058C222.233 171.617 221.537 172.442 220.121 172.658C218.704 172.874 212.195 171.789 200.758 169.889C189.32 167.989 185.176 164.446 186.293 158.589C187.41 152.731 186.88 146.316 186.88 146.316C186.88 146.316 182.788 145.876 178.227 145.439C174.851 153.775 171.082 172.209 171.082 172.209L215.638 173.58H215.635Z" fill="#D4D4D4"/>
<path opacity="0.41" d="M215.635 173.58C215.635 173.58 220.671 174.184 221.984 174.181C223.297 174.177 224.5 169.25 225.326 163.761C225.957 159.554 226.124 156.647 225.675 156.419C224.968 156.409 224.832 160.351 224.694 162.252C224.556 164.152 223.496 164.768 222.68 166.157C221.865 167.547 222.757 168.498 222.495 170.058C222.233 171.617 221.537 172.442 220.121 172.658C218.704 172.874 212.195 171.789 200.758 169.889C189.32 167.989 185.176 164.446 186.293 158.589C187.41 152.731 186.88 146.316 186.88 146.316C186.88 146.316 182.788 145.876 178.227 145.439C174.851 153.775 171.082 172.209 171.082 172.209L215.638 173.58H215.635Z" fill="#D4D4D4"/>
<path d="M118.054 162.484C117.872 164.985 117.908 167.752 118.228 170.767C119.18 179.75 123.243 183.333 126.779 184.824L119.085 169.855C119.085 169.855 118.195 165.788 118.054 162.482V162.484Z" fill="#F4C092"/>
<path d="M126.656 165.017C129.048 169.204 129.462 171.069 131.96 173.705C134.459 176.342 135.911 177.332 136.456 177.676C137.002 178.022 142.509 175.238 146.427 169.074C149.51 164.225 148.925 161.118 148.536 160.014C147.599 157.768 146.285 154.618 143.736 152.193C132.328 141.342 125.491 147.05 125.491 147.05C122.478 148.206 119.655 152.335 118.497 158.874C119.808 156.577 124.264 160.83 126.654 165.017H126.656Z" fill="#F4C092"/>
<path opacity="0.41" d="M118.497 158.877C118.084 159.602 117.989 160.963 118.054 162.484C118.147 161.211 118.298 160.007 118.498 158.874C118.498 158.874 118.498 158.874 118.498 158.876L118.497 158.877Z" fill="#E28140"/>
<path d="M147.125 173.916C147.125 173.916 151.791 167.82 148.536 160.014C148.925 161.119 149.512 164.225 146.427 169.075C142.509 175.238 137.002 178.022 136.456 177.676C135.911 177.331 134.458 176.341 131.96 173.705C129.46 171.068 129.046 169.204 126.656 165.017C124.266 160.832 119.809 156.579 118.498 158.874C118.298 160.006 118.149 161.21 118.054 162.485C118.195 165.788 119.085 169.857 119.085 169.857L126.779 184.826C128.526 185.563 129.649 184.368 130.697 184.482C133.868 184.83 147.127 173.916 147.127 173.916H147.125Z" fill="#9F9F9F"/>
<path opacity="0.41" d="M147.125 173.916C147.125 173.916 151.791 167.82 148.536 160.014C148.925 161.119 149.512 164.225 146.427 169.075C142.509 175.238 137.002 178.022 136.456 177.676C135.911 177.331 134.458 176.341 131.96 173.705C129.46 171.068 129.046 169.204 126.656 165.017C124.266 160.832 119.809 156.579 118.498 158.874C118.298 160.006 118.149 161.21 118.054 162.485C118.195 165.788 119.085 169.857 119.085 169.857L126.779 184.826C128.526 185.563 129.649 184.368 130.697 184.482C133.868 184.83 147.127 173.916 147.127 173.916H147.125Z" fill="white"/>
<path d="M198.464 145.886C198.464 145.886 222.16 158.936 222.238 159.221C222.316 159.506 221.437 166.317 220.217 168.697C218.996 171.078 216.264 174.184 215.424 174.4C214.584 174.614 168.72 173.044 168.72 173.044L148.312 173.621C148.312 173.621 140.761 179.509 138.845 180.963C136.93 182.416 131.179 184.87 130.685 184.69C130.191 184.509 130.041 184.664 130.041 184.664C130.041 184.664 137.859 180.052 128.567 171.066C119.276 162.08 114.971 167.86 114.971 167.86C114.971 167.86 116.349 160.183 119.093 153.935C121.838 147.687 123.298 146.82 123.298 146.82L198.462 145.886H198.464Z" fill="#4F46E5"/>
<path d="M122.828 48.4404C122.828 48.4404 119.128 53.7725 117.867 60.8414C116.607 67.9104 118.856 75.438 118.856 75.438C118.856 75.438 118.069 66.2696 118.991 62.4316C119.912 58.5919 122.456 56.1839 122.456 56.1839C122.456 56.1839 121.099 65.5985 123.716 74.0839C126.333 82.5693 132.938 89.1847 132.938 89.1847C132.938 89.1847 128.368 79.0011 128.441 73.1918L128.514 67.3809C128.514 67.3809 132.184 79.8544 138.213 86.9115C144.243 93.9687 147.326 95.6668 147.326 95.6668C147.326 95.6668 141.822 90.5624 140.045 87.1898C138.268 83.8155 137.544 78.0872 137.544 78.0872C137.544 78.0872 141.185 87.3061 145.315 90.8288C149.446 94.3515 152.474 95.5015 152.474 95.5015C152.474 95.5015 148.479 92.2065 147.145 89.2302C145.811 86.2539 145.267 83.431 145.267 83.431C145.267 83.431 149.698 91.704 152.21 93.2368C154.723 94.7697 167.686 95.7848 167.686 95.7848C167.686 95.7848 169.378 96.8067 172.996 92.6669C176.614 88.527 177.602 83.9757 177.602 83.9757C177.602 83.9757 179.22 85.5574 177.347 89.3145C175.474 93.0716 173.949 94.6921 173.949 94.6921C173.949 94.6921 178.159 92.5454 181.358 86.6013C184.556 80.6571 185.141 78.0568 185.141 78.0568L188.998 66.8413C188.998 66.8413 190.351 71.1497 189.298 76.9961C188.244 82.8425 186.073 86.0903 186.073 86.0903C186.073 86.0903 193.729 77.9657 190.987 64.8278C188.246 51.6899 186.93 51.2498 186.93 51.2498L122.826 48.4404H122.828Z" fill="#030712"/>
<path d="M153.143 84.4631C153.143 84.4631 153.195 92.0076 150.682 93.6011C148.169 95.193 138.84 100.168 134.409 108.532C129.979 116.896 128.532 130.843 128.217 137.44C127.902 144.037 124.427 155.308 138.583 163.129C152.737 170.95 173.334 166.245 180.807 156.314C188.281 146.384 181.913 130.556 181.321 127.221C180.731 123.885 182.18 117.091 180.749 110.408C179.319 103.726 171.037 96.5774 169.804 93.591C168.572 90.6063 168.159 86.1342 168.159 86.1342L153.143 84.4614V84.4631Z" fill="white"/>
<path opacity="0.63" d="M152.31 91.1962C152.31 91.1962 153.998 94.7813 160.487 94.9752C166.976 95.1691 169.117 91.5149 169.117 91.5149L168.405 88.0462C168.405 88.0462 166.081 88.7157 161.339 89.0866C156.597 89.4576 153.082 85.7461 153.082 85.7461L152.311 91.1945L152.31 91.1962Z" fill="#BBBBBB"/>
<path d="M128.753 132.694C128.093 132.217 127.168 132.59 127.006 133.397C126.036 138.21 123.93 151.434 127.687 161.127C132.361 173.184 157.186 179.369 173.705 171.03C190.225 162.692 186.472 143.815 185.983 139.976C185.833 138.787 185.67 137.797 185.521 136.999C185.35 136.097 184.268 135.76 183.623 136.404C181.356 138.665 175.152 141.857 158.366 140.519C139.615 139.021 131.605 134.756 128.753 132.694Z" fill="#4F46E5"/>
<path d="M215.422 174.401L168.718 173.046C168.718 173.046 162.604 174.826 157.499 174.968C152.396 175.11 147.77 174.044 147.77 174.044C147.77 174.044 139.592 180.614 138.188 181.411C136.783 182.211 132.928 183.995 132.928 183.995C132.928 183.995 143.55 174.833 145.06 169.005C146.568 163.179 137.479 153.341 132.586 150.52C127.694 147.699 125 148.088 125 148.088L136.446 145.824L150.012 159.216L197.484 151.813C197.484 151.813 197.035 157.535 193.811 160.629C190.588 163.725 190.381 167.97 198.217 170.11C206.051 172.25 215.422 174.396 215.422 174.396V174.401Z" fill="#473ED8"/>
<path d="M188.068 56.7591C188.068 56.7591 187.923 60.5229 188.518 63.0658C189.113 65.6088 192.654 71.0336 188.105 78.2189C183.554 85.4025 172.691 90.6873 158.923 89.3653C145.155 88.0432 138.78 79.976 136.312 76.4095C133.846 72.8446 132.827 70.6845 132.827 70.6845C132.827 70.6845 130.899 73.2881 128.234 72.762C125.569 72.2359 120.563 69.4737 119.433 62.909C118.303 56.3426 122.455 55.5787 123.711 54.9868C124.969 54.3966 125.796 54.5585 125.796 54.5585C125.796 54.5585 114.542 40.2402 122.751 23.2086C130.962 6.17701 156.786 1.45539 175.129 13.2881C193.47 25.1208 191.3 40.4847 190.231 44.751C189.162 49.0173 188.058 54.3713 188.067 56.7591H188.068Z" fill="white"/>
<path opacity="0.63" d="M122.801 64.4196C122.801 64.4196 121.53 62.278 123.587 60.4973C125.643 58.7149 129.528 63.0116 129.974 65.2999C130.42 67.5882 128.766 69.7534 126.644 67.3184C124.521 64.885 124.612 63.5984 124.859 62.6372C125.106 61.676 125.39 61.4349 125.39 61.4349C125.39 61.4349 124.288 60.8868 123.462 62.0538C122.637 63.2207 122.801 64.4196 122.801 64.4196Z" fill="#BBBBBB"/>
<path opacity="0.63" d="M166.989 63.9676C166.989 63.9676 166.051 62.31 169.477 61.9694C172.742 61.6439 173.47 62.3454 173.447 62.9727C173.422 63.5983 173.997 63.8024 174.136 63.6675C174.408 63.4061 174.6 63.4449 174.053 61.9373C173.506 60.4298 169.838 59.9559 167.81 60.9626C165.781 61.9694 165.604 63.2358 166.209 63.8158C166.814 64.3959 166.989 63.971 166.989 63.971V63.9676Z" fill="#E2E4E8"/>
<path d="M168.391 72.9421C165.463 72.3637 163.832 70.5712 163.174 69.6623C162.975 69.3874 163.063 68.9979 163.358 68.8343L163.368 68.8292C163.612 68.6943 163.916 68.7618 164.081 68.9911C164.778 69.9574 166.895 72.2541 171.07 71.959C175.139 71.6723 175.992 68.9119 176.171 67.7702C176.215 67.492 176.452 67.2896 176.727 67.293C177.07 67.2981 177.327 67.6151 177.265 67.9591C177.01 69.4059 175.905 72.7617 171.146 73.0989C170.122 73.1714 169.205 73.104 168.39 72.9438L168.391 72.9421Z" fill="#727881"/>
<path d="M181.361 49.8569C181.361 49.8569 179.249 49.7625 178.598 52.8366C177.948 55.9107 177.532 59.4182 179.508 60.2293C181.484 61.0404 183.509 58.9174 184.003 56.3306C184.497 53.7438 184.58 51.1402 183.315 50.437C182.05 49.7338 181.359 49.8569 181.359 49.8569H181.361Z" fill="#3F2F29"/>
<path opacity="0.63" d="M144.341 50.8887C144.341 50.8887 145.713 46.5752 147.646 45.6949C149.578 44.8147 151.849 45.0373 152.179 44.8096C152.508 44.5837 152.648 43.3493 151.806 43.0137C150.964 42.6782 147.18 43.6376 145.58 45.7708C143.981 47.9057 143.956 51.9325 144.341 50.887V50.8887Z" fill="#727881"/>
<path opacity="0.63" d="M185.997 48.2514C185.997 48.2514 185.665 45.4926 183.406 44.464C181.147 43.4354 180.033 44.2751 179.398 44.1015C178.764 43.9278 178.585 42.6141 179.034 42.3882C179.483 42.1622 183.139 41.9868 184.984 44.1942C186.827 46.4016 186.108 48.7927 185.998 48.2514H185.997Z" fill="#727881"/>
<path opacity="0.23" d="M152.847 64.1346C152.847 64.1346 147.125 63.9812 146.215 65.9457C145.305 67.9103 149.132 68.4988 151.749 68.3875C154.366 68.2762 156.906 67.8917 157.194 66.0418C157.482 64.192 153.942 64.1211 152.847 64.1346Z" fill="#FBD1D1"/>
<path opacity="0.23" d="M184.188 61.8803C184.188 61.8803 179.476 61.9073 178.667 63.8904C177.857 65.8734 180.994 66.3388 183.156 66.1449C185.317 65.951 187.42 65.4906 187.715 63.6408C188.009 61.7909 185.093 61.8331 184.19 61.8803H184.188Z" fill="#FBD1D1"/>
<path opacity="0.32" d="M183.764 52.8637C183.512 53.6192 182.41 53.9227 181.303 53.5399C180.196 53.1588 179.501 52.2364 179.753 51.481C180.005 50.7255 181.107 50.422 182.214 50.8048C183.322 51.1859 184.016 52.1083 183.764 52.8637Z" fill="white"/>
<path d="M181.87 53.2583C181.984 52.6563 182.557 52.2617 183.151 52.3798C183.743 52.4961 184.13 53.0796 184.014 53.6833C183.9 54.2853 183.327 54.6799 182.733 54.5618C182.141 54.4455 181.754 53.862 181.87 53.2583Z" fill="white"/>
<path d="M181.936 55.3254C181.969 55.1483 182.138 55.0337 182.312 55.0674C182.486 55.1011 182.599 55.2731 182.566 55.4502C182.533 55.6273 182.364 55.7419 182.191 55.7082C182.017 55.6745 181.904 55.5025 181.938 55.3271L181.936 55.3254Z" fill="white"/>
<path d="M147.032 58.0186C147.032 58.0186 145.842 55.2598 147.17 52.8063C148.498 50.351 152.906 50.7372 153.659 55.7859C154.411 60.8347 152.886 62.3288 151.143 62.4687C149.399 62.6087 147.521 60.4755 147.032 58.0186Z" fill="#3F2F29"/>
<path opacity="0.32" d="M151.383 52.8282C151.595 53.5954 150.856 54.4807 149.731 54.8028C148.605 55.1249 147.52 54.764 147.308 53.9968C147.095 53.2295 147.835 52.3442 148.96 52.0221C150.085 51.7001 151.171 52.0609 151.383 52.8282Z" fill="white"/>
<path d="M150.753 54.9393C150.682 54.3305 151.11 53.7757 151.708 53.7032C152.306 53.6307 152.852 54.0658 152.923 54.6745C152.994 55.285 152.566 55.8381 151.968 55.9106C151.37 55.9831 150.825 55.548 150.753 54.9393Z" fill="white"/>
<path d="M151.439 56.887C151.418 56.7082 151.544 56.5463 151.72 56.5244C151.895 56.5025 152.054 56.6307 152.076 56.8094C152.097 56.9881 151.971 57.15 151.796 57.172C151.62 57.1939 151.461 57.0657 151.439 56.887Z" fill="white"/>
<path d="M189.325 28.2269C189.325 28.2269 196.012 32.1088 194.632 42.9702C193.251 53.8316 188.198 53.7304 188.198 53.7304C188.198 53.7304 192.976 42.493 179.166 34.9552C165.355 27.4175 155.285 28.9217 155.285 28.9217C155.285 28.9217 165.889 28.382 173.584 32.8929C181.28 37.4037 183.552 40.7392 183.552 40.7392C183.552 40.7392 181.85 41.1878 175.51 40.122C169.169 39.058 164.299 36.6955 164.299 36.6955C164.299 36.6955 168.062 39.0664 172.933 40.1203C177.804 41.1743 178.868 41.2282 178.868 41.2282C178.868 41.2282 169.799 45.1927 160.222 42.842C150.646 40.4913 144.326 35.709 144.326 35.709C144.326 35.709 148.466 39.1625 154.408 41.2704C160.35 43.3799 161.762 43.4609 161.762 43.4609C161.762 43.4609 152.127 45.2888 144.429 44.3445C136.728 43.4002 134.118 43.3344 134.118 43.3344C134.118 43.3344 138.13 47.5603 139.251 52.4235C140.371 57.2868 139.166 64.4873 139.166 64.4873C139.166 64.4873 137.63 59.2884 136.771 55.388C135.911 51.4876 133.838 49.2027 133.838 49.2027C133.838 49.2027 136.813 52.6124 137.991 62.6964C139.171 72.7805 136.032 79.4784 136.032 79.4784C136.032 79.4784 136.145 74.3201 135.517 70.0655C134.89 65.8093 133.539 63.1501 133.539 63.1501C133.539 63.1501 135.14 69.2258 135.321 72.2156C135.502 75.2054 135.256 78.4093 135.256 78.4093C135.256 78.4093 127.72 69.1027 126.416 60.6442C125.113 52.1858 125.234 50.1268 125.234 50.1268C125.234 50.1268 121.134 26.2354 150.36 21.4514C179.589 16.6674 187.377 23.5002 187.377 23.5002L189.328 28.2286L189.325 28.2269Z" fill="#1F2937"/>
<path d="M184.87 27.6419C184.87 27.6419 178.515 24.9607 169.633 24.1512C160.751 23.3418 153.239 25.502 153.239 25.502C153.239 25.502 159.198 24.9826 165.068 25.7111C170.939 26.4395 177.156 28.9369 177.156 28.9369C177.156 28.9369 168.357 26.3974 159.632 26.2052C150.906 26.0129 144.621 29.5204 144.621 29.5204C144.621 29.5204 151.952 27.8054 159.866 29.0466C167.78 30.2877 172.124 32.1106 172.124 32.1106C172.124 32.1106 158.533 28.5795 151.146 29.9673C143.759 31.3551 142.367 32.35 142.367 32.35C142.367 32.35 146.073 36.414 154.487 39.5842C162.901 42.7544 168.469 43.5284 168.469 43.5284C168.469 43.5284 162.286 44.3868 154.671 41.3632C147.057 38.3397 141.765 34.5118 141.765 34.5118C141.765 34.5118 140.931 35.4713 143.174 37.962C145.418 40.451 149.303 41.3936 149.303 41.3936C149.303 41.3936 146.008 41.23 143.653 40.1761C141.298 39.1205 140.038 38.4325 139.524 38.908C139.009 39.3835 137.806 42.2772 137.806 42.2772C137.806 42.2772 142.987 43.7106 146.484 43.8826C149.983 44.0563 156.377 44.2148 156.377 44.2148C156.377 44.2148 148.6 44.8336 140.459 43.8826C132.318 42.9315 132.275 42.5538 132.275 42.5538L144.356 25.4497L158.716 20.8765C158.716 20.8765 177.219 21.7989 177.434 21.8022C177.65 21.8056 184.87 27.6419 184.87 27.6419Z" fill="#030712"/>
<path d="M189.953 28.672C189.953 28.672 192.752 3.63557 161.982 0.510866C131.212 -2.61552 130.107 9.52916 130.236 12.3318C127.994 12.4751 117.172 16.0872 114.862 28.6804C112.551 41.2737 119.143 48.1689 119.143 48.1689L123.712 54.9866L125.967 55.9006C125.967 55.9006 122.796 41.5131 137.903 30.7562C153.011 19.9994 183.562 22.4985 189.953 28.6737V28.672Z" fill="#1F2937"/>
<path d="M133.858 45.4658C133.858 45.4658 136.465 48.8333 137.784 54.7202C139.102 60.6053 139.203 66.2443 139.203 66.2443C139.203 66.2443 138.104 58.3187 136.587 54.6578C135.072 50.9969 130.085 45.8941 130.085 45.8941C130.085 45.8941 134.192 53.9175 134.862 56.6409C135.532 59.3659 135.656 60.6138 135.656 60.6138C135.656 60.6138 134.191 55.2294 132.676 52.1503C131.163 49.0711 129.653 47.1943 128.957 47.5855C128.26 47.9767 127.548 51.3341 128.681 53.3307C129.817 55.3273 132.987 58.4503 134.171 65.7469C135.354 73.0435 135.026 75.0501 135.026 75.0501C135.026 75.0501 134.743 68.7771 131.686 62.2427C128.63 55.7084 127.019 54.6662 127.019 54.6662C127.019 54.6662 127.5 58.7808 128.627 62.2158C129.754 65.6507 131.053 68.0942 131.053 68.0942C131.053 68.0942 126.393 61.3709 125.794 54.5583C125.196 47.7457 128.769 43.7593 128.769 43.7593L133.856 45.4658H133.858Z" fill="#030712"/>
<path d="M123.345 17.6421C123.345 17.6421 118.41 21.1057 116.889 29.4799C115.367 37.854 120.167 43.6296 120.167 43.6296L121.821 41.8337C121.821 41.8337 121.352 32.328 122.383 30.0785C123.414 27.829 124.39 26.7042 124.39 26.7042C124.39 26.7042 120.379 31.2943 120.348 32.5135C120.318 33.7327 120.298 38.0024 120.326 38.3801C120.355 38.7579 118.722 33.3246 119.602 29.3787C120.482 25.4328 123.093 21.9944 123.093 21.9944C123.093 21.9944 119.363 24.7212 118.304 30.4647C117.245 36.2099 119.942 40.9905 119.942 40.9905C119.942 40.9905 116.342 35.2706 117.416 29.7412C118.49 24.2102 123.346 17.6421 123.346 17.6421H123.345Z" fill="#030712"/>
<mask id="path-44-inside-1_2894_5505" fill="white">
<path fill-rule="evenodd" clip-rule="evenodd" d="M212.373 56.1318C211.868 57.2315 206.64 68.2686 195.311 80.0009C183.417 92.3175 171.978 96.5783 171.891 96.6107L171.89 96.6092V96.6108C171.89 96.6108 171.89 96.6108 171.891 96.6107L178.304 115.771C178.304 115.771 190.946 107.665 201.765 95.8082C212.017 84.5743 218.891 65.0428 219.584 63.023C219.756 62.9534 219.96 62.885 220.203 62.8034C220.908 62.5668 221.941 62.2199 223.464 61.4147C225.584 60.2931 226.855 58.8634 227.503 58.1355C227.668 57.9495 227.793 57.8094 227.881 57.7318C228.06 57.5727 228.553 57.4282 229.222 57.232C230.156 56.9584 231.432 56.5842 232.682 55.9292C234.83 54.8044 233.899 53.3188 233.289 53.0456C233 52.9171 231.727 53.2547 230.441 53.5957C229.009 53.9753 227.561 54.3592 227.436 54.1096C227.282 53.8016 228.045 53.1535 229.16 52.2062C229.761 51.6965 230.463 51.1001 231.179 50.4234C233.226 48.4892 231.547 47.4083 231.124 47.3544C230.915 47.3285 229.404 48.4405 227.891 49.5538C226.34 50.695 224.787 51.8375 224.634 51.7573C224.329 51.5988 225.041 49.7725 225.655 48.7203C226.268 47.668 228.011 44.5905 227.518 43.6175C227.024 42.6445 225.525 42.513 225.144 43.1487C224.995 43.3975 224.435 44.3095 223.783 45.3699L223.781 45.3727L223.777 45.3799C222.764 47.028 221.534 49.0299 221.286 49.4572C220.876 50.1603 219.847 50.4285 219.739 49.7118C219.679 49.3132 220.012 47.6829 220.351 46.0217C220.622 44.6961 220.897 43.3508 220.979 42.5956C221.166 40.8925 219.317 40.6446 218.634 41.4186C217.949 42.1926 216.358 47.9108 215.975 49.5297C215.592 51.1502 215.233 51.8095 214.457 51.6392C213.681 51.4689 212.738 49.5246 212.594 48.3712C212.45 47.2178 211.19 46.577 210.584 46.8991C209.975 47.2211 209.785 49.9512 210.29 51.7269C210.679 53.0926 211.677 54.8803 212.169 55.7619L212.169 55.762C212.254 55.9148 212.324 56.0403 212.373 56.1318ZM89.5596 62.4147C91.0232 63.1889 92.0353 63.5395 92.7376 63.7755C93.1664 64.8392 99.4069 80.0688 110.457 93.4661C121.913 107.354 134.935 113.627 134.935 113.627L147.286 96.5604C147.286 96.5604 134.932 93.5841 118.062 77.2034C104.533 64.066 101.682 59.1904 101.083 57.7747C101.376 56.9568 102.289 54.2868 102.733 52.7269C103.238 50.9512 103.048 48.2211 102.439 47.8991C101.833 47.577 100.573 48.2178 100.429 49.3712C100.285 50.5246 99.3417 52.4689 98.566 52.6392C97.7903 52.8095 97.4307 52.1502 97.0478 50.5297C96.665 48.9108 95.0738 43.1926 94.3893 42.4186C93.7065 41.6446 91.8568 41.8925 92.0441 43.5956C92.1265 44.3507 92.4011 45.696 92.6717 47.0216C93.0109 48.6829 93.3437 50.3132 93.2838 50.7118C93.1761 51.4285 92.1468 51.1604 91.7374 50.4572C91.4884 50.0294 90.2558 48.0231 89.2424 46.3739L89.2422 46.3734L89.2421 46.3733L89.2417 46.3727C88.5895 45.3111 88.0282 44.3977 87.879 44.1487C87.4978 43.513 85.9995 43.6445 85.5056 44.6175C85.0116 45.5905 86.7552 48.668 87.3685 49.7203C87.9817 50.7742 88.6944 52.5988 88.3895 52.7573C88.2359 52.8375 86.6831 51.695 85.1321 50.5538L85.1321 50.5538C83.619 49.4405 82.1077 48.3285 81.899 48.3544C81.4764 48.4083 79.7974 49.4892 81.8443 51.4234C82.5604 52.1001 83.2626 52.6965 83.8627 53.2062L83.8627 53.2062C84.9779 54.1535 85.7409 54.8016 85.5868 55.1097C85.4619 55.3593 84.014 54.9753 82.5824 54.5957L82.5824 54.5957C81.2962 54.2547 80.0231 53.9171 79.7344 54.0456C79.1245 54.3188 78.193 55.8044 80.341 56.9292C81.5911 57.5842 82.8675 57.9584 83.8008 58.232L83.8008 58.232L83.8008 58.232C84.47 58.4282 84.9626 58.5727 85.1426 58.7318C85.2303 58.8093 85.3549 58.9495 85.5203 59.1355C86.1678 59.8634 87.4394 61.2931 89.5596 62.4147Z"/>
</mask>
<path fill-rule="evenodd" clip-rule="evenodd" d="M212.373 56.1318C211.868 57.2315 206.64 68.2686 195.311 80.0009C183.417 92.3175 171.978 96.5783 171.891 96.6107L171.89 96.6092V96.6108C171.89 96.6108 171.89 96.6108 171.891 96.6107L178.304 115.771C178.304 115.771 190.946 107.665 201.765 95.8082C212.017 84.5743 218.891 65.0428 219.584 63.023C219.756 62.9534 219.96 62.885 220.203 62.8034C220.908 62.5668 221.941 62.2199 223.464 61.4147C225.584 60.2931 226.855 58.8634 227.503 58.1355C227.668 57.9495 227.793 57.8094 227.881 57.7318C228.06 57.5727 228.553 57.4282 229.222 57.232C230.156 56.9584 231.432 56.5842 232.682 55.9292C234.83 54.8044 233.899 53.3188 233.289 53.0456C233 52.9171 231.727 53.2547 230.441 53.5957C229.009 53.9753 227.561 54.3592 227.436 54.1096C227.282 53.8016 228.045 53.1535 229.16 52.2062C229.761 51.6965 230.463 51.1001 231.179 50.4234C233.226 48.4892 231.547 47.4083 231.124 47.3544C230.915 47.3285 229.404 48.4405 227.891 49.5538C226.34 50.695 224.787 51.8375 224.634 51.7573C224.329 51.5988 225.041 49.7725 225.655 48.7203C226.268 47.668 228.011 44.5905 227.518 43.6175C227.024 42.6445 225.525 42.513 225.144 43.1487C224.995 43.3975 224.435 44.3095 223.783 45.3699L223.781 45.3727L223.777 45.3799C222.764 47.028 221.534 49.0299 221.286 49.4572C220.876 50.1603 219.847 50.4285 219.739 49.7118C219.679 49.3132 220.012 47.6829 220.351 46.0217C220.622 44.6961 220.897 43.3508 220.979 42.5956C221.166 40.8925 219.317 40.6446 218.634 41.4186C217.949 42.1926 216.358 47.9108 215.975 49.5297C215.592 51.1502 215.233 51.8095 214.457 51.6392C213.681 51.4689 212.738 49.5246 212.594 48.3712C212.45 47.2178 211.19 46.577 210.584 46.8991C209.975 47.2211 209.785 49.9512 210.29 51.7269C210.679 53.0926 211.677 54.8803 212.169 55.7619L212.169 55.762C212.254 55.9148 212.324 56.0403 212.373 56.1318ZM89.5596 62.4147C91.0232 63.1889 92.0353 63.5395 92.7376 63.7755C93.1664 64.8392 99.4069 80.0688 110.457 93.4661C121.913 107.354 134.935 113.627 134.935 113.627L147.286 96.5604C147.286 96.5604 134.932 93.5841 118.062 77.2034C104.533 64.066 101.682 59.1904 101.083 57.7747C101.376 56.9568 102.289 54.2868 102.733 52.7269C103.238 50.9512 103.048 48.2211 102.439 47.8991C101.833 47.577 100.573 48.2178 100.429 49.3712C100.285 50.5246 99.3417 52.4689 98.566 52.6392C97.7903 52.8095 97.4307 52.1502 97.0478 50.5297C96.665 48.9108 95.0738 43.1926 94.3893 42.4186C93.7065 41.6446 91.8568 41.8925 92.0441 43.5956C92.1265 44.3507 92.4011 45.696 92.6717 47.0216C93.0109 48.6829 93.3437 50.3132 93.2838 50.7118C93.1761 51.4285 92.1468 51.1604 91.7374 50.4572C91.4884 50.0294 90.2558 48.0231 89.2424 46.3739L89.2422 46.3734L89.2421 46.3733L89.2417 46.3727C88.5895 45.3111 88.0282 44.3977 87.879 44.1487C87.4978 43.513 85.9995 43.6445 85.5056 44.6175C85.0116 45.5905 86.7552 48.668 87.3685 49.7203C87.9817 50.7742 88.6944 52.5988 88.3895 52.7573C88.2359 52.8375 86.6831 51.695 85.1321 50.5538L85.1321 50.5538C83.619 49.4405 82.1077 48.3285 81.899 48.3544C81.4764 48.4083 79.7974 49.4892 81.8443 51.4234C82.5604 52.1001 83.2626 52.6965 83.8627 53.2062L83.8627 53.2062C84.9779 54.1535 85.7409 54.8016 85.5868 55.1097C85.4619 55.3593 84.014 54.9753 82.5824 54.5957L82.5824 54.5957C81.2962 54.2547 80.0231 53.9171 79.7344 54.0456C79.1245 54.3188 78.193 55.8044 80.341 56.9292C81.5911 57.5842 82.8675 57.9584 83.8008 58.232L83.8008 58.232L83.8008 58.232C84.47 58.4282 84.9626 58.5727 85.1426 58.7318C85.2303 58.8093 85.3549 58.9495 85.5203 59.1355C86.1678 59.8634 87.4394 61.2931 89.5596 62.4147Z" fill="white"/>
<path d="M195.311 80.0009L195.671 80.3482L195.671 80.3482L195.311 80.0009ZM212.373 56.1318L212.828 56.3407L212.932 56.1146L212.814 55.8953L212.373 56.1318ZM171.89 96.6092L172.364 96.45L171.39 96.6092H171.89ZM171.89 96.6108H171.39V97.3247L172.061 97.0807L171.89 96.6108ZM178.304 115.771L177.83 115.929L178.034 116.538L178.574 116.191L178.304 115.771ZM201.765 95.8082L201.396 95.4711L201.765 95.8082ZM219.584 63.023L219.396 62.5597L219.185 62.6454L219.111 62.8606L219.584 63.023ZM220.203 62.8034L220.044 62.3293L220.044 62.3293L220.203 62.8034ZM223.464 61.4147L223.697 61.8566V61.8566L223.464 61.4147ZM227.503 58.1355L227.129 57.8032L227.129 57.8032L227.503 58.1355ZM227.881 57.7318L227.549 57.3573V57.3573L227.881 57.7318ZM229.222 57.232L229.363 57.7118L229.222 57.232ZM232.682 55.9292L232.45 55.4862L232.45 55.4863L232.682 55.9292ZM233.289 53.0456L233.493 52.5893L233.492 52.5888L233.289 53.0456ZM230.441 53.5957L230.569 54.079L230.441 53.5957ZM227.436 54.1096L227.884 53.886L227.884 53.886L227.436 54.1096ZM229.16 52.2062L229.484 52.5873V52.5873L229.16 52.2062ZM231.179 50.4234L230.835 50.06V50.06L231.179 50.4234ZM231.124 47.3544L231.187 46.8584L231.185 46.8581L231.124 47.3544ZM227.891 49.5538L228.187 49.9565L227.891 49.5538ZM224.634 51.7573L224.865 51.3141L224.864 51.3136L224.634 51.7573ZM225.655 48.7203L226.087 48.972V48.972L225.655 48.7203ZM225.144 43.1487L225.573 43.4059V43.4059L225.144 43.1487ZM223.783 45.3699L223.357 45.1082L223.356 45.1093L223.783 45.3699ZM223.781 45.3727L224.208 45.6339L224.208 45.6333L223.781 45.3727ZM223.777 45.3799L224.203 45.6416L224.203 45.6411L223.777 45.3799ZM221.286 49.4572L221.718 49.7087V49.7087L221.286 49.4572ZM219.739 49.7118L219.245 49.7861V49.7861L219.739 49.7118ZM220.351 46.0217L220.841 46.1217V46.1217L220.351 46.0217ZM220.979 42.5956L220.482 42.541L220.482 42.5414L220.979 42.5956ZM218.634 41.4186L219.008 41.7498L219.009 41.7494L218.634 41.4186ZM215.975 49.5297L215.489 49.4146L215.489 49.4147L215.975 49.5297ZM214.457 51.6392L214.564 51.1509L214.564 51.1509L214.457 51.6392ZM212.594 48.3712L213.09 48.3092L212.594 48.3712ZM210.584 46.8991L210.818 47.3409L210.818 47.3407L210.584 46.8991ZM210.29 51.7269L209.809 51.8638V51.8638L210.29 51.7269ZM212.169 55.7619L212.628 55.5634L212.618 55.5403L212.605 55.5182L212.169 55.7619ZM212.169 55.762L211.71 55.9604L211.72 55.9836L211.732 56.0057L212.169 55.762ZM92.7376 63.7755L93.2013 63.5886L93.1152 63.375L92.8969 63.3016L92.7376 63.7755ZM89.5596 62.4147L89.7934 61.9727L89.5596 62.4147ZM110.457 93.4661L110.071 93.7842L110.071 93.7842L110.457 93.4661ZM134.935 113.627L134.718 114.078L135.095 114.259L135.34 113.921L134.935 113.627ZM147.286 96.5604L147.691 96.8535L148.129 96.2491L147.403 96.0743L147.286 96.5604ZM118.062 77.2034L118.411 76.8447L118.062 77.2034ZM101.083 57.7747L100.612 57.6062L100.547 57.7898L100.623 57.9695L101.083 57.7747ZM102.733 52.7269L103.214 52.8638L102.733 52.7269ZM102.439 47.8991L102.205 48.3407L102.205 48.3409L102.439 47.8991ZM98.566 52.6392L98.4588 52.1509L98.566 52.6392ZM97.0478 50.5297L97.5344 50.4147L97.5344 50.4146L97.0478 50.5297ZM94.3893 42.4186L94.0144 42.7494L94.0148 42.7498L94.3893 42.4186ZM92.0441 43.5956L92.5411 43.5414L92.5411 43.541L92.0441 43.5956ZM92.6717 47.0216L93.1616 46.9216L92.6717 47.0216ZM93.2838 50.7118L92.7894 50.6375L93.2838 50.7118ZM91.7374 50.4572L92.1696 50.2056L91.7374 50.4572ZM89.2424 46.3739L89.6685 46.1121L89.6681 46.1116L89.2424 46.3739ZM89.2422 46.3734L88.8148 46.6331L88.8165 46.6358L89.2422 46.3734ZM89.2421 46.3733L89.6694 46.1137L89.6684 46.112L89.2421 46.3733ZM89.2417 46.3727L89.668 46.1114L89.6677 46.1109L89.2417 46.3727ZM87.879 44.1487L87.4502 44.4059L87.4502 44.4059L87.879 44.1487ZM85.5056 44.6175L85.0597 44.3912L85.5056 44.6175ZM87.3685 49.7203L87.8007 49.4688L87.8005 49.4685L87.3685 49.7203ZM88.3895 52.7573L88.1589 52.3136L88.1579 52.3141L88.3895 52.7573ZM85.1321 50.5538L85.4284 50.1511L85.4262 50.1494L85.1321 50.5538ZM85.1321 50.5538L84.8358 50.9565L84.838 50.9582L85.1321 50.5538ZM81.899 48.3544L81.8376 47.8581L81.8357 47.8584L81.899 48.3544ZM81.8443 51.4234L81.5009 51.7868H81.5009L81.8443 51.4234ZM83.8627 53.2062L84.2162 52.8527L84.2019 52.8383L84.1864 52.8251L83.8627 53.2062ZM83.8627 53.2062L83.5091 53.5598L83.5235 53.5742L83.539 53.5873L83.8627 53.2062ZM85.5868 55.1097L86.0339 55.3333L86.0339 55.3333L85.5868 55.1097ZM82.5824 54.5957L82.4115 55.0656L82.4326 55.0733L82.4543 55.079L82.5824 54.5957ZM82.5824 54.5957L82.7533 54.1258L82.7322 54.1182L82.7106 54.1124L82.5824 54.5957ZM79.7344 54.0456L79.5311 53.5888L79.53 53.5893L79.7344 54.0456ZM80.341 56.9292L80.5731 56.4863L80.573 56.4862L80.341 56.9292ZM83.8008 58.232L83.6601 58.7118L83.6761 58.7165L83.6923 58.7201L83.8008 58.232ZM83.8008 58.232L83.9589 57.7577L83.9344 57.7495L83.9092 57.7439L83.8008 58.232ZM83.8008 58.232L83.6427 58.7064L83.6514 58.7093L83.6601 58.7119L83.8008 58.232ZM85.1426 58.7318L84.8113 59.1063L84.8113 59.1063L85.1426 58.7318ZM85.5203 59.1355L85.1467 59.4678H85.1467L85.5203 59.1355ZM195.671 80.3482C207.052 68.5616 212.308 57.4706 212.828 56.3407L211.919 55.9228C211.427 56.9923 206.228 67.9755 194.952 79.6535L195.671 80.3482ZM172.065 97.0794C172.195 97.0312 183.707 92.7365 195.671 80.3482L194.952 79.6535C183.126 91.8985 171.761 96.1253 171.717 96.1419L172.065 97.0794ZM172.365 96.4515L172.364 96.45L171.416 96.7684L171.417 96.7699L172.365 96.4515ZM171.39 96.6092V96.6108H172.39V96.6092H171.39ZM171.89 96.6108C172.061 97.0807 172.061 97.0807 172.061 97.0807C172.061 97.0807 172.061 97.0807 172.061 97.0807C172.061 97.0807 172.061 97.0807 172.061 97.0807C172.061 97.0807 172.061 97.0807 172.061 97.0807C172.061 97.0807 172.061 97.0807 172.061 97.0807C172.061 97.0807 172.061 97.0807 172.061 97.0806C172.062 97.0806 172.062 97.0806 172.062 97.0805C172.062 97.0805 172.062 97.0804 172.062 97.0803C172.063 97.0802 172.063 97.08 172.064 97.0798C172.064 97.0795 172.065 97.0792 172.066 97.0788L171.715 96.1425C171.716 96.1423 171.716 96.142 171.717 96.1418C171.718 96.1416 171.718 96.1415 171.718 96.1414C171.718 96.1413 171.719 96.1412 171.719 96.1412C171.719 96.1411 171.719 96.1411 171.719 96.1411C171.719 96.141 171.719 96.141 171.719 96.141C171.719 96.141 171.719 96.141 171.719 96.141C171.719 96.141 171.719 96.141 171.719 96.141C171.719 96.141 171.719 96.141 171.719 96.141C171.719 96.141 171.719 96.141 171.719 96.141C171.719 96.141 171.719 96.1409 171.89 96.6108ZM178.779 115.612L172.365 96.4519L171.417 96.7694L177.83 115.929L178.779 115.612ZM201.396 95.4711C196.011 101.372 190.169 106.343 185.671 109.841C183.422 111.589 181.511 112.968 180.163 113.909C179.488 114.379 178.955 114.74 178.591 114.983C178.409 115.105 178.269 115.197 178.175 115.258C178.128 115.289 178.093 115.312 178.069 115.327C178.058 115.335 178.049 115.341 178.043 115.344C178.04 115.346 178.038 115.348 178.036 115.348C178.036 115.349 178.035 115.349 178.035 115.349C178.035 115.349 178.035 115.35 178.035 115.35C178.035 115.35 178.035 115.35 178.304 115.771C178.574 116.191 178.574 116.191 178.575 116.191C178.575 116.191 178.575 116.191 178.575 116.191C178.576 116.191 178.576 116.19 178.577 116.19C178.579 116.189 178.581 116.187 178.584 116.185C178.591 116.181 178.6 116.175 178.613 116.167C178.638 116.151 178.674 116.127 178.723 116.095C178.819 116.032 178.962 115.938 179.146 115.815C179.516 115.568 180.055 115.203 180.735 114.729C182.095 113.779 184.02 112.39 186.284 110.63C190.811 107.111 196.699 102.101 202.135 96.1452L201.396 95.4711ZM219.111 62.8606C218.768 63.8605 216.883 69.2297 213.807 75.7469C210.727 82.2715 206.471 89.9095 201.396 95.4711L202.135 96.1452C207.311 90.473 211.617 82.7283 214.711 76.1737C217.808 69.6117 219.707 64.2053 220.057 63.1854L219.111 62.8606ZM219.772 63.4862C219.926 63.4237 220.114 63.3606 220.362 63.2774L220.044 62.3293C219.805 62.4093 219.585 62.4831 219.396 62.5597L219.772 63.4862ZM220.362 63.2774C221.077 63.0373 222.14 62.6803 223.697 61.8566L223.23 60.9727C221.742 61.7595 220.738 62.0964 220.044 62.3293L220.362 63.2774ZM223.697 61.8566C225.9 60.6913 227.221 59.2048 227.876 58.4677L227.129 57.8032C226.49 58.522 225.267 59.8949 223.23 60.9727L223.697 61.8566ZM227.876 58.4678C228.053 58.2693 228.153 58.1587 228.212 58.1063L227.549 57.3573C227.433 57.46 227.283 57.6297 227.129 57.8032L227.876 58.4678ZM228.212 58.1064C228.206 58.1113 228.223 58.0961 228.287 58.0657C228.346 58.0373 228.427 58.0049 228.534 57.9676C228.748 57.8924 229.024 57.8113 229.363 57.7118L229.082 56.7522C228.752 56.849 228.447 56.9382 228.202 57.0241C227.98 57.1021 227.722 57.2045 227.549 57.3573L228.212 58.1064ZM229.363 57.7118C230.294 57.439 231.615 57.053 232.914 56.372L232.45 55.4863C231.249 56.1155 230.018 56.4779 229.082 56.7522L229.363 57.7118ZM232.914 56.3721C234.097 55.7528 234.579 54.9427 234.518 54.131C234.49 53.7515 234.343 53.4191 234.16 53.1625C233.981 52.9116 233.743 52.7013 233.493 52.5893L233.084 53.5019C233.139 53.5265 233.247 53.6044 233.346 53.7439C233.442 53.8779 233.509 54.0384 233.521 54.2051C233.542 54.4857 233.415 54.9807 232.45 55.4862L232.914 56.3721ZM233.492 52.5888C233.369 52.5342 233.242 52.5219 233.155 52.5187C233.058 52.5151 232.954 52.5213 232.851 52.5321C232.644 52.5538 232.397 52.599 232.133 52.6558C231.604 52.7698 230.952 52.9429 230.313 53.1124L230.569 54.079C231.216 53.9075 231.843 53.7413 232.344 53.6334C232.595 53.5793 232.801 53.5428 232.955 53.5267C233.032 53.5186 233.085 53.5168 233.118 53.518C233.16 53.5196 233.136 53.5249 233.085 53.5024L233.492 52.5888ZM230.313 53.1124C229.591 53.3036 228.888 53.4899 228.35 53.5985C228.077 53.6534 227.872 53.6832 227.738 53.6884C227.668 53.6911 227.647 53.6857 227.656 53.6878C227.662 53.6892 227.693 53.6968 227.734 53.7217C227.778 53.7483 227.84 53.7995 227.884 53.886L226.989 54.3333C227.106 54.5676 227.329 54.6385 227.429 54.6618C227.547 54.6892 227.671 54.6918 227.777 54.6877C227.994 54.6792 228.263 54.6361 228.547 54.5788C229.122 54.4629 229.858 54.2674 230.569 54.079L230.313 53.1124ZM227.884 53.886C227.961 54.0406 227.874 54.1411 227.919 54.0618C227.954 54.0001 228.033 53.8976 228.18 53.7466C228.471 53.4486 228.919 53.0676 229.484 52.5873L228.837 51.8251C228.287 52.2921 227.796 52.7088 227.464 53.0486C227.301 53.2166 227.148 53.3931 227.049 53.5692C226.959 53.7276 226.835 54.0246 226.989 54.3333L227.884 53.886ZM229.484 52.5873C230.083 52.0782 230.795 51.4738 231.522 50.7868L230.835 50.06C230.13 50.7264 229.438 51.3147 228.837 51.8251L229.484 52.5873ZM231.522 50.7868C232.627 49.7433 232.867 48.7776 232.539 47.9911C232.388 47.6303 232.136 47.3635 231.899 47.1852C231.676 47.0171 231.411 46.8869 231.187 46.8584L231.061 47.8503C231.049 47.8488 231.152 47.874 231.298 47.9841C231.431 48.0842 231.55 48.2186 231.616 48.3765C231.721 48.6275 231.778 49.1694 230.835 50.06L231.522 50.7868ZM231.185 46.8581C231.066 46.8433 230.965 46.8718 230.924 46.8844C230.87 46.9009 230.819 46.9226 230.775 46.943C230.687 46.9842 230.588 47.0404 230.484 47.103C230.276 47.2296 230.009 47.4084 229.711 47.6169C229.111 48.0352 228.349 48.5957 227.595 49.1511L228.187 49.9565C228.946 49.3986 229.696 48.8465 230.283 48.4369C230.577 48.2315 230.822 48.0676 231.003 47.9581C231.094 47.9027 231.159 47.8676 231.199 47.8485C231.22 47.8388 231.224 47.8382 231.216 47.8407C231.212 47.8421 231.198 47.8462 231.176 47.8495C231.157 47.8524 231.116 47.8572 231.063 47.8506L231.185 46.8581ZM227.595 49.1511C226.817 49.7231 226.047 50.2895 225.453 50.7031C225.154 50.9108 224.909 51.0733 224.734 51.1774C224.644 51.2306 224.587 51.26 224.557 51.2729C224.541 51.2799 224.55 51.2744 224.576 51.269C224.589 51.2661 224.62 51.2605 224.663 51.2614C224.703 51.2622 224.78 51.2694 224.865 51.3141L224.402 52.2004C224.575 52.291 224.741 52.256 224.781 52.2476C224.848 52.2337 224.907 52.2108 224.951 52.192C225.041 52.1533 225.143 52.0976 225.245 52.0372C225.452 51.914 225.721 51.7346 226.024 51.524C226.632 51.1011 227.414 50.5257 228.187 49.9565L227.595 49.1511ZM224.864 51.3136C224.956 51.3615 225.008 51.4317 225.034 51.4816C225.057 51.527 225.061 51.5595 225.061 51.5616C225.061 51.5632 225.058 51.5288 225.072 51.4426C225.098 51.2773 225.166 51.0347 225.271 50.7418C225.478 50.161 225.797 49.4697 226.087 48.972L225.223 48.4685C224.899 49.0231 224.555 49.771 224.329 50.406C224.217 50.721 224.125 51.0305 224.085 51.285C224.065 51.4088 224.052 51.5513 224.069 51.6872C224.083 51.8014 224.14 52.0641 224.403 52.2009L224.864 51.3136ZM226.087 48.972C226.395 48.4436 226.996 47.3907 227.459 46.3409C227.69 45.8175 227.894 45.2766 228.008 44.7915C228.114 44.3392 228.174 43.8064 227.963 43.3912L227.072 43.8438C227.108 43.9151 227.135 44.1319 227.034 44.5632C226.941 44.9617 226.764 45.4383 226.544 45.9375C226.105 46.9327 225.528 47.9447 225.223 48.4685L226.087 48.972ZM227.963 43.3912C227.626 42.7267 226.966 42.3789 226.365 42.2858C225.803 42.1987 225.062 42.3127 224.715 42.8916L225.573 43.4059C225.607 43.3491 225.806 43.211 226.212 43.274C226.58 43.331 226.915 43.5354 227.072 43.8438L227.963 43.3912ZM224.715 42.8916C224.568 43.1373 224.01 44.0456 223.357 45.1082L224.209 45.6317C224.859 44.5734 225.422 43.6576 225.573 43.4059L224.715 42.8916ZM223.356 45.1093L223.355 45.1121L224.208 45.6333L224.21 45.6305L223.356 45.1093ZM223.355 45.1115L223.351 45.1186L224.203 45.6411L224.208 45.6339L223.355 45.1115ZM223.351 45.1181C222.341 46.7613 221.106 48.7716 220.854 49.2056L221.718 49.7087C221.963 49.2883 223.187 47.2947 224.203 45.6416L223.351 45.1181ZM220.854 49.2056C220.719 49.4371 220.478 49.5907 220.3 49.6269C220.213 49.6445 220.191 49.6251 220.209 49.6347C220.246 49.6552 220.241 49.6843 220.234 49.6375L219.245 49.7861C219.292 50.0976 219.455 50.3619 219.729 50.5118C219.982 50.6507 220.264 50.6547 220.499 50.6069C220.964 50.5125 221.443 50.1804 221.718 49.7087L220.854 49.2056ZM220.234 49.6375C220.234 49.6399 220.233 49.6325 220.232 49.6117C220.232 49.5918 220.232 49.565 220.234 49.5303C220.237 49.4606 220.245 49.3706 220.258 49.26C220.285 49.039 220.33 48.7566 220.388 48.4277C220.505 47.7703 220.671 46.9544 220.841 46.1217L219.861 45.9217C219.692 46.7502 219.523 47.5801 219.403 48.2528C219.344 48.5889 219.295 48.8927 219.265 49.1413C219.238 49.3698 219.218 49.6105 219.245 49.7861L220.234 49.6375ZM220.841 46.1217C221.109 44.809 221.391 43.4342 221.476 42.6499L220.482 42.5414C220.403 43.2673 220.135 44.5832 219.861 45.9217L220.841 46.1217ZM221.476 42.6503C221.533 42.1318 221.438 41.6797 221.211 41.318C220.984 40.9581 220.65 40.7258 220.294 40.6047C219.611 40.373 218.755 40.5249 218.259 41.0878L219.009 41.7494C219.195 41.5383 219.605 41.4271 219.972 41.5516C220.14 41.6087 220.276 41.7093 220.364 41.8507C220.452 41.9904 220.519 42.2079 220.482 42.541L221.476 42.6503ZM218.259 41.0874C218.122 41.242 217.998 41.4733 217.886 41.7103C217.769 41.9608 217.643 42.2677 217.515 42.6092C217.259 43.2931 216.98 44.1419 216.714 45.0105C216.18 46.7472 215.683 48.5923 215.489 49.4146L216.462 49.6448C216.65 48.8482 217.141 47.0248 217.669 45.3042C217.934 44.4441 218.205 43.617 218.452 42.9605C218.575 42.6317 218.689 42.3523 218.791 42.1356C218.899 41.9054 218.974 41.7887 219.008 41.7498L218.259 41.0874ZM215.489 49.4147C215.296 50.2297 215.127 50.7146 214.95 50.9754C214.869 51.0947 214.808 51.1341 214.772 51.1491C214.74 51.1627 214.682 51.1767 214.564 51.1509L214.35 52.1276C214.62 52.1869 214.898 52.1824 215.163 52.0696C215.425 51.9582 215.623 51.7635 215.777 51.5367C216.07 51.1052 216.272 50.4502 216.462 49.6446L215.489 49.4147ZM214.564 51.1509C214.527 51.1426 214.41 51.0862 214.232 50.8864C214.067 50.7003 213.893 50.4408 213.729 50.1369C213.399 49.5232 213.153 48.8084 213.09 48.3092L212.098 48.4332C212.18 49.0874 212.477 49.9214 212.849 50.6109C213.036 50.9585 213.252 51.2891 213.486 51.5515C213.707 51.8001 214 52.0507 214.35 52.1276L214.564 51.1509ZM213.09 48.3092C212.997 47.56 212.543 46.9909 212.034 46.6618C211.555 46.3524 210.884 46.1738 210.349 46.4574L210.818 47.3407C210.891 47.3023 211.152 47.2829 211.491 47.5018C211.799 47.7009 212.047 48.029 212.098 48.4332L213.09 48.3092ZM210.35 46.4572C210.155 46.5601 210.027 46.7292 209.942 46.8775C209.853 47.0324 209.784 47.2128 209.73 47.4002C209.621 47.7758 209.552 48.2417 209.52 48.7359C209.457 49.7223 209.537 50.9081 209.809 51.8638L210.771 51.59C210.538 50.77 210.461 49.703 210.518 48.7998C210.547 48.3494 210.608 47.9613 210.69 47.679C210.731 47.5374 210.773 47.4378 210.81 47.3748C210.849 47.3052 210.86 47.3185 210.818 47.3409L210.35 46.4572ZM209.809 51.8638C210.218 53.2971 211.249 55.1395 211.732 56.0055L212.605 55.5182C212.105 54.6212 211.141 52.8882 210.771 51.59L209.809 51.8638ZM211.71 55.9603L211.71 55.9604L212.628 55.5635L212.628 55.5634L211.71 55.9603ZM211.732 56.0057C211.818 56.1601 211.886 56.2813 211.933 56.3682L212.814 55.8953C212.762 55.7994 212.69 55.6695 212.605 55.5183L211.732 56.0057ZM92.8969 63.3016C92.2079 63.07 91.2238 62.7293 89.7934 61.9727L89.3258 62.8566C90.8226 63.6484 91.8628 64.0089 92.5782 64.2495L92.8969 63.3016ZM110.842 93.1479C99.8421 79.8107 93.6245 64.6382 93.2013 63.5886L92.2738 63.9625C92.7083 65.0402 98.9716 80.3269 110.071 93.7842L110.842 93.1479ZM134.935 113.627C135.152 113.177 135.152 113.177 135.152 113.177C135.152 113.177 135.152 113.177 135.152 113.177C135.152 113.177 135.151 113.177 135.15 113.176C135.149 113.176 135.147 113.175 135.144 113.173C135.139 113.17 135.13 113.166 135.118 113.16C135.094 113.149 135.058 113.131 135.01 113.107C134.915 113.059 134.772 112.986 134.585 112.888C134.212 112.692 133.665 112.396 132.97 111.997C131.582 111.198 129.61 109.988 127.28 108.346C122.619 105.061 116.535 100.05 110.842 93.1479L110.071 93.7842C115.834 100.771 121.989 105.84 126.704 109.164C129.061 110.826 131.06 112.052 132.472 112.864C133.178 113.27 133.737 113.572 134.121 113.773C134.313 113.874 134.461 113.95 134.561 114C134.612 114.026 134.65 114.045 134.677 114.058C134.69 114.064 134.7 114.069 134.707 114.072C134.71 114.074 134.713 114.075 134.715 114.076C134.716 114.077 134.716 114.077 134.717 114.077C134.717 114.077 134.717 114.078 134.718 114.078C134.718 114.078 134.718 114.078 134.935 113.627ZM146.881 96.2673L134.53 113.334L135.34 113.921L147.691 96.8535L146.881 96.2673ZM117.714 77.5621C126.182 85.7849 133.526 90.6516 138.764 93.4651C141.382 94.8718 143.474 95.7648 144.916 96.3074C145.637 96.5786 146.195 96.7623 146.576 96.8787C146.766 96.9369 146.912 96.9782 147.012 97.0054C147.061 97.0189 147.099 97.0289 147.126 97.0357C147.139 97.039 147.149 97.0416 147.156 97.0434C147.16 97.0443 147.163 97.045 147.165 97.0455C147.166 97.0458 147.167 97.046 147.167 97.0461C147.168 97.0462 147.168 97.0463 147.168 97.0464C147.169 97.0464 147.169 97.0465 147.286 96.5604C147.403 96.0743 147.403 96.0744 147.403 96.0744C147.403 96.0744 147.403 96.0744 147.403 96.0744C147.403 96.0744 147.403 96.0743 147.403 96.0742C147.402 96.074 147.4 96.0736 147.398 96.073C147.393 96.0718 147.385 96.0698 147.374 96.0671C147.353 96.0615 147.32 96.0528 147.275 96.0406C147.185 96.0161 147.049 95.9776 146.868 95.9224C146.508 95.812 145.969 95.6351 145.268 95.3714C143.866 94.844 141.815 93.9692 139.237 92.5842C134.08 89.8144 126.812 85.0026 118.411 76.8447L117.714 77.5621ZM100.623 57.9695C101.265 59.4885 104.186 64.4263 117.714 77.5621L118.411 76.8447C104.88 63.7057 102.099 58.8922 101.544 57.5799L100.623 57.9695ZM102.252 52.59C101.812 54.1338 100.904 56.7914 100.612 57.6062L101.554 57.9432C101.848 57.1221 102.765 54.4398 103.214 52.8638L102.252 52.59ZM102.205 48.3409C102.163 48.3185 102.174 48.3052 102.214 48.3748C102.25 48.4378 102.292 48.5374 102.333 48.679C102.415 48.9613 102.476 49.3494 102.505 49.7998C102.563 50.703 102.485 51.77 102.252 52.59L103.214 52.8638C103.486 51.9081 103.566 50.7223 103.503 49.7359C103.471 49.2417 103.402 48.7758 103.293 48.4002C103.239 48.2128 103.17 48.0324 103.081 47.8775C102.996 47.7293 102.868 47.5601 102.673 47.4572L102.205 48.3409ZM100.925 49.4332C100.976 49.029 101.224 48.7009 101.532 48.5018C101.871 48.2829 102.133 48.3023 102.205 48.3407L102.674 47.4574C102.14 47.1738 101.468 47.3524 100.989 47.6618C100.48 47.9909 100.026 48.56 99.9328 49.3092L100.925 49.4332ZM98.6732 53.1276C99.0236 53.0507 99.316 52.8001 99.5374 52.5515C99.7711 52.2891 99.9874 51.9585 100.175 51.6109C100.546 50.9214 100.843 50.0874 100.925 49.4332L99.9328 49.3092C99.8704 49.8084 99.6244 50.5232 99.294 51.1369C99.1304 51.4408 98.9565 51.7003 98.7907 51.8864C98.6127 52.0863 98.4963 52.1426 98.4588 52.1509L98.6732 53.1276ZM96.5612 50.6446C96.7515 51.4502 96.9532 52.1052 97.2458 52.5367C97.3996 52.7635 97.5977 52.9582 97.86 53.0696C98.1256 53.1824 98.4033 53.1869 98.6732 53.1276L98.4588 52.1509C98.3409 52.1767 98.2827 52.1627 98.2508 52.1491C98.2156 52.1341 98.1543 52.0947 98.0734 51.9754C97.8966 51.7146 97.727 51.2297 97.5344 50.4147L96.5612 50.6446ZM94.0148 42.7498C94.0491 42.7887 94.1237 42.9054 94.2318 43.1356C94.3337 43.3523 94.4482 43.6317 94.5715 43.9605C94.8178 44.617 95.0894 45.4441 95.3537 46.3042C95.8825 48.0248 96.3729 49.8482 96.5612 50.6448L97.5344 50.4146C97.3399 49.5923 96.8433 47.7472 96.3096 46.0105C96.0427 45.1419 95.7643 44.2931 95.5078 43.6092C95.3797 43.2677 95.2546 42.9608 95.1369 42.7103C95.0255 42.4733 94.9006 42.242 94.7639 42.0874L94.0148 42.7498ZM92.5411 43.541C92.5045 43.2079 92.5707 42.9904 92.6587 42.8507C92.7476 42.7093 92.8831 42.6087 93.0512 42.5516C93.4177 42.4271 93.8281 42.5383 94.0144 42.7494L94.7643 42.0878C94.2676 41.5249 93.4118 41.373 92.7296 41.6047C92.3733 41.7258 92.0388 41.9581 91.8123 42.318C91.5847 42.6797 91.49 43.1318 91.5471 43.6503L92.5411 43.541ZM93.1616 46.9216C92.8884 45.5832 92.6203 44.2673 92.5411 43.5414L91.547 43.6499C91.6326 44.4342 91.9138 45.8089 92.1818 47.1216L93.1616 46.9216ZM93.7783 50.7861C93.8047 50.6105 93.7849 50.3698 93.7576 50.1413C93.7279 49.8927 93.6794 49.5889 93.6197 49.2528C93.5003 48.58 93.3308 47.7502 93.1616 46.9216L92.1818 47.1216C92.3518 47.9543 92.5184 48.7702 92.6351 49.4276C92.6936 49.7566 92.7383 50.0389 92.7647 50.26C92.7779 50.3706 92.7859 50.4606 92.7892 50.5303C92.7908 50.565 92.7911 50.5918 92.7907 50.6117C92.7902 50.6325 92.789 50.6399 92.7894 50.6375L93.7783 50.7861ZM91.3053 50.7087C91.58 51.1804 92.059 51.5125 92.5243 51.6069C92.7594 51.6547 93.0409 51.6507 93.2945 51.5118C93.568 51.3619 93.7314 51.0976 93.7783 50.7861L92.7894 50.6375C92.7823 50.6843 92.7767 50.6552 92.8141 50.6347C92.8316 50.6251 92.81 50.6445 92.7232 50.6269C92.5446 50.5907 92.3043 50.4371 92.1696 50.2056L91.3053 50.7087ZM88.8164 46.6356C89.8328 48.2898 91.0603 50.2878 91.3053 50.7087L92.1696 50.2056C91.9166 49.7711 90.6787 47.7565 89.6685 46.1121L88.8164 46.6356ZM88.8165 46.6358L88.8168 46.6362L89.6681 46.1116L89.6678 46.1111L88.8165 46.6358ZM88.8148 46.6329L88.8148 46.6331L89.6695 46.1138L89.6694 46.1137L88.8148 46.6329ZM88.8154 46.634L88.8158 46.6346L89.6684 46.112L89.668 46.1114L88.8154 46.634ZM87.4502 44.4059C87.6013 44.6579 88.1648 45.575 88.8157 46.6344L89.6677 46.1109C89.0142 45.0472 88.4552 44.1375 88.3078 43.8916L87.4502 44.4059ZM85.9514 44.8439C86.108 44.5354 86.4436 44.331 86.8111 44.274C87.2173 44.211 87.4161 44.3491 87.4502 44.4059L88.3078 43.8916C87.9606 43.3127 87.2197 43.1987 86.6579 43.2858C86.0576 43.3789 85.397 43.7267 85.0597 44.3912L85.9514 44.8439ZM87.8005 49.4685C87.4952 48.9447 86.9181 47.9326 86.4793 46.9375C86.2593 46.4383 86.0823 45.9617 85.9888 45.5632C85.8877 45.1319 85.9152 44.9151 85.9514 44.8439L85.0597 44.3912C84.8489 44.8064 84.9092 45.3392 85.0152 45.7915C85.129 46.2766 85.3336 46.8175 85.5643 47.3409C86.0272 48.3907 86.6285 49.4436 86.9365 49.972L87.8005 49.4685ZM88.6201 53.2009C88.8832 53.0641 88.9399 52.8017 88.9543 52.6873C88.9716 52.5514 88.9583 52.4089 88.9386 52.2852C88.8979 52.0308 88.8065 51.7214 88.6943 51.4066C88.4679 50.7718 88.1237 50.024 87.8007 49.4688L86.9363 49.9717C87.2265 50.4704 87.5453 51.1619 87.7524 51.7425C87.8568 52.0353 87.9247 52.2778 87.9511 52.4429C87.9648 52.529 87.9621 52.5633 87.9623 52.5617C87.9625 52.5595 87.9664 52.527 87.9895 52.4815C88.015 52.4316 88.0669 52.3614 88.1589 52.3136L88.6201 53.2009ZM84.8358 50.9565C85.6093 51.5257 86.3914 52.1011 86.9993 52.524C87.3021 52.7346 87.5711 52.914 87.7785 53.0372C87.8803 53.0976 87.9817 53.1533 88.0721 53.192C88.1158 53.2108 88.1755 53.2337 88.2419 53.2476C88.2819 53.256 88.4477 53.291 88.621 53.2004L88.1579 52.3141C88.2434 52.2694 88.3203 52.2622 88.3606 52.2614C88.4028 52.2605 88.4338 52.2661 88.4474 52.269C88.4734 52.2744 88.4824 52.2799 88.466 52.2729C88.436 52.26 88.3788 52.2306 88.2891 52.1774C88.1138 52.0733 87.8689 51.9108 87.5704 51.7031C86.9758 51.2895 86.2059 50.7231 85.4284 50.1511L84.8358 50.9565ZM84.838 50.9582L84.838 50.9582L85.4262 50.1494L85.4262 50.1494L84.838 50.9582ZM81.9604 48.8506C81.907 48.8572 81.866 48.8524 81.8467 48.8495C81.8256 48.8462 81.8115 48.8421 81.807 48.8407C81.7988 48.8382 81.8029 48.8388 81.8236 48.8485C81.8643 48.8676 81.9289 48.9027 82.0203 48.9581C82.2008 49.0676 82.446 49.2315 82.7402 49.4369C83.327 49.8465 84.0775 50.3986 84.8358 50.9565L85.4284 50.1511C84.6737 49.5957 83.9119 49.0352 83.3126 48.6169C83.0138 48.4084 82.7474 48.2296 82.5386 48.103C82.4354 48.0404 82.3358 47.9842 82.248 47.943C82.2044 47.9226 82.1532 47.9009 82.0992 47.8844C82.058 47.8718 81.9576 47.8433 81.8376 47.8581L81.9604 48.8506ZM82.1877 51.06C81.2452 50.1694 81.3021 49.6275 81.4069 49.3765C81.4729 49.2186 81.5921 49.0842 81.725 48.9841C81.8714 48.874 81.9744 48.8488 81.9623 48.8503L81.8357 47.8584C81.6123 47.8869 81.347 48.0171 81.1236 48.1852C80.8868 48.3635 80.6349 48.6303 80.4842 48.9911C80.1556 49.7776 80.3966 50.7433 81.5009 51.7868L82.1877 51.06ZM84.1864 52.8251C83.5855 52.3147 82.8929 51.7263 82.1877 51.06L81.5009 51.7868C82.228 52.4738 82.9397 53.0782 83.539 53.5873L84.1864 52.8251ZM84.2162 52.8527L84.2162 52.8527L83.5091 53.5598L83.5091 53.5598L84.2162 52.8527ZM86.0339 55.3333C86.1883 55.0246 86.064 54.7276 85.9744 54.5692C85.8747 54.3931 85.7225 54.2166 85.5588 54.0486C85.2275 53.7088 84.7361 53.2921 84.1864 52.8251L83.539 53.5873C84.1045 54.0676 84.5522 54.4486 84.8427 54.7466C84.9898 54.8976 85.0692 55.0001 85.1041 55.0618C85.149 55.1411 85.0622 55.0406 85.1396 54.886L86.0339 55.3333ZM82.4543 55.079C83.1648 55.2674 83.9012 55.4629 84.4758 55.5788C84.7602 55.6361 85.0295 55.6792 85.2466 55.6877C85.3525 55.6918 85.4761 55.6892 85.5939 55.6618C85.694 55.6385 85.9168 55.5676 86.0339 55.3333L85.1396 54.886C85.1828 54.7995 85.2449 54.7483 85.2888 54.7217C85.3299 54.6968 85.3612 54.6892 85.3672 54.6878C85.3763 54.6857 85.3552 54.6911 85.2854 54.6884C85.1511 54.6832 84.9456 54.6534 84.6735 54.5985C84.135 54.4899 83.4316 54.3036 82.7106 54.1124L82.4543 55.079ZM82.4115 55.0656L82.4115 55.0656L82.7533 54.1258L82.7533 54.1258L82.4115 55.0656ZM79.9378 54.5024C79.8871 54.5249 79.8633 54.5196 79.9054 54.518C79.9382 54.5168 79.9911 54.5186 80.0681 54.5267C80.2217 54.5428 80.4278 54.5793 80.679 54.6334C81.1802 54.7413 81.8073 54.9075 82.4543 55.079L82.7106 54.1124C82.0712 53.9429 81.4187 53.7698 80.8896 53.6558C80.6257 53.599 80.379 53.5538 80.1725 53.5321C80.0695 53.5213 79.9656 53.5151 79.8685 53.5187C79.7806 53.5219 79.6539 53.5342 79.5311 53.5888L79.9378 54.5024ZM80.573 56.4862C79.6076 55.9807 79.4813 55.4857 79.5021 55.2051C79.5145 55.0384 79.5809 54.8779 79.6766 54.7439C79.7764 54.6044 79.884 54.5265 79.9388 54.5019L79.53 53.5893C79.2799 53.7013 79.0424 53.9116 78.863 54.1625C78.6797 54.4191 78.5331 54.7515 78.5049 55.131C78.4445 55.9427 78.9264 56.7528 80.1091 57.3721L80.573 56.4862ZM83.9414 57.7522C83.0056 57.4779 81.7738 57.1155 80.5731 56.4863L80.109 57.372C81.4083 58.0529 82.7294 58.439 83.6601 58.7118L83.9414 57.7522ZM83.9092 57.7439L83.9092 57.7439L83.6923 58.7201L83.6923 58.7201L83.9092 57.7439ZM83.9589 57.7577L83.9589 57.7577L83.6427 58.7064L83.6427 58.7064L83.9589 57.7577ZM85.4738 58.3573C85.3011 58.2045 85.0431 58.1021 84.8208 58.0241C84.5763 57.9382 84.2715 57.849 83.9415 57.7522L83.6601 58.7119C83.9993 58.8113 84.2753 58.8924 84.4895 58.9676C84.5957 59.0049 84.6767 59.0373 84.7363 59.0657C84.8002 59.0961 84.817 59.1113 84.8113 59.1063L85.4738 58.3573ZM85.8939 58.8032C85.7397 58.6297 85.5899 58.46 85.4738 58.3573L84.8113 59.1063C84.8706 59.1587 84.9702 59.2693 85.1467 59.4678L85.8939 58.8032ZM89.7934 61.9727C87.756 60.8949 86.5333 59.522 85.8939 58.8032L85.1467 59.4678C85.8023 60.2048 87.1228 61.6913 89.3258 62.8566L89.7934 61.9727Z" fill="#C1C1C1" mask="url(#path-44-inside-1_2894_5505)"/>
<path d="M131.461 11.9404C131.461 11.9404 131.482 9.54759 132.386 8.04342C133.287 6.53924 133.809 6.23571 133.809 6.23571C133.809 6.23571 132.774 8.53076 132.623 9.32163C132.472 10.1125 132.503 11.8039 132.503 11.8039C132.503 11.8039 132.74 8.3166 136.41 5.88159C140.079 3.44658 146.179 3.23242 146.179 3.23242C146.179 3.23242 138.435 4.02329 136.373 6.64379C134.31 9.2643 135.333 13.9623 135.333 13.9623C135.333 13.9623 135.152 12.9202 136.46 11.6234C137.767 10.3267 138.883 10.1462 138.883 10.1462C138.883 10.1462 136.841 11.3604 136.612 12.2878C136.383 13.2153 136.4 14.8139 136.4 14.8139C136.4 14.8139 138.498 11.4413 141.783 10.2896C145.068 9.13782 147.79 9.13276 147.79 9.13276C147.79 9.13276 142.948 11.0062 141.453 12.3401C139.96 13.674 139.358 16.0972 139.358 16.0972C139.358 16.0972 141.14 15.0466 143.224 14.3991C145.307 13.7515 146.189 13.6537 146.189 13.6537C146.189 13.6537 143.401 15.0179 142.68 15.6402C141.959 16.2624 141.299 17.4968 141.299 17.4968L147.896 13.6453L148.111 15.9083L140.616 19.2472L131.436 12.4092L131.461 11.9404Z" fill="#030712"/>
<path d="M186.25 34.2754C186.25 34.2754 191.295 37.8318 192.28 43.2684C193.264 48.705 189.669 53.2985 189.669 53.2985C189.669 53.2985 200.542 45.4387 186.25 34.2754Z" fill="#030712"/>
<path d="M150.68 93.5992C150.68 93.5992 148.935 101.209 160.192 102.267C171.45 103.324 170.752 95.1523 170.752 95.1523L187.212 86.0614C187.212 86.0614 191.178 86.9619 194.494 92.2265C197.811 97.4928 198.515 100.781 198.515 100.781C198.515 100.781 190.553 107.772 187.991 109.899C185.428 112.025 182.443 114.005 182.443 114.005C182.443 114.005 185.173 134.242 186.255 135.353C187.338 136.465 188.562 135.212 189.273 137.124C189.983 139.036 189.113 140.497 189.113 140.497C189.113 140.497 190.132 139.795 191.385 140.61C192.638 141.422 198.054 143.943 198.374 144.96C198.694 145.977 198.888 165.128 176.362 165.366C153.836 165.604 146.562 163.331 142.241 157.221C137.918 151.11 132.145 146.25 125.002 148.09C117.859 149.932 118.657 145.743 120.33 145.029C122.002 144.316 123.495 142.733 123.495 142.733C123.495 142.733 121.492 141.473 122.64 139.654C123.789 137.832 125.567 136.23 125.567 136.23L130.354 113.401C130.354 113.401 123.167 109.45 119.425 106.073C115.684 102.695 112.661 98.7913 112.661 98.7913C112.661 98.7913 113.867 94.2197 118.614 89.5723C123.361 84.9249 128.098 83.2251 128.098 83.2251C128.098 83.2251 142.978 93.6599 150.68 93.6009V93.5992Z" fill="#4338CA"/>
<path d="M149.343 93.515C149.343 93.515 146.704 103.665 161.396 103.891C176.087 104.117 172.683 94.0867 172.683 94.0867L174.887 92.8691C174.887 92.8691 180.046 106.191 161.45 105.96C142.854 105.729 147.448 93.1592 147.448 93.1592L149.343 93.5167V93.515Z" fill="#FFFAFB"/>
<path d="M182.443 114.007L186.53 100.334L185.557 109.029L191.67 106.754L182.443 114.007Z" fill="#3730A3"/>
<path d="M130.354 113.402L130.974 111.464L126.578 102.609L127.962 109.82L118.651 105.356C118.651 105.356 127.672 112.609 130.355 113.402H130.354Z" fill="#3730A3"/>
<path d="M125.567 136.23C125.567 136.23 132.711 136.458 136.262 139.387C139.814 142.316 147.551 146.454 154.365 147.417C161.178 148.38 162.557 147.822 162.557 147.822C162.557 147.822 155.119 147.704 148.61 144.879C142.102 142.055 138.432 137.741 133.649 136.129C128.865 134.515 125.892 134.679 125.892 134.679L125.567 136.23Z" fill="#3730A3"/>
<path d="M189.113 140.498C189.113 140.498 184.444 149.756 172.823 153.95C161.203 158.146 151.769 152.171 151.769 152.171C151.769 152.171 158.881 160.409 173.142 155.48C187.402 150.552 190.964 140.387 190.964 140.387C190.964 140.387 190.185 139.893 189.113 140.497V140.498Z" fill="#3730A3"/>
<path d="M186.779 135.728C186.779 135.728 178.81 146.937 173.48 150.334C168.15 153.732 163.088 153.469 163.088 153.469C163.088 153.469 170.677 152.449 176.614 146.264C182.551 140.08 185.755 134.023 185.755 134.023L186.777 135.726L186.779 135.728Z" fill="#3730A3"/>
<path d="M195.691 142.969C195.691 142.969 197.618 156.115 186.126 160.748C174.633 165.38 158.079 162.832 158.079 162.832C158.079 162.832 177.975 162.886 186.29 158.588C194.605 154.289 194.388 142.252 194.388 142.252L195.689 142.969H195.691Z" fill="#3730A3"/>
<path d="M123.495 142.733C123.495 142.733 131.303 140.829 138.165 145.912C145.027 150.994 147.437 155.303 151.506 157.68C155.575 160.058 158.208 160.137 158.208 160.137C158.208 160.137 151.796 159.984 147.178 156.225C142.559 152.466 139.723 147.817 134.385 145.725C129.048 143.632 121.588 144.33 121.588 144.33L123.495 142.733Z" fill="#3730A3"/>
<path d="M124.881 185.487C125.143 185.495 130.17 186.171 131.018 182.322C131.867 178.472 125.809 173.013 125.551 171.477C125.292 169.941 123.088 165.604 120.865 163.378C118.642 161.154 117.474 161.265 116.136 163.143C114.799 165.024 110.607 170.991 113.836 176.48C117.066 181.969 123.078 185.428 124.879 185.485L124.881 185.487Z" fill="white"/>
<path opacity="0.52" d="M129.409 177.806C129.409 177.806 131.88 179.482 130.873 182.77C129.865 186.058 125.662 184.984 124.574 184.251C123.487 183.517 122.068 180.171 124.347 178.244C126.626 176.317 129.411 177.806 129.411 177.806H129.409Z" fill="#D4D4D4"/>
<path opacity="0.52" d="M121.808 166.175C121.808 166.175 123.905 168.521 122.982 169.575C122.058 170.629 120.487 171.33 118.939 174.121C117.393 176.912 118.926 178.763 117.797 178.878C116.67 178.991 114.008 177.264 114.946 173.286C115.885 169.308 120.02 163.465 121.808 166.175Z" fill="#D4D4D4"/>
<path opacity="0.41" d="M115.962 163.393C115.962 163.393 115.639 164.029 116.209 165.137C116.78 166.243 118.026 166.263 118.112 166.204C118.198 166.145 118.788 165.983 118.351 166.427C117.913 166.87 117.456 167.334 117.29 167.305C117.126 167.277 117.225 166.879 116.738 166.454C116.251 166.029 115.624 165.439 115.27 165.214C114.915 164.99 114.633 165.472 114.633 165.472L115.961 163.395L115.962 163.393Z" fill="#D4D4D4"/>
<path opacity="0.41" d="M114.171 166.335C114.171 166.335 114.041 166.995 114.535 167.548C115.029 168.101 116.272 168.607 116.272 168.607C116.272 168.607 116.543 168.641 116.428 168.848C116.314 169.054 116.247 169.558 115.946 169.352C115.644 169.146 114.169 167.462 113.846 167.62C113.524 167.779 113.44 167.998 113.44 167.998L114.171 166.335Z" fill="#D4D4D4"/>
<path opacity="0.41" d="M113.082 169.083C113.082 169.083 113.249 169.642 113.768 170.091C114.287 170.539 114.897 170.823 115.041 170.873C115.183 170.922 115.548 170.708 115.387 171.017C115.226 171.325 115.284 171.858 115.011 171.506C114.738 171.153 114.315 170.858 113.912 170.585C113.509 170.312 113.015 170.27 112.908 170.293C112.8 170.317 112.709 170.462 112.709 170.462L113.082 169.083Z" fill="#D4D4D4"/>
<path opacity="0.41" d="M112.623 172.27C112.623 172.27 112.936 172.737 113.562 173.106C114.189 173.475 114.698 173.067 114.714 173.275C114.731 173.482 114.799 174.224 114.514 174.084C114.229 173.942 112.706 173.141 112.706 173.141L112.623 172.27Z" fill="#D4D4D4"/>
<path opacity="0.41" d="M113.224 175.219C113.224 175.219 113.652 176.028 114.017 176.236C114.381 176.445 114.827 176.253 114.89 176.647C114.955 177.044 115.149 178.418 115.149 178.418C115.149 178.418 113.561 176.286 113.224 175.217V175.219Z" fill="#D4D4D4"/>
<path d="M161.51 129.968C161.5 129.732 161.449 129.509 161.273 129.336C160.907 128.976 160.33 129.132 160.02 129.487C159.715 129.836 159.558 130.341 159.682 130.806C159.803 131.258 160.227 131.578 160.666 131.583C161.46 131.594 161.787 130.619 161.513 129.968H161.51Z" fill="white"/>
<path d="M156.68 133.758C156.511 133.43 156.084 133.418 155.765 133.42C155.411 133.421 155.061 133.516 154.773 133.735C154.62 133.85 154.7 134.069 154.874 134.084C155.185 134.109 155.502 134.101 155.812 134.143C156.099 134.182 156.329 134.303 156.597 134.146C156.728 134.07 156.745 133.885 156.68 133.758Z" fill="white"/>
<path d="M156.743 135.044C156.566 134.666 155.971 134.738 155.646 134.799C155.494 134.826 154.958 134.942 155.096 135.229C155.208 135.465 155.605 135.475 155.822 135.504C156.122 135.543 156.483 135.673 156.712 135.399C156.8 135.293 156.8 135.165 156.743 135.045V135.044Z" fill="white"/>
<path d="M171.058 125.3C171.955 121.926 173.205 118.415 173.409 114.909C173.554 112.4 172.732 108.542 170.001 107.845C167.265 107.146 165.342 110.977 164.732 113.196C164.288 114.817 164.134 116.508 163.915 118.174C163.762 119.336 163.603 120.489 163.486 121.648C163.292 120.499 163.055 119.361 162.824 118.211C162.494 116.564 162.228 114.887 161.674 113.302C160.917 111.132 158.74 107.444 156.057 108.331C153.38 109.218 152.818 113.123 153.133 115.616C153.573 119.1 155.058 122.516 156.178 125.82C152.364 127.823 151.289 133.204 153.137 137.082C155.227 141.472 159.866 143.252 164.246 142.568C164.246 142.571 164.243 142.576 164.243 142.581C168.624 142.915 173.074 140.812 174.849 136.325C176.432 132.327 174.996 127.034 171.057 125.3H171.058ZM173.544 136.133C171.892 139.799 168.171 141.502 164.492 141.244C164.394 141.215 164.291 141.205 164.202 141.21C164.155 141.214 164.091 141.222 164.028 141.241C164.028 141.239 164.028 141.237 164.026 141.236C160.307 141.841 156.362 140.414 154.428 136.801C152.427 133.062 153.773 128.737 157.239 126.713C157.537 126.54 157.57 126.184 157.449 125.906C157.448 125.843 157.439 125.779 157.416 125.712C156.498 122.951 155.44 120.197 154.71 117.375C154.363 116.036 154.141 114.628 154.312 113.242C154.464 111.994 155 110.196 156.211 109.672C157.569 109.085 158.931 110.64 159.635 111.719C160.378 112.857 160.832 114.137 161.21 115.451C161.971 118.1 162.476 120.823 163.348 123.433C163.345 123.484 163.341 123.535 163.34 123.585C163.333 123.725 163.454 123.781 163.557 123.754C163.661 123.772 163.777 123.708 163.762 123.57C163.757 123.519 163.749 123.469 163.744 123.42C164.439 120.754 164.758 118.002 165.34 115.306C165.629 113.968 165.997 112.661 166.661 111.473C167.291 110.348 168.544 108.702 169.94 109.193C171.184 109.631 171.839 111.388 172.076 112.623C172.34 113.995 172.212 115.415 171.957 116.774C171.418 119.641 170.548 122.462 169.819 125.28C169.8 125.351 169.797 125.415 169.799 125.476C169.696 125.762 169.754 126.115 170.064 126.268C173.657 128.045 175.291 132.266 173.548 136.136L173.544 136.133Z" fill="white"/>
<path d="M166.021 129.811C166.016 129.575 166.051 129.349 166.215 129.163C166.557 128.779 167.142 128.895 167.477 129.227C167.805 129.553 167.995 130.045 167.904 130.519C167.815 130.979 167.414 131.327 166.974 131.362C166.184 131.428 165.793 130.477 166.021 129.809V129.811Z" fill="white"/>
<path d="M168.138 134.784C168.121 134.715 168.019 134.72 168.007 134.789C167.81 135.843 166.847 136.653 165.796 136.499C165.178 136.41 164.871 135.718 164.541 135.153C164.674 135.106 164.798 135.042 164.899 134.965C165.097 134.816 165.183 134.577 165.12 134.329C165.057 134.079 164.825 133.953 164.599 133.939C164.522 133.934 164.449 133.954 164.372 133.971C164.357 133.975 164.331 133.98 164.334 133.98C164.23 134 164.144 134.015 164.047 134.061C163.999 134.066 163.951 134.071 163.905 134.079C163.857 134.074 163.809 134.071 163.761 134.071C163.663 134.03 163.575 134.024 163.469 134.01C163.472 134.01 163.446 134.007 163.431 134.003C163.355 133.992 163.28 133.976 163.202 133.986C162.978 134.017 162.755 134.158 162.708 134.411C162.662 134.664 162.765 134.895 162.972 135.03C163.078 135.099 163.207 135.155 163.341 135.194C163.05 135.781 162.791 136.491 162.181 136.624C161.144 136.85 160.128 136.11 159.861 135.071C159.844 135.003 159.742 135.005 159.73 135.076C159.501 136.457 160.905 137.502 162.088 137.622C162.76 137.69 163.519 137.131 163.983 136.418C164.495 137.096 165.289 137.602 165.955 137.487C167.127 137.285 168.458 136.145 168.136 134.782L168.138 134.784Z" fill="white"/>
<path d="M171.095 133.256C171.242 132.916 171.667 132.875 171.985 132.855C172.339 132.833 172.694 132.902 172.997 133.099C173.157 133.204 173.092 133.427 172.92 133.454C172.61 133.501 172.295 133.513 171.986 133.578C171.703 133.637 171.481 133.774 171.202 133.637C171.067 133.57 171.037 133.388 171.095 133.256Z" fill="white"/>
<path d="M171.118 134.541C171.269 134.151 171.867 134.183 172.195 134.221C172.349 134.237 172.89 134.315 172.774 134.61C172.678 134.855 172.283 134.892 172.068 134.934C171.771 134.993 171.42 135.15 171.173 134.892C171.077 134.792 171.07 134.664 171.118 134.539V134.541Z" fill="white"/>
<path d="M189.953 28.6718C189.953 28.6718 178.447 18.893 155.508 24.2402C132.568 29.5875 125.967 55.8987 125.967 55.8987L123.712 54.9847C123.712 54.9847 118.538 48.9765 118.291 47.8568C118.042 46.7371 124.294 17.6165 155.682 12.7465C187.069 7.87644 190.303 19.6721 189.797 20.2774C189.29 20.8845 191.957 29.1322 189.954 28.6718H189.953Z" fill="#EAB308"/>
</g>
<defs>
<clipPath id="clip0_2894_5505">
<rect width="279" height="205" fill="white"/>
</clipPath>
</defs>
</svg>
