<svg width="97" height="96" viewBox="0 0 97 96" fill="none" xmlns="http://www.w3.org/2000/svg">
<mask id="mask0_2443_2540" style="mask-type:luminance" maskUnits="userSpaceOnUse" x="0" y="0" width="97" height="96">
<path d="M0.5 0.000282288H96.4997V96H0.5V0.000282288Z" fill="white"/>
</mask>
<g mask="url(#mask0_2443_2540)">
<path fill-rule="evenodd" clip-rule="evenodd" d="M78.1926 64.0219C72.4579 59.6051 71.7512 40.6096 71.7139 32.8338C70.6935 33.8541 69.0724 34.3379 67.2177 34.354C65.352 37.9574 57.4861 45.1697 55.0467 52.4406V57.0593C55.0467 57.8831 55.4931 58.2233 56.2426 58.4147C58.7723 59.0631 61.7646 59.7913 64.7888 60.7427C67.0528 61.4548 69.3381 62.2894 71.464 63.315C73.1755 64.1336 75.6257 64.5587 78.1926 64.0219Z" fill="#CE8B6B"/>
<path fill-rule="evenodd" clip-rule="evenodd" d="M41.951 50.3627C36.1366 46.5731 31.3638 38.2977 31.3638 32.7704C29.5091 32.7542 26.3096 33.8545 25.289 32.8341C25.2465 40.6152 24.5396 59.6321 18.7944 64.0329C32.0602 65.6859 41.951 57.4794 41.951 54.9816V50.3627Z" fill="#CE8B6B"/>
<path fill-rule="evenodd" clip-rule="evenodd" d="M26.3945 94.5938C21.8769 84.0702 27.1228 74.1471 23.4555 61.237C21.776 62.0448 20.1922 62.9645 18.7944 64.0328C15.8977 66.2438 13.7985 69.0766 13.2829 72.7919L10.5193 92.6218C10.3067 94.1792 10.8221 94.5938 12.4537 94.5938H26.3945Z" fill="#7AA7CC"/>
<path fill-rule="evenodd" clip-rule="evenodd" d="M83.7146 72.7919C83.1992 69.0768 81.0999 66.2438 78.2031 64.0328C78.2031 64.0276 78.1978 64.0276 78.1926 64.0222C76.8002 62.9592 75.2216 62.0395 73.5422 61.237C70.1884 74.6787 75.6733 84.5485 70.603 94.5938H84.5439C86.1808 94.5938 86.6962 94.1792 86.4784 92.622L83.7146 72.7919Z" fill="#7AA7CC"/>
<path fill-rule="evenodd" clip-rule="evenodd" d="M48.4988 65.6855C53.245 65.6855 57.1248 61.8002 57.1248 57.0593V50.3623C55.8758 51.1757 54.5524 51.856 53.1865 52.3611C51.491 52.9881 49.9977 53.3068 48.4988 53.3068C47.0054 53.3068 45.5067 52.9881 43.8112 52.3611C42.4452 51.856 41.1273 51.1757 39.8729 50.3623V57.0593C39.8729 61.8002 43.7581 65.6855 48.4988 65.6855Z" fill="#FFDFCF"/>
<path fill-rule="evenodd" clip-rule="evenodd" d="M71.7087 24.7392C71.7087 11.9406 61.2383 1.46486 48.4987 1.40655C35.7592 1.46486 25.2891 11.9406 25.2891 24.7392V25.7224H71.7087V24.7392Z" fill="#E29D7B"/>
<path fill-rule="evenodd" clip-rule="evenodd" d="M71.3511 24.7392C71.3511 11.9406 60.881 1.46486 48.1413 1.40655C35.4019 1.46486 24.9315 11.9406 24.9315 24.7392V25.7224H71.3511V24.7392Z" fill="#E29D7B"/>
<path fill-rule="evenodd" clip-rule="evenodd" d="M43.8112 52.3612C42.998 52.0634 42.2009 51.6967 41.4249 51.2821C40.8952 50.997 40.3774 50.6902 39.8729 50.3626V54.4233C42.4507 56.1614 48.2225 57.2933 51.4115 56.6555C52.3628 56.3046 53.1173 56.0868 53.7659 55.4331C54.7173 54.4658 54.5524 55.0557 54.5524 57.4315V58.8985C54.5524 59.7966 54.4143 60.6629 54.1538 61.4817C54.6323 61.0661 55.0637 60.5991 55.4401 60.0891C56.5353 58.6115 57.1259 56.8207 57.1247 54.9815V50.3626C55.8758 51.176 54.5524 51.8562 53.1865 52.3612C51.491 52.9883 49.9977 53.3071 48.4988 53.3071C47.0054 53.3071 45.5065 52.9883 43.8112 52.3612Z" fill="#FFCEBF"/>
<path fill-rule="evenodd" clip-rule="evenodd" d="M29.78 34.354L31.2682 29.7351L29.78 25.1165H27.0322C26.3784 25.1165 25.7726 25.345 25.289 25.7225C24.5981 26.2593 24.1462 27.1043 24.1462 28.0398V29.8576C24.1462 31.133 24.5715 32.1162 25.289 32.8339C26.3094 33.8543 27.9251 34.3379 29.78 34.354Z" fill="#FFCEBF"/>
<path fill-rule="evenodd" clip-rule="evenodd" d="M72.8513 28.0398C72.8513 27.1043 72.4048 26.2593 71.7086 25.7225C71.2249 25.345 70.6191 25.1165 69.9653 25.1165H67.2177L62.902 28.8423L67.2177 34.354C69.0726 34.3379 70.6935 33.8543 71.7141 32.8338C72.4314 32.1162 72.8513 31.133 72.8513 29.8574V28.0398Z" fill="#FFCEBF"/>
<path fill-rule="evenodd" clip-rule="evenodd" d="M57.1248 50.3626C62.9393 46.5731 67.2177 39.8816 67.2177 34.3541V25.1166C61.2012 25.1166 47.1436 25.4089 41.1537 19.1534L38.5601 16.4427C38.2784 16.161 38.1774 16.161 37.8958 16.4427C35.5518 20.296 35.0842 25.1166 29.78 25.1166V34.3541C29.78 39.8816 34.0584 46.5731 39.8729 50.3626C41.1271 51.176 42.4452 51.8563 43.8112 52.3612C45.5065 52.9884 47.0054 53.3071 48.4988 53.3071C49.9975 53.3071 51.491 52.9884 53.1865 52.3612C54.5523 51.8563 55.8758 51.176 57.1248 50.3626Z" fill="#FFEEE6"/>
<path fill-rule="evenodd" clip-rule="evenodd" d="M57.1248 50.3626C62.9393 46.5731 67.2177 39.8816 67.2177 34.3541V25.1166C65.7295 25.1166 63.7525 25.1325 61.5256 25.069V32.4195C61.5256 37.947 57.247 44.6387 51.4326 48.4282C50.1783 49.2414 48.8602 49.9215 47.4944 50.4266C45.7989 51.0538 44.3002 51.3727 42.8067 51.3727C42.3496 51.3727 41.8871 51.3406 41.4249 51.2821C42.2007 51.6967 42.998 52.0634 43.8112 52.3612C45.5065 52.9884 47.0054 53.3071 48.4988 53.3071C49.9975 53.3071 51.491 52.9884 53.1865 52.3612C54.5523 51.8563 55.8758 51.176 57.1248 50.3626Z" fill="#FFDFCF"/>
<path fill-rule="evenodd" clip-rule="evenodd" d="M48.4989 63.6077C43.7581 63.6077 39.873 59.728 39.873 54.9816C39.873 55.8055 39.4265 56.1456 38.6771 56.337C36.1473 56.9854 33.1603 57.7135 30.1361 58.6649L28.0581 71.6068C27.9784 72.1063 28.4726 72.5261 28.983 72.5261H68.0147C68.5251 72.5261 69.0194 72.1063 68.9397 71.6068L66.8616 58.6649C63.8375 57.7135 60.8504 56.9854 58.3207 56.337C57.5712 56.1456 57.1248 55.8055 57.1248 54.9816C57.1248 59.728 53.245 63.6077 48.4989 63.6077Z" fill="#7AA7CC"/>
<path fill-rule="evenodd" clip-rule="evenodd" d="M65.9419 70.4532H31.0608C30.8156 70.453 30.5805 70.3555 30.4071 70.1821C30.2337 70.0086 30.1362 69.7735 30.1361 69.5283V58.6645C27.8718 59.3769 25.5866 60.2165 23.4553 61.237C23.4819 74.4872 18.4967 84.3889 26.3943 94.5938H70.603C78.5008 84.3889 73.5156 74.4872 73.5422 61.237C71.4161 60.2165 69.1309 59.3769 66.8614 58.6645V69.5283C66.8614 70.0386 66.4468 70.4532 65.9419 70.4532Z" fill="#F9F7F8"/>
<path fill-rule="evenodd" clip-rule="evenodd" d="M54.1753 83.193C55.7377 81.5773 55.7377 78.9306 54.1753 77.3147C52.7615 75.8425 50.4706 76.2145 48.9508 77.5751C48.6744 77.8301 48.5733 77.9526 48.4989 77.9526C48.4246 77.9526 48.3236 77.8301 48.0472 77.5751C46.5324 76.2145 44.2417 75.8425 42.8227 77.3147C41.2601 78.9306 41.2601 81.5773 42.8227 83.193L43.4552 83.8204L48.1003 88.4284C48.297 88.5825 48.398 88.6729 48.4989 88.6729C48.6 88.6729 48.701 88.5825 48.8977 88.4284L53.5426 83.8204L54.1753 83.193Z" fill="#F37C7C"/>
<path fill-rule="evenodd" clip-rule="evenodd" d="M66.6329 58.5956C63.8532 57.7294 61.0469 57.0382 58.4161 56.3634H58.4054C58.379 56.3527 58.3471 56.3475 58.3205 56.3368C57.5711 56.1456 57.1246 55.8053 57.1246 54.9816C57.1246 56.8894 56.4974 58.6541 55.4399 60.0892C55.7746 60.1742 56.1202 60.2591 56.4656 60.3495C58.3098 60.8225 60.287 61.3541 62.2799 61.9813C63.8161 62.465 65.3626 63.0017 66.8615 63.6182V58.6646L66.6541 58.6009C66.6488 58.5956 66.6382 58.5956 66.6329 58.5956Z" fill="#5E8FB7"/>
<path fill-rule="evenodd" clip-rule="evenodd" d="M83.7147 72.7919C83.1992 69.0768 81.1 66.2438 78.2031 64.0328L78.1979 64.0276L78.1926 64.0222C76.795 62.9592 75.2164 62.0395 73.5423 61.237C73.537 63.4214 73.6698 65.5103 73.8558 67.5301C76.6302 69.7145 78.6286 72.4941 79.1333 76.1084L81.7058 94.5938H84.544C86.1809 94.5938 86.6963 94.1792 86.4784 92.622L83.7147 72.7919Z" fill="#5E8FB7"/>
<path fill-rule="evenodd" clip-rule="evenodd" d="M71.7087 24.7392C71.7087 11.9406 61.2383 1.46486 48.4987 1.40655C46.5413 1.41609 44.593 1.67326 42.7003 2.17192C53.3673 4.28729 61.5254 13.7689 61.5254 25.0688C63.7523 25.1325 65.7293 25.1166 67.2177 25.1166H69.9653C70.6189 25.1166 71.2249 25.345 71.7087 25.7224V24.7392Z" fill="#CE8B6B"/>
<path fill-rule="evenodd" clip-rule="evenodd" d="M73.8557 67.53C73.6697 65.5105 73.537 63.4215 73.5422 61.237C73.4678 61.1999 73.3934 61.1627 73.3189 61.1309C71.2514 60.1583 69.0513 59.3504 66.8615 58.6647V63.6182C67.1485 63.7405 67.4356 63.8575 67.7172 63.9795C68.137 64.1657 68.5516 64.357 68.9609 64.5484C70.2469 65.1702 71.4747 65.8506 72.6068 66.6212C72.9501 66.8482 73.2852 67.0875 73.6112 67.3386L73.6219 67.344C73.7016 67.408 73.7815 67.4663 73.8557 67.53Z" fill="#F0F0F0"/>
</g>
</svg>
