<svg width="303" height="205" viewBox="0 0 303 205" fill="none" xmlns="http://www.w3.org/2000/svg">
<g clip-path="url(#clip0_2892_3199)">
<path d="M149.582 201.108C231.488 201.108 297.886 181.357 297.886 156.994C297.886 132.63 231.488 112.88 149.582 112.88C67.6764 112.88 1.2785 132.63 1.2785 156.994C1.2785 181.357 67.6764 201.108 149.582 201.108Z" fill="#E0E7FF"/>
<path d="M265.236 147.717C265.236 147.717 269.454 146.164 272.809 148.03C276.162 149.896 277.717 155.012 278.503 155.862C279.289 156.712 287.025 162.957 288.601 166.858C290.178 170.759 286.161 173.051 277.544 169.179C268.926 165.309 258.352 159.144 258.352 159.144L265.236 147.717Z" fill="white"/>
<path d="M211.086 113.803C211.086 113.803 234.107 130.35 237.304 130.35C240.502 130.35 271.171 144.105 272.948 145.541C274.724 146.976 262.287 160.987 259.089 160.797C255.891 160.608 232.495 151.672 217.036 148.484C201.577 145.297 197.234 146.13 197.424 142.786C197.614 139.442 211.086 113.805 211.086 113.805V113.803Z" fill="#473ED8"/>
<path d="M214.994 154.983C214.994 154.983 218.786 152.553 222.458 153.647C226.129 154.744 228.736 159.405 229.684 160.063C230.632 160.722 239.517 165.146 241.884 168.615C244.254 172.082 240.819 175.192 231.577 173.278C222.338 171.365 214.047 170.05 214.047 170.05L214.994 154.983Z" fill="white"/>
<path d="M78.0387 48.1553C78.0387 48.1553 60.8224 50.616 41.3491 70.3156C21.8758 90.0153 12.6389 112.893 10.1214 113.571C7.60398 114.248 1.89573 113.061 0.551367 117.13C-0.790648 121.197 0.215863 122.499 4.74868 122.653C9.2815 122.805 11.1279 123.122 11.9679 126.059C12.8078 128.996 24.3534 152.721 51.6559 163.568C78.956 174.415 102.462 165.771 104.56 167.635C106.657 169.499 108.722 168.651 110.461 167.464C112.199 166.278 112.894 162.379 112.894 162.379L154.505 92.2984C154.505 92.2984 148.607 70.8888 127.883 57.657C107.159 44.4252 78.0387 48.1553 78.0387 48.1553Z" fill="#6366F1"/>
<path d="M63.0606 65.8984C63.0606 65.8984 58.9783 70.3698 52.9369 73.3942C46.8954 76.4185 50.6658 85.5792 50.6963 92.5634C50.7268 99.5499 42.3603 112.895 52.9369 114.108C63.5134 115.318 66.0684 117.722 73.3111 119.029C80.5537 120.337 86.0391 114.622 90.5719 119.029C95.1047 123.437 98.5255 126.501 107.298 128.029C116.073 129.554 122.438 120.578 123.111 126.059C123.782 131.536 114.96 134.234 108.696 133.22C102.434 132.207 102.788 132.057 97.6902 130.352C92.592 128.645 96.9934 131.949 94.2812 136.41C91.5691 140.872 95.1587 137.886 94.964 140.936C94.7692 143.987 89.4411 142.575 95.947 146.135C102.453 149.694 101.402 149.386 104.759 149.339C108.117 149.292 108.487 149.673 111.232 151.876C113.977 154.078 114.308 159.999 114.308 159.999L120.974 149.886L134.652 128.995L136.571 106.375C136.571 106.375 124.118 93.2312 123.109 92.3005C122.102 91.3721 86.9776 71.7221 86.9776 71.7221L63.0606 65.9008V65.8984Z" fill="#4C4EBD"/>
<path d="M13.7299 121.537C13.7299 121.537 14.6543 126.452 18.1782 130.179C21.7045 133.907 27.7483 133.992 27.7483 133.992C27.7483 133.992 28.4193 127.382 23.131 123.655C17.8427 119.927 13.7299 121.537 13.7299 121.537Z" fill="#4C4EBD"/>
<path d="M128.852 119.03C128.852 119.03 132.958 138.481 131.393 142.784C129.826 147.09 121.983 149.335 121.983 149.335L114.311 159.995C114.311 159.995 140.726 161.157 149.018 153.645C157.309 146.13 147.833 124.607 147.833 124.607L128.855 119.027L128.852 119.03Z" fill="white"/>
<path d="M29.17 136.027C29.17 136.027 30.0944 140.941 33.6184 144.669C37.1447 148.397 43.1885 148.482 43.1885 148.482C43.1885 148.482 43.8595 141.872 38.5712 138.144C33.2829 134.417 29.17 136.027 29.17 136.027Z" fill="#4C4EBD"/>
<path d="M44.8589 150.334C44.8589 150.334 46.7124 154.974 50.891 157.936C55.0695 160.899 61.0124 159.795 61.0124 159.795C61.0124 159.795 60.3954 153.181 54.49 150.564C48.5847 147.947 44.8589 150.334 44.8589 150.334Z" fill="#4C4EBD"/>
<path d="M63.9944 159.867C63.9944 159.867 67.6873 163.204 72.7316 163.999C77.7759 164.797 82.6254 161.155 82.6254 161.155C82.6254 161.155 79.1789 155.495 72.7339 155.779C66.289 156.063 63.9921 159.867 63.9921 159.867H63.9944Z" fill="#4C4EBD"/>
<path d="M85.5699 161.5C85.5699 161.5 89.5138 164.53 94.605 164.92C99.6962 165.311 104.245 161.292 104.245 161.292C104.245 161.292 100.365 155.925 93.9622 156.726C87.5594 157.526 85.5699 161.5 85.5699 161.5Z" fill="#4C4EBD"/>
<path d="M135.116 90.4082C136.116 89.5248 141.592 83.784 154.386 84.9847C167.179 86.1855 197.426 100.834 197.426 100.834L171.602 142.784C171.602 142.784 159.299 142.743 149.015 136.567C138.732 130.39 126.781 120.526 125.816 116.429C124.85 112.332 135.116 90.4058 135.116 90.4058V90.4082Z" fill="#4338CA"/>
<path d="M71.5702 44.4845C71.5702 44.4845 57.9717 31.9442 66.0684 13.7105C74.1627 -4.52317 95.0109 -1.59593 100.51 5.49246C106.01 12.5785 112.581 16.9741 115.857 11.5127C119.132 6.05138 113.316 5.39062 113.316 5.39062C113.316 5.39062 121.659 4.82222 118.341 13.3695C115.024 21.9144 106.294 16.0646 106.294 16.0646C106.294 16.0646 112.617 21.2181 117.386 18.5324C122.156 15.8468 132.498 9.49492 139.947 21.7486C147.399 34.0047 134.328 40.0534 134.328 40.0534C134.328 40.0534 139.124 33.3013 133.904 29.2088C128.683 25.1164 127.132 35.1959 120.598 38.1398C114.064 41.0836 109.374 37.434 109.374 37.434C109.374 37.434 114.674 42.0333 119.477 40.3328C124.279 38.6324 126.297 35.1722 128.826 32.1503C131.356 29.1307 133.981 32.6453 133.981 32.6453C133.981 32.6453 130.396 31.1958 129.192 34.1847C127.989 37.1735 124.634 46.6515 115.036 45.2305C105.437 43.8095 99.1261 40.0368 99.1261 40.0368L71.5702 44.4797V44.4845Z" fill="#1F2937"/>
<path d="M83.6648 5.16568C83.6648 5.16568 89.2581 2.09397 95.6327 7.25691C102.007 12.4222 107.333 18.3288 113.187 17.0262C119.038 15.7213 118.909 8.36291 118.909 8.36291C118.909 8.36291 121.15 12.7893 116.769 17.0594C112.389 21.3271 106.711 18.2317 102.737 15.0889C98.7648 11.9462 95.5153 7.06744 91.4213 5.67013C87.3248 4.27282 83.6648 5.16568 83.6648 5.16568Z" fill="#030712"/>
<path d="M101.716 20.4197C101.716 20.4197 109.998 26.0894 117.874 24.0148C125.751 21.9401 130.757 16.3746 137.113 20.1497C143.469 23.9248 142.906 30.4566 140.825 34.0067C138.744 37.5568 136.909 38.4497 136.909 38.4497C136.909 38.4497 140.149 33.777 137.054 28.7301C133.96 23.6856 129.397 25.1942 127.937 26.7028C126.478 28.2114 123.768 30.0919 121.586 30.665C119.404 31.2381 118.043 30.8142 118.043 30.8142C118.043 30.8142 123.02 30.0066 125.007 27.9249C126.994 25.8431 130.194 22.6459 134.422 24.5216C138.652 26.3997 139.607 31.2547 139.607 31.2547C139.607 31.2547 139.485 24.7939 134.577 23.2545C129.669 21.7151 125.499 24.7371 125.499 24.7371C125.499 24.7371 128.941 20.9833 134.34 22.3072C139.738 23.6311 140.184 28.6164 140.184 28.6164C140.184 28.6164 139.032 19.6642 132.425 20.5475C125.819 21.4309 124.803 24.7868 117.07 25.1042C109.337 25.4192 104.095 21.8928 101.714 20.4268L101.716 20.4197Z" fill="#030712"/>
<path d="M103.987 33.2019C103.987 33.2019 111.462 41.0955 117.921 40.3329C124.38 39.5703 125.962 33.7134 129.214 31.383C132.465 29.0526 133.983 32.6477 133.983 32.6477C133.983 32.6477 131.562 29.8696 129.587 32.0769C127.611 34.2842 127.986 38.4832 123.228 41.9836C118.47 45.484 113.973 43.5467 113.973 43.5467C113.973 43.5467 119.08 44.5627 122.759 41.5502C126.438 38.5401 127.379 34.4334 127.379 34.4334C127.379 34.4334 123.824 42.3981 116.234 41.3205C108.645 40.2429 103.99 33.2019 103.99 33.2019H103.987Z" fill="#030712"/>
<path d="M72.8348 6.54395C72.8348 6.54395 65.7095 11.1882 64.4684 23.8019C63.2272 36.4132 74.0548 44.4702 74.0548 44.4702L77.7571 41.4104C77.7571 41.4104 74.1158 28.9412 83.5803 23.8398C93.0448 18.7384 100.487 26.3786 103.213 30.1608C105.942 33.943 110.632 35.9656 114.071 36.7306C117.511 37.4955 122.297 33.3107 122.297 33.3107C122.297 33.3107 116.95 37.9076 110.763 34.8335C104.579 31.7595 102.842 20.9765 91.6301 19.9486C80.4177 18.9208 75.967 24.3442 74.937 29.0619C73.907 33.7796 75.9811 40.3493 75.9811 40.3493C75.9811 40.3493 71.5632 35.0917 74.2425 24.2045C76.9219 13.3173 90.5485 13.6607 90.5485 13.6607C90.5485 13.6607 77.9401 9.75539 73.8249 21.1186C69.7097 32.4794 74.3669 41.0906 74.3669 41.0906C74.3669 41.0906 68.3818 35.544 66.5729 26.3478C64.764 17.1493 70.43 8.3936 72.8325 6.54631L72.8348 6.54395Z" fill="#030712"/>
<path d="M124.732 119.6C124.732 119.6 127.393 119.783 126.799 122.603C126.206 125.422 122.705 127.077 122.705 127.077C122.705 127.077 126.454 125.706 127.412 123.691C128.369 121.675 127.283 119.901 127.283 119.901C127.283 119.901 130.18 120.87 130.443 123.366C130.706 125.862 128.289 126.187 128.289 126.187C128.289 126.187 130.802 126.594 131.346 123.759C131.89 120.922 127.231 115.655 127.231 115.655L124.732 119.603V119.6Z" fill="#1F2937"/>
<path d="M131.611 71.3954C131.611 71.3954 132.501 72.2836 133.174 75.0403C133.847 77.797 134.171 80.0043 135.764 81.6432C137.357 83.282 141.456 82.536 142.042 79.0143C142.629 75.495 140.248 73.9106 140.248 73.9106C140.248 73.9106 144.626 75.8005 142.235 80.4779C139.844 85.153 134.809 82.2613 134.809 82.2613C134.809 82.2613 138.026 85.6504 141.906 84.7291C145.787 83.8078 146.352 80.1251 146.352 80.1251C146.352 80.1251 146.817 84.3928 143.399 86.079C139.98 87.7653 133.423 86.259 133.423 86.259L127.36 73.444L131.616 71.3931L131.611 71.3954Z" fill="#1F2937"/>
<path d="M94.537 117.93C94.537 117.93 97.8638 119.309 99.8323 120.858C101.798 122.407 105.081 127.74 113.156 126.561C121.232 125.381 130.208 117.812 134.619 105.004C139.032 92.1987 134.6 83.2796 132.503 79.6513C130.403 76.0231 128.939 74.2492 128.939 74.2492C128.939 74.2492 131.977 73.5742 132.597 70.9856C133.216 68.3971 132.841 62.8291 127.595 59.189C122.351 55.5489 120.009 58.9451 118.989 59.8285C117.968 60.7119 117.776 61.5147 117.776 61.5147C117.776 61.5147 109.89 45.7417 91.7849 46.2391C73.6818 46.7364 59.1519 67.8737 62.0166 88.9707C64.8812 110.068 79.0991 114.29 83.2354 115.046C87.3717 115.801 92.4653 116.964 94.537 117.928V117.93Z" fill="white"/>
<path opacity="0.63" d="M127.55 62.8032C127.55 62.8032 126.206 60.8115 123.827 61.9317C121.45 63.0519 123.611 68.2385 125.417 69.5529C127.224 70.8673 129.772 70.2611 128.517 67.393C127.261 64.525 126.107 64.0892 125.173 63.9258C124.24 63.76 123.916 63.9163 123.916 63.9163C123.916 63.9163 123.885 62.7132 125.232 62.4456C126.579 62.178 127.552 62.8032 127.552 62.8032H127.55Z" fill="#D1D5DB"/>
<path opacity="0.63" d="M107.103 76.5869C107.103 76.5869 102.803 76.0824 101.259 77.4513C99.715 78.8202 98.99 80.9351 98.6592 81.1388C98.3284 81.3425 97.2022 80.973 97.2492 80.0872C97.2984 79.2015 99.6587 76.2127 102.157 75.6419C104.656 75.0711 108.164 76.6627 107.101 76.5869H107.103Z" fill="#1F2937"/>
<path opacity="0.63" d="M87.9888 112.675C87.9888 112.675 85.7271 111.273 85.7482 108.848C85.7669 106.42 86.9471 105.764 87.0503 105.13C87.1559 104.495 86.0884 103.808 85.7106 104.118C85.3329 104.429 83.7046 107.619 84.8754 110.148C86.0485 112.678 88.4134 112.995 87.9888 112.678V112.675Z" fill="#1F2937"/>
<path opacity="0.23" d="M115.167 89.4801C115.167 89.4801 117.344 84.3172 119.418 84.2911C121.492 84.2674 120.458 87.9147 119.303 90.2048C118.149 92.495 116.79 94.6028 115.068 94.1197C113.346 93.6365 114.714 90.4511 115.169 89.4801H115.167Z" fill="#ED3737"/>
<path opacity="0.23" d="M100.553 116.524C100.553 116.524 102.479 112.334 104.527 112.405C106.575 112.476 105.712 115.46 104.672 117.31C103.631 119.16 102.383 120.851 100.656 120.372C98.9313 119.894 100.147 117.31 100.553 116.524Z" fill="#ED3737"/>
<path d="M104.241 105.594C104.241 105.594 103.964 106.835 104.445 107.543C104.926 108.251 105.505 108.538 105.505 108.538C105.505 108.538 106.441 109.594 106.89 106.927C107.338 104.261 104.241 105.594 104.241 105.594Z" fill="#FBD1D1"/>
<path opacity="0.63" d="M109.229 102.269C109.229 102.269 108.168 100.767 106.488 103.685C104.888 106.466 105.203 107.396 105.756 107.626C106.31 107.856 106.254 108.448 106.08 108.519C105.742 108.656 105.7 108.843 104.611 107.752C103.523 106.66 104.593 103.2 106.287 101.793C107.981 100.386 109.151 100.737 109.412 101.509C109.672 102.281 109.231 102.267 109.231 102.267L109.229 102.269Z" fill="#D1D5DB"/>
<path d="M68.4615 102.726C68.4615 102.726 75.9177 106.989 84.8684 101.381C93.819 95.7726 96.5125 82.1666 96.5125 82.1666C96.5125 82.1666 92.6014 90.7873 89.1408 93.2622C85.6801 95.7371 81.1872 96.6205 81.1872 96.6205C81.1872 96.6205 90.396 89.4611 92.89 85.3639C95.3839 81.2667 98.0727 75.2156 98.0727 75.2156C98.0727 75.2156 95.459 74.7396 89.7085 77.179C83.958 79.6183 79.1648 84.6486 79.1648 84.6486C79.1648 84.6486 81.5861 81.1577 90.945 74.6756C100.306 68.1935 108.302 67.0354 108.302 67.0354C108.302 67.0354 102.502 65.4652 95.7593 67.6583C89.0164 69.8514 87.2099 71.0876 87.2099 71.0876C87.2099 71.0876 92.9533 65.47 102.376 64.975C111.798 64.48 120.833 68.7714 120.833 68.7714C120.833 68.7714 120.338 62.9927 112.279 61.0365C104.22 59.0779 97.5377 59.066 97.5377 59.066C97.5377 59.066 106.017 58.7155 111.88 60.2881C117.743 61.8607 119.428 63.8477 119.428 63.8477C119.428 63.8477 119.256 60.6954 119.728 59.7007C120.199 58.7061 122.862 57.5622 122.862 57.5622C122.862 57.5622 108.203 39.634 92.6952 41.3794C77.187 43.1249 70.7279 54.8457 70.7279 54.8457C70.7279 54.8457 54.4666 66.6754 56.3529 92.2367C58.685 123.844 87.0175 115.804 87.0175 115.804L81.7526 111.882C81.7526 111.882 77.8627 112.105 74.1628 109.885C70.4605 107.666 68.8111 104.848 68.8111 104.848C68.8111 104.848 70.9344 107.522 75.8426 109.694C80.7532 111.865 88.4744 107.328 88.4744 107.328C88.4744 107.328 80.9409 109.627 76.2931 108.154C71.6453 106.681 68.4615 102.724 68.4615 102.724V102.726Z" fill="#1F2937"/>
<path d="M64.1774 100.41C64.1774 100.41 71.4436 107.332 79.8687 104.268C88.2938 101.203 91.7685 94.0625 91.7685 94.0625C91.7685 94.0625 83.3481 103.027 77.133 103.666C70.918 104.305 65.2919 100.514 65.2919 100.514C65.2919 100.514 69.9913 102.463 75.0121 101.764C80.0353 101.066 82.3298 99.0715 82.3298 99.0715C82.3298 99.0715 77.7501 102.018 71.5538 101.087C65.3576 100.154 63.5416 99.0573 63.5416 99.0573L64.1751 100.41H64.1774Z" fill="#030712"/>
<path d="M98.0703 75.2159C98.0703 75.2159 90.1285 74.0246 78.6181 84.1066C67.1078 94.1861 65.9816 96.4716 65.9816 96.4716C65.9816 96.4716 71.8353 91.8154 77.6984 88.1493C83.5616 84.4855 93.0471 79.827 93.0471 79.827C93.0471 79.827 86.2057 81.9703 80.8494 84.9971C75.493 88.0238 73.1797 90.2452 73.1797 90.2452C73.1797 90.2452 77.7102 85.2457 84.805 80.8454C91.8999 76.445 98.0727 75.2159 98.0727 75.2159H98.0703Z" fill="#030712"/>
<path d="M87.2098 71.0898C87.2098 71.0898 77.6257 75.8644 71.3989 82.6236C65.1722 89.3827 63.2577 93.8683 63.2577 93.8683C63.2577 93.8683 67.9055 80.2458 82.5738 70.3722C97.2421 60.4963 106.158 62.976 110.906 63.928C115.655 64.8801 120.833 68.776 120.833 68.776C120.833 68.776 103.589 61.0671 87.2098 71.0922V71.0898Z" fill="#030712"/>
<path d="M67.8656 103.458C67.8656 103.458 71.6946 109.35 75.3124 110.499C78.9326 111.647 81.755 111.884 81.755 111.884L80.9292 113.772C80.9292 113.772 77.4521 115.067 70.9767 112.583C64.5036 110.099 61.8406 102.186 61.8406 102.186C61.8406 102.186 65.2215 108.663 69.8364 111.025C74.449 113.386 80.23 112.834 80.23 112.834C80.23 112.834 71.8987 112.417 67.8633 103.46L67.8656 103.458Z" fill="#030712"/>
<path d="M97.5377 59.0682C97.5377 59.0682 90.9872 58.6704 85.8983 60.7427C80.8095 62.8149 77.3066 64.9725 77.3066 64.9725C77.3066 64.9725 86.6515 55.4968 97.2281 52.6572C107.805 49.8176 117.945 57.4554 117.945 57.4554C117.945 57.4554 110.066 53.7845 103.931 53.5145C97.7958 53.2445 90.4101 57.5525 90.4101 57.5525C90.4101 57.5525 97.6691 55.8189 108.41 57.4578C119.151 59.0967 119.402 62.3176 119.402 62.3176L119.43 63.8522C119.43 63.8522 110.803 58.9711 97.5401 59.0706L97.5377 59.0682Z" fill="#030712"/>
<path d="M60.447 97.1509C60.447 97.1509 61.2236 89.4681 66.3172 81.9724C71.4107 74.479 81.2647 68.1272 81.2647 68.1272C81.2647 68.1272 68.5085 74.4269 64.0226 82.1642C59.5367 89.9015 59.5109 95.3865 59.5109 95.3865C59.5109 95.3865 57.3289 91.2467 59.4382 82.0292C61.545 72.8117 66.1271 66.1401 66.1271 66.1401C66.1271 66.1401 61.1086 71.727 58.7155 81.7782C56.3224 91.8269 58.4598 95.3652 58.4598 95.3652C58.4598 95.3652 56.8386 91.9217 56.6345 89.9015C56.4304 87.8813 56.9231 83.3957 56.9231 83.3957C56.9231 83.3957 55.9752 87.2585 56.2943 91.4409C56.6134 95.6234 59.2692 98.148 59.2692 98.148C59.2692 98.148 58.5842 98.9864 59.1472 101.888C59.708 104.789 61.8313 108.592 64.5434 111.058C67.2556 113.523 70.2095 114.667 70.2095 114.667C70.2095 114.667 65.191 111.951 62.4248 107.83C59.661 103.709 60.3602 98.6738 60.3602 98.6738C60.3602 98.6738 61.4887 101.364 63.3915 104.064C65.2966 106.764 66.716 107.752 66.716 107.752C66.716 107.752 63.7364 104.069 62.7439 102.413C61.7515 100.76 60.935 98.0012 60.935 98.0012C60.935 98.0012 62.6853 98.8703 65.6907 99.1024C68.6962 99.3322 75.357 96.0331 75.357 96.0331C75.357 96.0331 68.3748 98.669 65.8432 98.5743C63.3094 98.4796 60.4494 97.1509 60.4494 97.1509H60.447Z" fill="#030712"/>
<path d="M102.765 55.3548C102.765 55.3548 108.415 55.7266 113.703 57.78C118.991 59.8333 119.446 61.1548 119.446 61.1548C119.446 61.1548 119.948 59.3383 120.985 58.552C122.023 57.7658 122.865 57.5644 122.865 57.5644C122.865 57.5644 111.028 43.5274 98.2487 42.4593C85.469 41.3912 77.0369 49.1143 77.0369 49.1143C77.0369 49.1143 84.6479 44.0177 97.085 45.1971C109.522 46.3789 119.104 57.3916 119.104 57.3916C119.104 57.3916 105.904 53.9622 102.765 55.3572V55.3548Z" fill="#030712"/>
<g style="mix-blend-mode:color-dodge" opacity="0.17">
<path d="M72.7246 52.0489C72.7246 52.0489 84.5212 46.8717 82.0577 67.6064C79.5942 88.3434 70.4019 101.767 70.4019 101.767C70.4019 101.767 75.3054 101.611 78.2264 100.73C81.1497 99.8487 83.212 99.5337 82.7709 99.304C82.3298 99.0742 76.4714 97.4922 76.4714 97.4922L78.3085 94.6479L77.743 94.2192L81.5321 92.5756C81.5321 92.5756 78.1161 91.9953 78.5783 91.5477C79.0381 91.1001 86.4943 86.8632 87.2028 86.5672C87.9114 86.2711 80.6992 87.6424 80.6992 87.6424C80.6992 87.6424 87.4304 82.6902 87.8903 82.451C88.3501 82.2118 82.6888 82.9034 83.0665 82.8015C83.4443 82.6997 88.1085 79.898 87.2404 79.9074C86.3723 79.9169 82.3627 80.4616 82.3627 80.4616C82.3627 80.4616 88.031 73.9748 88.7607 73.5296C89.4904 73.0843 84.378 74.1027 84.378 74.1027C84.378 74.1027 91.9562 70.1405 92.5545 69.9605C93.1528 69.7805 85.3142 72.253 85.3142 72.253L93.8707 64.5749L88.3196 65.3044C88.3196 65.3044 94.5393 62.1119 93.8965 61.9674C93.2536 61.8229 89.3379 62.3227 89.3379 62.3227C89.3379 62.3227 94.6191 58.9525 93.08 58.7323C91.5409 58.512 88.9554 58.9952 89.3308 58.6281C89.7062 58.261 102.852 53.503 103.082 53.5007C103.312 53.4983 87.59 56.1295 87.59 56.1295C87.59 56.1295 92.9064 51.9257 92.89 51.921C92.8712 51.9139 86.4826 52.3947 86.4826 52.3947C86.4826 52.3947 96.0784 44.9889 93.9059 45.0221C91.731 45.0529 83.7892 50.1542 83.7892 50.1542C83.7892 50.1542 87.7565 45.4223 86.9518 45.5763C86.1447 45.7302 82.0835 46.8173 82.0835 46.8173C82.0835 46.8173 83.9182 45.3702 83.456 45.1026C82.9938 44.835 73.7874 51.0992 72.7316 52.0513L72.7246 52.0489Z" fill="#FFFA89"/>
</g>
<g style="mix-blend-mode:color-dodge" opacity="0.17">
<path d="M68.4709 11.4107C68.4709 11.4107 73.4636 3.74921 84.0261 12.6967C94.5886 21.6442 87.4468 34.9589 87.4468 34.9589L99.3443 35.8944L94.5511 29.5757C94.5511 29.5757 99.7877 29.0808 98.3073 27.9937C96.8269 26.9066 93.0566 24.221 93.4014 24.3039C93.7463 24.3867 98.3871 25.1541 97.5612 24.6354C96.7354 24.1168 93.6267 22.1605 93.6267 22.1605C93.6267 22.1605 100.395 25.057 102.69 27.0748C104.985 29.095 106.714 29.841 106.714 29.841C106.714 29.841 99.8863 22.3074 96.6251 20.0669C93.3616 17.8265 91.4776 17.0402 91.4776 17.0402L98.8868 17.4665L92.0336 13.3764C92.0336 13.3764 95.1517 12.1354 93.7135 11.927C92.2753 11.7186 87.9114 10.6363 87.9114 10.6363C87.9114 10.6363 92.0805 8.72742 91.1679 8.47164C90.2552 8.21586 85.0326 8.06666 85.0326 8.06666L87.6486 4.91679L80.3754 6.07016C80.3754 6.07016 86.3324 1.23405 86.0133 1.03985C85.6919 0.845648 74.076 1.6343 68.4662 11.4036L68.4709 11.4107Z" fill="#FFFA89"/>
</g>
<path d="M79.749 40.4393C79.749 40.4393 79.2633 39.5086 78.4328 39.8094C77.5999 40.1101 72.4594 42.7224 72.4805 43.755C72.5016 44.7876 74.1487 49.5289 75.4907 49.5195C76.8327 49.51 81.6095 47.2814 81.9896 45.8817C82.3697 44.4821 79.7513 40.4393 79.7513 40.4393H79.749Z" fill="#EAB308"/>
<path d="M73.0788 44.1508C73.0788 44.1508 67.9102 42.8601 62.1198 44.9892C56.3295 47.1207 53.6149 49.1101 54.3258 52.1771C55.0367 55.244 55.5552 56.2364 56.5805 56.5395C57.6058 56.8426 57.6081 56.8355 58.1266 57.3045C58.6451 57.7734 60.63 62.3182 62.5938 64.7457C64.5575 67.1733 67.1735 67.6161 68.5413 66.5338C69.9092 65.4515 74.0713 56.8379 75.4743 52.6697C76.875 48.5014 76.0585 46.3131 76.0585 46.3131L73.0812 44.1461L73.0788 44.1508Z" fill="#EAB308"/>
<path d="M78.4305 39.8119C78.4305 39.8119 81.931 34.1824 86.8955 30.5399C91.86 26.8974 98.0492 27.1887 99.6212 28.6831C101.193 30.1775 99.9919 32.084 100.203 32.6809C100.414 33.2777 101.885 33.5477 101.843 35.0776C101.801 36.6075 101.378 37.7704 101.686 38.1635C101.993 38.559 101.813 40.6431 101.916 40.816C102.019 40.9889 103.192 43.5964 102.484 45.3656C101.775 47.1347 98.061 47.5918 93.1879 47.3715C88.3149 47.1513 80.9902 46.0074 80.9902 46.0074L78.4305 39.8071V39.8119Z" fill="#EAB308"/>
<path d="M72.5087 44.0371C72.5087 44.0371 72.6049 45.8797 73.6373 47.6748C74.6696 49.47 76.2204 49.399 76.2204 49.399L75.9177 51.116C75.9177 51.116 74.9605 50.7466 74.5687 50.4718C74.1745 50.1971 70.8969 55.3885 69.8787 56.8237C68.8581 58.2589 73.0718 50.1616 73.4894 49.1243C73.9071 48.0869 70.3104 52.9373 69.4517 53.4583C68.593 53.9793 72.4196 49.0437 72.8888 48.094C73.3581 47.1443 64.222 53.9983 62.6759 54.8082C61.1298 55.6182 72.2577 47.7909 72.2014 46.7725C72.1451 45.7541 69.3649 48.1461 67.0398 48.6459C64.7147 49.1479 67.7014 47.1017 69.8646 46.0265C72.0278 44.9513 73.6279 44.2905 71.5703 44.4847C69.5127 44.6789 72.5087 44.0371 72.5087 44.0371Z" fill="#CA8A04"/>
<path d="M78.4305 39.8119C78.4305 39.8119 79.1437 39.1748 80.596 41.7776C82.0483 44.378 81.8794 46.1471 81.8794 46.1471L84.7347 46.545C84.7347 46.545 83.2753 45.9885 83.158 45.6545C83.0384 45.3182 88.566 44.674 89.7461 44.1199C90.9262 43.568 83.3645 44.2335 83.0407 44.2028C82.7169 44.172 84.7816 43.1749 86.0016 42.1447C87.2216 41.1145 83.1909 43.1583 82.6489 43.2696C82.1046 43.3809 90.9262 37.8012 91.806 37.1049C92.6859 36.4086 82.4448 41.87 81.9521 42.0073C81.4594 42.1423 82.8155 40.5603 83.7258 39.0114C84.6361 37.4625 82.5034 38.9853 81.8043 39.8924C81.1051 40.7995 79.498 41.0837 80.9949 39.0706C82.4917 37.0575 85.9781 33.0195 84.561 34.0166C83.144 35.0137 80.8048 38.2985 80.2957 38.8622C79.7866 39.4258 79.0076 38.9569 79.0076 38.9569L78.4352 39.819L78.4305 39.8119Z" fill="#CA8A04"/>
<path d="M76.0162 49.3872C76.0162 49.3872 74.9182 53.7165 73.2173 57.4134C71.5139 61.108 69.1677 65.7239 68.3935 66.1288C67.6193 66.5338 66.7394 66.6404 68.0885 63.4408C69.4352 60.2412 75.662 49.3232 75.662 49.3232L76.0186 49.3896L76.0162 49.3872Z" fill="#A16207"/>
<path d="M81.8841 45.8462C81.8841 45.8462 90.3632 46.9853 93.981 46.9308C97.5988 46.8764 100.621 46.398 101.519 45.5264C102.42 44.6549 100.832 44.4394 96.2966 44.3494C91.7615 44.2594 81.8606 45.5075 81.8606 45.5075L81.8817 45.8462H81.8841Z" fill="#A16207"/>
<path d="M113.961 137.055C113.961 137.055 113.342 135.906 113.255 135.641C113.168 135.376 112.746 132.721 112.04 131.186C111.331 129.654 109.571 127.889 108.957 128.039C108.342 128.188 107.849 129.4 108.438 130.284C109.027 131.167 109.531 133.086 109.095 133.678C108.659 134.27 108.013 134.035 106.782 133.154C105.55 132.273 101.034 129.308 100.097 129.194C99.1613 129.081 98.0258 130.383 99.1707 131.442C100.316 132.501 103.922 135.025 104.276 135.586C104.63 136.148 103.753 136.593 103.051 136.359C102.347 136.124 97.2539 134.58 96.6087 134.376C95.9635 134.173 95.0039 135.179 95.2409 136.153C95.4778 137.126 98.5255 138.177 99.5789 138.528C100.632 138.878 102.216 139.698 102.099 139.994C101.981 140.29 95.2268 140.64 94.9663 140.937C94.7036 141.233 94.1851 143.006 96.7588 143.085C99.3326 143.163 101.437 142.86 101.557 143.333C101.676 143.805 97.1201 145.623 96.8574 146.185C96.5969 146.746 96.8363 148.34 98.9994 147.8C101.163 147.26 102.882 146.102 103.41 146.099C103.936 146.099 105.986 146.592 108.675 145.931C111.364 145.271 112.18 144.56 112.823 144.558C113.466 144.555 113.994 144.612 113.994 144.612L114.785 137.287L113.966 137.055H113.961Z" fill="white"/>
<path d="M146.47 98.6051C146.47 98.6051 141.874 98.0249 138.591 106.193C135.309 114.362 145.935 137.967 129.436 139.771C116.502 141.185 112.455 135.347 112.455 135.347L108.966 144.794C108.966 144.794 127.975 157.11 142.15 152.686C156.326 148.262 159.186 119.586 157.408 111.574C155.632 103.562 150.022 98.0557 146.47 98.6051Z" fill="white"/>
<path d="M108.013 91.588C108.013 91.588 111.516 89.5654 112.445 86.5387C113.374 83.512 113.243 78.3633 113.243 78.3633L113.696 80.9258L114.501 78.9956L113.888 81.6931L114.594 80.9092L114.074 82.5055C114.074 82.5055 114.855 84.8217 113.461 88.431C112.065 92.0403 108.016 91.588 108.016 91.588H108.013Z" fill="#3F2F29"/>
<path d="M99.7877 109.045C99.7877 109.045 100.431 112.678 99.0229 114.558C97.6152 116.439 94.2812 118.227 94.2812 118.227L96.1535 117.656L95.3722 119.03L96.7447 117.531L96.6345 118.402L97.3618 117.386C97.3618 117.386 99.0604 117.164 100.581 114.684C102.101 112.204 99.7877 109.045 99.7877 109.045Z" fill="#3F2F29"/>
<path d="M119.524 109.9C119.378 110.274 119.184 110.639 118.928 110.989C116.903 113.77 113.363 113.452 111.805 113.149C111.39 113.069 111.139 112.642 111.263 112.235C111.368 111.884 111.716 111.669 112.072 111.735C113.339 111.977 116.246 112.249 117.783 110.139C119.36 107.972 117.776 104.663 117.03 103.354C116.844 103.029 116.941 102.617 117.246 102.406C117.588 102.17 118.057 102.274 118.264 102.636C119.043 103.998 120.573 107.202 119.524 109.902V109.9Z" fill="#727881"/>
<path d="M176.82 118.222C176.82 118.222 159.841 136.925 161.736 151.414C163.632 165.903 177.847 168.454 189.219 170.844C200.591 173.236 211.806 171.642 214.173 170.844C216.541 170.046 217.491 158.566 215.752 154.742C214.014 150.914 193.166 148.364 193.166 148.364C193.166 148.364 214.061 143.58 216.644 128.434C219.227 113.289 208.486 103.245 201.38 100.692C194.273 98.1386 192.535 98.6005 192.535 98.6005C192.535 98.6005 178.162 107.69 176.82 118.222Z" fill="#4F46E5"/>
<path d="M215.905 153.363C215.905 153.363 217.681 155.738 217.406 162.436C217.13 169.131 215.59 171.005 214.049 171.483C212.51 171.961 207.944 172.762 208.449 171.803C208.955 170.846 210.692 165.823 210.692 162.355C210.692 158.888 208.174 152.034 208.801 151.295C209.427 150.557 215.513 152.638 215.902 153.363H215.905Z" fill="#3730AD"/>
<path d="M273.644 145.834C273.644 145.834 274.022 148.7 268.342 155.142C262.662 161.581 260.602 161.48 258.786 161.439C256.97 161.399 250.295 159.256 250.593 158.353C250.891 157.453 258.038 153.546 260.367 149.401C262.697 145.257 262.183 141.15 263.408 140.354C264.633 139.556 273.382 143.821 273.647 145.834H273.644Z" fill="#3730AD"/>
</g>
<defs>
<clipPath id="clip0_2892_3199">
<rect width="303" height="205" fill="white"/>
</clipPath>
</defs>
</svg>
