<svg width="393" height="766" viewBox="0 0 393 766" fill="none" xmlns="http://www.w3.org/2000/svg">
<g opacity="0.35" filter="url(#filter0_f_2088_385)">
<path d="M324.805 244.901C316.552 238.991 309.552 230.952 304.437 221.368C281.891 179.124 241.687 151 195.842 151C152.623 151 114.416 175.998 91.2914 214.257C86.0087 222.999 79.268 230.418 71.5293 236.166C36.3645 262.288 13.2374 308.458 14.0192 360.851C15.2015 440.126 71.3582 503.733 139.418 502.993C151.898 502.858 163.937 500.577 175.278 496.456C197.016 488.555 220.07 487.215 242.436 492.196C249.518 493.773 256.829 494.599 264.305 494.597C328.328 494.588 380.367 433.591 379.998 359.012C379.758 310.741 357.737 268.485 324.805 244.901Z" fill="#4F46E5"/>
</g>
<defs>
<filter id="filter0_f_2088_385" x="-248.5" y="-111.5" width="891" height="876.999" filterUnits="userSpaceOnUse" color-interpolation-filters="sRGB">
<feFlood flood-opacity="0" result="BackgroundImageFix"/>
<feBlend mode="normal" in="SourceGraphic" in2="BackgroundImageFix" result="shape"/>
<feGaussianBlur stdDeviation="131.25" result="effect1_foregroundBlur_2088_385"/>
</filter>
</defs>
</svg>
