<svg width="20" height="17" viewBox="0 0 20 17" fill="none" xmlns="http://www.w3.org/2000/svg">
<path d="M2.5 2.5L17.5 14.5" stroke="#9CA3AF" stroke-linecap="round" stroke-linejoin="round"/>
<path d="M8.74967 7.61792C8.49036 7.85296 8.33301 8.16171 8.33301 8.49986C8.33301 9.23624 9.0792 9.83319 9.99967 9.83319C10.4224 9.83319 10.8083 9.70732 11.1021 9.49986" stroke="#9CA3AF" stroke-linecap="round" stroke-linejoin="round"/>
<path d="M6.13488 5.54077C4.73335 6.3265 3.56578 7.44594 2.5 8.50006C4.0738 10.494 6.90141 12.5001 10 12.5001C11.2916 12.5001 12.5361 12.1515 13.6624 11.6006" stroke="#9CA3AF" stroke-linecap="round" stroke-linejoin="round"/>
<path d="M10 4.5C13.3403 4.5 15.5846 6.60547 17.5 8.5C17.2346 8.83622 16.9336 9.17277 16.6017 9.5" stroke="#9CA3AF" stroke-linecap="round" stroke-linejoin="round"/>
</svg>
