<svg width="16" height="17" viewBox="0 0 16 17" fill="none" xmlns="http://www.w3.org/2000/svg">
<path d="M4 7.16659V5.83325C4 3.62659 4.66667 1.83325 8 1.83325C11.3333 1.83325 12 3.62659 12 5.83325V7.16659" stroke="#6B7280" stroke-linecap="round" stroke-linejoin="round"/>
<path d="M7.99967 12.8333C8.92015 12.8333 9.66634 12.0871 9.66634 11.1667C9.66634 10.2462 8.92015 9.5 7.99967 9.5C7.0792 9.5 6.33301 10.2462 6.33301 11.1667C6.33301 12.0871 7.0792 12.8333 7.99967 12.8333Z" stroke="#6B7280" stroke-linecap="round" stroke-linejoin="round"/>
<path d="M11.333 15.1667H4.66634C1.99967 15.1667 1.33301 14.5001 1.33301 11.8334V10.5001C1.33301 7.83341 1.99967 7.16675 4.66634 7.16675H11.333C13.9997 7.16675 14.6663 7.83341 14.6663 10.5001V11.8334C14.6663 14.5001 13.9997 15.1667 11.333 15.1667Z" stroke="#6B7280" stroke-linecap="round" stroke-linejoin="round"/>
</svg>
