<svg width="86" height="85" viewBox="0 0 86 85" fill="none" xmlns="http://www.w3.org/2000/svg">
<g clip-path="url(#clip0_2085_376)">
<path d="M54.5508 60.4684C68.2028 62.2924 79.3626 51.8405 79.7839 39.7539H6.1833C6.62222 46.1744 9.24316 51.4621 14.1974 55.5616C19.177 59.6839 25.0318 60.8746 31.4997 60.3801C31.2524 60.7914 31.1339 61.0033 31.0002 61.2026C28.7526 64.5806 26.4974 67.9535 24.2574 71.3341C23.9774 71.7554 23.7478 71.9698 23.1399 71.8714C20.0044 71.3542 16.9243 73.3195 15.9431 76.3771C14.9467 79.4826 16.3366 82.8127 19.2451 84.286C22.1158 85.7417 25.607 84.9142 27.5191 82.3258C29.4438 79.7198 29.2294 76.1627 26.9969 73.8467C26.7144 73.5541 26.4016 73.2892 26.0459 72.9613C26.172 72.7418 26.2931 72.4996 26.4419 72.2751C28.9342 68.5312 31.4416 64.7975 33.9112 61.0386C34.2164 60.5769 34.5343 60.4407 35.0565 60.4432C40.3437 60.4584 45.631 60.4457 50.9183 60.4684C51.2462 60.4684 51.7255 60.5794 51.8819 60.809C54.5962 64.8177 57.2701 68.8516 59.9894 72.9385C58.6121 74.046 57.6485 75.3831 57.3054 77.1314C56.6092 80.6683 58.8719 84.1044 62.4211 84.8486C65.9603 85.5903 69.449 83.3501 70.2133 79.8409C70.9877 76.2938 68.8082 72.767 65.3095 71.99C64.5855 71.8285 63.7934 71.7428 63.0694 71.8538C62.3606 71.9622 62.0226 71.7907 61.6417 71.2054C59.4924 67.9132 57.2953 64.6563 55.1158 61.3842C54.9468 61.1294 54.7929 60.8645 54.5482 60.471L54.5508 60.4684Z" fill="#C7D2FE"/>
<path d="M42.9042 30.233C30.2233 30.233 17.5399 30.233 4.85899 30.2406C4.29899 30.2406 3.71627 30.2709 3.18401 30.4222C1.44849 30.9142 0.33857 32.612 0.520195 34.3906C0.704338 36.1969 2.19769 37.6424 4.0215 37.7761C4.27123 37.7938 4.52349 37.7862 4.77574 37.7862C30.2636 37.7862 55.7541 37.7862 81.2419 37.7862C83.2474 37.7862 84.6247 36.9562 85.2377 35.3845C86.1634 33.0207 84.5213 30.4222 81.9861 30.2431C81.6405 30.2179 81.2949 30.233 80.9468 30.233C68.2659 30.233 55.5825 30.233 42.9016 30.233H42.9042Z" fill="#C7D2FE"/>
<path d="M10.5524 13.9006C19.1922 18.2221 27.7436 22.4957 36.2951 26.7718C36.3405 26.7314 36.3834 26.6911 36.4288 26.6507C31.5401 18.9537 26.6514 11.2542 21.6971 3.45374C17.048 5.95633 13.3928 9.40749 10.5524 13.898V13.9006Z" fill="#C7D2FE"/>
<path d="M38.2324 25.9645V0.0605938C33.104 -0.211866 28.1875 0.418828 23.4124 2.63131C28.3389 10.3863 33.215 18.0631 38.2324 25.967V25.9645Z" fill="#C7D2FE"/>
<path d="M35.0817 28.2778C26.4647 23.9689 18.0772 19.776 9.69726 15.5857C7.90372 18.0732 6.14802 24.4987 6.22622 28.2778H35.0792H35.0817Z" fill="#C7D2FE"/>
</g>
<defs>
<clipPath id="clip0_2085_376">
<rect width="85" height="85" fill="white" transform="matrix(-1 0 0 1 85.5 0)"/>
</clipPath>
</defs>
</svg>
