<svg width="42" height="32" viewBox="0 0 42 32" fill="none" xmlns="http://www.w3.org/2000/svg">
<g clip-path="url(#clip0_2447_3499)">
<path d="M7.48385 31.8406V29.7226C7.48385 28.9106 6.98954 28.3812 6.14226 28.3812C5.7187 28.3812 5.25977 28.5224 4.94202 28.9813C4.69502 28.593 4.34206 28.3812 3.81253 28.3812C3.45941 28.3812 3.1066 28.487 2.82407 28.8753V28.4518H2.08276V31.8406H2.82407V29.9696C2.82407 29.3696 3.14182 29.0871 3.63613 29.0871C4.13012 29.0871 4.37744 29.4049 4.37744 29.9696V31.8406H5.11874V29.9696C5.11874 29.3696 5.47155 29.0871 5.93048 29.0871C6.42479 29.0871 6.67179 29.4049 6.67179 29.9696V31.8406H7.48385ZM18.4621 28.4518H17.262V27.4281H16.5207V28.4518H15.85V29.1223H16.5206V30.6757C16.5206 31.4524 16.8383 31.9112 17.6856 31.9112C18.0033 31.9112 18.3561 31.8053 18.6034 31.6642L18.3915 31.0287C18.1797 31.1698 17.9327 31.2052 17.7562 31.2052C17.4032 31.2052 17.262 30.9934 17.262 30.6403V29.1223H18.4621V28.4518ZM24.7457 28.381C24.3221 28.381 24.0397 28.593 23.8632 28.8753V28.4518H23.1219V31.8406H23.8632V29.9344C23.8632 29.3696 24.1102 29.0519 24.5691 29.0519C24.7103 29.0519 24.8869 29.0873 25.0281 29.1225L25.2398 28.4166C25.0986 28.3812 24.8869 28.3812 24.7457 28.3812V28.381ZM15.2499 28.7341C14.8968 28.487 14.4026 28.3812 13.8731 28.3812C13.026 28.3812 12.4612 28.8047 12.4612 29.4755C12.4612 30.0404 12.8848 30.3579 13.6261 30.4639L13.979 30.4993C14.3674 30.5697 14.5792 30.6757 14.5792 30.8523C14.5792 31.0993 14.2968 31.2758 13.8025 31.2758C13.3083 31.2758 12.92 31.0993 12.6728 30.9229L12.3199 31.4876C12.7082 31.77 13.2377 31.9112 13.7671 31.9112C14.7556 31.9112 15.3205 31.4524 15.3205 30.8169C15.3205 30.2168 14.8615 29.899 14.1554 29.7932L13.8025 29.7578C13.4847 29.7225 13.2377 29.652 13.2377 29.4402C13.2377 29.1931 13.4847 29.0519 13.8731 29.0519C14.2968 29.0519 14.7204 29.2283 14.9321 29.3343L15.2499 28.7341ZM34.9476 28.3812C34.5238 28.3812 34.2415 28.593 34.0649 28.8753V28.4518H33.3236V31.8406H34.0649V29.9344C34.0649 29.3696 34.3121 29.0519 34.7708 29.0519C34.9122 29.0519 35.0888 29.0873 35.2299 29.1225L35.4417 28.4166C35.3005 28.3812 35.0888 28.3812 34.9476 28.3812ZM25.487 30.1462C25.487 31.1698 26.1929 31.9112 27.2873 31.9112C27.7815 31.9112 28.1345 31.8053 28.4874 31.523L28.1345 30.9229C27.8521 31.1346 27.5697 31.2404 27.252 31.2404C26.6518 31.2404 26.2283 30.8169 26.2283 30.1462C26.2283 29.5108 26.6518 29.0871 27.252 29.0519C27.5697 29.0519 27.8521 29.1577 28.1345 29.3696L28.4874 28.7695C28.1345 28.487 27.7815 28.3812 27.2873 28.3812C26.1929 28.3812 25.487 29.1225 25.487 30.1462ZM32.3353 30.1462V28.4518H31.594V28.8753C31.3468 28.5577 30.9939 28.3812 30.5349 28.3812C29.5819 28.3812 28.8406 29.1225 28.8406 30.1462C28.8406 31.1698 29.5819 31.9112 30.5349 31.9112C31.0291 31.9112 31.3822 31.7348 31.594 31.417V31.8406H32.3353V30.1462ZM29.6171 30.1462C29.6171 29.546 30.0054 29.0519 30.6408 29.0519C31.2409 29.0519 31.6646 29.5108 31.6646 30.1462C31.6646 30.7463 31.2409 31.2404 30.6408 31.2404C30.0054 31.2051 29.6171 30.7463 29.6171 30.1462ZM20.7568 28.3812C19.7683 28.3812 19.0622 29.0871 19.0622 30.1462C19.0622 31.2052 19.7682 31.9112 20.792 31.9112C21.2861 31.9112 21.7805 31.77 22.1688 31.4524L21.8157 30.9229C21.5333 31.1346 21.1803 31.2758 20.8274 31.2758C20.3684 31.2758 19.9095 31.064 19.8035 30.4638H22.31V30.1815C22.3454 29.0871 21.7099 28.3812 20.7566 28.3812H20.7568ZM20.7568 29.0165C21.2155 29.0165 21.5335 29.2991 21.6039 29.8286H19.8389C19.9095 29.3696 20.2272 29.0165 20.7568 29.0165ZM39.1483 30.1462V27.1104H38.4069V28.8753C38.1598 28.5577 37.8068 28.3812 37.3479 28.3812C36.3948 28.3812 35.6535 29.1225 35.6535 30.1462C35.6535 31.1698 36.3948 31.9112 37.3479 31.9112C37.8422 31.9112 38.1952 31.7348 38.4069 31.417V31.8406H39.1483V30.1462ZM36.4302 30.1462C36.4302 29.546 36.8184 29.0519 37.4539 29.0519C38.054 29.0519 38.4775 29.5108 38.4775 30.1462C38.4775 30.7463 38.054 31.2404 37.4539 31.2404C36.8184 31.2051 36.4302 30.7463 36.4302 30.1462ZM11.6492 30.1462V28.4518H10.9078V28.8753C10.6607 28.5577 10.3077 28.3812 9.84879 28.3812C8.89571 28.3812 8.1544 29.1225 8.1544 30.1462C8.1544 31.1698 8.89571 31.9112 9.84879 31.9112C10.3431 31.9112 10.6961 31.7348 10.9078 31.417V31.8406H11.6492V30.1462ZM8.89571 30.1462C8.89571 29.546 9.28405 29.0519 9.91939 29.0519C10.5195 29.0519 10.9432 29.5108 10.9432 30.1462C10.9432 30.7463 10.5195 31.2404 9.91939 31.2404C9.28405 31.2051 8.89571 30.7463 8.89571 30.1462Z" fill="black"/>
<path d="M15.0027 2.71777H26.1223V22.6978H15.0027V2.71777Z" fill="#FF5F00"/>
<path d="M15.7088 12.7082C15.7088 8.64868 17.615 5.04796 20.5448 2.71807C18.3916 1.02368 15.6736 0 12.7083 0C5.6833 0 0 5.6833 0 12.7082C0 19.7329 5.6833 25.4164 12.7082 25.4164C15.6734 25.4164 18.3915 24.3927 20.5448 22.6981C17.615 20.4036 15.7088 16.7677 15.7088 12.7082Z" fill="#EB001B"/>
<path d="M41.1249 12.7082C41.1249 19.7329 35.4416 25.4164 28.4167 25.4164C25.4515 25.4164 22.7334 24.3927 20.5801 22.6981C23.5453 20.3684 25.4163 16.7677 25.4163 12.7082C25.4163 8.64868 23.5099 5.04796 20.5801 2.71807C22.7332 1.02368 25.4515 0 28.4167 0C35.4416 0 41.125 5.71867 41.125 12.7082H41.1249Z" fill="#F79E1B"/>
</g>
<defs>
<clipPath id="clip0_2447_3499">
<rect width="41.1658" height="32" fill="white"/>
</clipPath>
</defs>
</svg>
