<svg width="32" height="32" viewBox="0 0 32 32" fill="none" xmlns="http://www.w3.org/2000/svg">
<g clip-path="url(#clip0_2447_4440)">
<path d="M0.518738 12.6372C0.518738 17.523 2.59381 28.8423 15.073 28.8423C27.5523 28.8423 29.6273 17.523 29.6273 12.6372H0.518738Z" fill="#24A7BC"/>
<path d="M15.073 18.0346C23.1111 18.0346 29.6273 15.6181 29.6273 12.6372C29.6273 9.65626 23.1111 7.23975 15.073 7.23975C7.03492 7.23975 0.518738 9.65626 0.518738 12.6372C0.518738 15.6181 7.03492 18.0346 15.073 18.0346Z" fill="#FC9127"/>
<path d="M24.5128 13.0979C24.3873 13.1124 24.2603 13.0929 24.145 13.0414C24.0297 12.9899 23.9304 12.9084 23.8575 12.8053C23.8143 12.7467 23.7684 12.6905 23.7199 12.6367C22.9981 11.8356 21.7208 11.5502 20.7968 11.9083C20.676 11.9527 20.5456 11.9641 20.419 11.9412C20.2925 11.9183 20.1743 11.862 20.0768 11.7781C19.5341 11.3168 18.8529 11.05 18.1413 11.02C17.4298 10.9899 16.7285 11.1983 16.1488 11.6121C16.0225 11.7011 15.871 11.7472 15.7165 11.7438C15.5621 11.7403 15.4128 11.6874 15.2905 11.5929C14.2073 10.7486 12.338 10.8379 11.2816 11.8171C11.1725 11.9213 11.0338 11.9892 10.8846 12.0112C10.7354 12.0333 10.583 12.0086 10.4485 11.9404C9.76975 11.5765 8.98966 11.4474 8.22989 11.5734C7.47012 11.6993 6.77343 12.0733 6.24851 12.6368C6.13114 12.7607 6.02303 12.893 5.92506 13.0327C5.85395 13.1344 5.75766 13.2158 5.64561 13.2691C5.53356 13.3224 5.40959 13.3456 5.28585 13.3366C4.77864 13.2989 4.27114 13.4059 3.82238 13.6453C3.37362 13.8846 3.00205 14.2465 2.75089 14.6888C2.70478 14.773 2.67582 14.8655 2.66568 14.9609C2.65554 15.0564 2.66443 15.1529 2.69184 15.2449C2.71924 15.3369 2.76461 15.4226 2.82532 15.497C2.88603 15.5713 2.96089 15.6329 3.04555 15.6782C5.66602 17.1004 10.0755 18.0348 15.073 18.0348C20.6696 18.0348 25.5278 16.8633 27.9634 15.1453H27.9644C27.5205 13.6847 26.0312 12.8932 24.5128 13.0979Z" fill="white"/>
<path d="M8.3035 15.226C8.53648 15.226 8.72534 15.0371 8.72534 14.8042C8.72534 14.5712 8.53648 14.3823 8.3035 14.3823C8.07052 14.3823 7.88165 14.5712 7.88165 14.8042C7.88165 15.0371 8.07052 15.226 8.3035 15.226Z" fill="#FFC3C0"/>
<path d="M12.6512 14.5116C12.9778 14.5116 13.2427 14.2468 13.2427 13.9201C13.2427 13.5934 12.9778 13.3286 12.6512 13.3286C12.3245 13.3286 12.0597 13.5934 12.0597 13.9201C12.0597 14.2468 12.3245 14.5116 12.6512 14.5116Z" fill="#FFC3C0"/>
<path d="M17.0329 14.4535C17.2258 14.4535 17.3822 14.2971 17.3822 14.1042C17.3822 13.9113 17.2258 13.7549 17.0329 13.7549C16.84 13.7549 16.6836 13.9113 16.6836 14.1042C16.6836 14.2971 16.84 14.4535 17.0329 14.4535Z" fill="#FFC3C0"/>
<path d="M23.1143 15.4935C23.3072 15.4935 23.4636 15.3371 23.4636 15.1442C23.4636 14.9513 23.3072 14.7949 23.1143 14.7949C22.9214 14.7949 22.765 14.9513 22.765 15.1442C22.765 15.3371 22.9214 15.4935 23.1143 15.4935Z" fill="#FFC3C0"/>
<path d="M14.4257 16.4006C14.6792 16.4006 14.8848 16.1951 14.8848 15.9415C14.8848 15.688 14.6792 15.4824 14.4257 15.4824C14.1721 15.4824 13.9666 15.688 13.9666 15.9415C13.9666 16.1951 14.1721 16.4006 14.4257 16.4006Z" fill="#FFC3C0"/>
<path d="M15.0731 18.5527C11.1255 18.5527 7.40645 17.9798 4.6013 16.9395C1.63403 15.8391 0 14.3111 0 12.6365C0 10.9619 1.63412 9.43389 4.6013 8.33358C7.40645 7.29311 11.1254 6.72021 15.0731 6.72021C19.0207 6.72021 22.7397 7.29311 25.5448 8.33358C28.5121 9.43389 30.1461 10.962 30.1461 12.6365C30.1461 14.311 28.512 15.8391 25.5448 16.9395C22.7397 17.9798 19.0206 18.5527 15.0731 18.5527ZM15.0731 7.75775C11.2454 7.75775 7.65468 8.30773 4.96202 9.30636C2.46795 10.2315 1.03754 11.4451 1.03754 12.6365C1.03754 13.8279 2.46795 15.0418 4.96202 15.9666C7.65468 16.9653 11.2455 17.5152 15.0731 17.5152C18.9006 17.5152 22.4914 16.9653 25.1841 15.9666C27.6782 15.0415 29.1086 13.8279 29.1086 12.6365C29.1086 11.4451 27.6782 10.2312 25.1841 9.30636C22.4914 8.30773 18.9007 7.75775 15.0731 7.75775Z" fill="#FFC3C0"/>
<path d="M20.6772 14.7974C20.7357 14.7993 20.7932 14.7818 20.8407 14.7476C20.8883 14.7135 20.9232 14.6645 20.9401 14.6085C23.4401 6.46737 33.753 6.53429 31.7416 3.87344C29.3738 0.741207 21.0476 6.44809 18.5869 14.3853C18.5746 14.4242 18.5715 14.4654 18.5777 14.5057C18.584 14.546 18.5994 14.5843 18.6229 14.6177C18.6464 14.651 18.6772 14.6785 18.7131 14.698C18.7489 14.7174 18.7887 14.7284 18.8295 14.73L20.6772 14.7974Z" fill="#FFBA55"/>
</g>
<defs>
<clipPath id="clip0_2447_4440">
<rect width="32" height="32" fill="white"/>
</clipPath>
</defs>
</svg>
