<svg width="32" height="32" viewBox="0 0 32 32" fill="none" xmlns="http://www.w3.org/2000/svg">
<g clip-path="url(#clip0_2447_4491)">
<rect x="14.4091" y="9.95459" width="10" height="17.6875" rx="5" transform="rotate(6.12135 14.4091 9.95459)" fill="white"/>
<path fill-rule="evenodd" clip-rule="evenodd" d="M15.2175 13.3834L18.9948 14.431L26.6483 16.5537L28.7172 9.12708C29.78 5.31246 27.5209 1.3227 23.6978 0.262247C19.8728 -0.798146 15.876 1.45405 14.8114 5.27048L13.5858 9.67463C13.5858 12.365 14.2992 13.1297 15.2175 13.3834Z" fill="#EB5468"/>
<path fill-rule="evenodd" clip-rule="evenodd" d="M25.4684 8.22537L23.3996 15.6519L26.6483 16.5535L28.7172 9.12692C29.78 5.3123 27.5209 1.32255 23.6978 0.262088C23.1501 0.110191 22.5865 0.0232072 22.0186 0.00292969C24.8611 1.58357 26.3758 4.96744 25.4684 8.22537Z" fill="#E5384F"/>
<path fill-rule="evenodd" clip-rule="evenodd" d="M26.6483 16.554L23.3996 15.6523L21.3307 23.079C20.7765 25.0702 19.4229 26.6362 17.7107 27.5269C17.5532 27.9122 17.3623 28.2829 17.14 28.6347C17.0179 28.8293 16.886 29.0176 16.7448 29.1987C20.2258 29.624 23.6136 27.4465 24.5794 23.9806L26.6483 16.554Z" fill="#DDDAEC"/>
<path fill-rule="evenodd" clip-rule="evenodd" d="M9.12611 7.74365C5.75299 7.74365 3.02014 10.4723 3.02014 13.8379C3.02014 16.2124 4.37929 18.2675 6.36583 19.2751C8.63954 20.2862 11.4328 20.2607 13.5565 18.0322C14.5955 16.9407 15.2339 15.4623 15.2339 13.8379C15.2339 13.6846 15.2285 13.5331 15.2175 13.3835C15.1114 11.9525 14.5114 10.6603 13.5858 9.67475C12.4718 8.48649 10.8858 7.74365 9.12611 7.74365Z" fill="#FFD772"/>
<path fill-rule="evenodd" clip-rule="evenodd" d="M11.0248 24.7888L18.1168 26.1924C18.7862 22.845 16.9918 19.3954 13.6991 18.0868L13.5565 18.032C12.8412 17.7656 12.1077 17.6177 11.3815 17.5831C9.54681 17.4918 7.75234 18.1087 6.36576 19.275C5.80418 19.744 5.31213 20.3044 4.90971 20.945L11.0248 24.7888ZM17.1399 28.6344L11.0175 25.5809L3.93476 23.3889C3.26893 26.7326 5.0634 30.1803 8.35236 31.4871C9.22674 31.8339 10.1304 32 11.0175 32H11.0304C13.2492 31.9982 15.3748 30.9687 16.7449 29.1983C16.886 29.0172 17.0179 28.829 17.1399 28.6344Z" fill="#B1E4F9"/>
<path fill-rule="evenodd" clip-rule="evenodd" d="M10.6316 7.93164C12.031 9.42465 13.8272 14.8691 10.3297 17.6087C10.6773 17.5739 11.0285 17.5649 11.3815 17.5831C12.1078 17.6178 12.8413 17.7656 13.5565 18.0321C14.5955 16.9406 15.2339 15.4622 15.2339 13.8378C15.2339 13.6845 15.2284 13.533 15.2174 13.3834C15.1113 11.9524 14.5113 10.6602 13.5857 9.67467C12.7992 8.83693 11.7804 8.22183 10.6316 7.93164Z" fill="#FBBA58"/>
<path fill-rule="evenodd" clip-rule="evenodd" d="M17.14 28.6346L13.7285 27.2785C13.6602 27.5074 13.584 27.7339 13.4998 27.9575C12.8797 29.6147 11.8755 31.0165 10.6261 31.9893C10.756 31.9966 10.8877 32.0002 11.0176 32.0002H11.0304C13.2492 31.9984 15.3748 30.969 16.7449 29.1986C16.8861 29.0175 17.0179 28.8292 17.14 28.6346ZM14.1803 24.6284L18.1168 26.1926C18.7863 22.8452 16.9918 19.3957 13.6992 18.087L13.5565 18.0323C13.1026 17.8618 12.6325 17.7383 12.1535 17.6636C12.4003 17.9896 12.6251 18.3317 12.8267 18.6875C13.69 20.2078 14.195 22.0549 14.195 24.0462C14.195 24.2415 14.1913 24.4349 14.1803 24.6284Z" fill="#75CEF8"/>
<path fill-rule="evenodd" clip-rule="evenodd" d="M18.1167 26.1922L10.5017 23.1661L4.9097 20.9448C4.67496 21.317 4.47474 21.7098 4.31155 22.1184C4.14822 22.5297 4.02212 22.9549 3.93475 23.3887L12.0529 26.6138L17.14 28.6343C17.376 28.2607 17.5769 27.8659 17.74 27.4552C17.9033 27.0464 18.0294 26.6237 18.1167 26.1922Z" fill="#75CEF8"/>
<path fill-rule="evenodd" clip-rule="evenodd" d="M13.7285 27.2785L17.1399 28.6347C17.376 28.261 17.5768 27.8663 17.7399 27.4556C17.9032 27.0468 18.0293 26.6241 18.1167 26.1926L14.1802 24.6284C14.1345 25.5537 13.979 26.4444 13.7285 27.2785Z" fill="#60B7FF"/>
<path d="M10.6846 13.726H10.6718C10.5437 13.726 10.4209 13.6751 10.3304 13.5846C10.2398 13.494 10.1889 13.3712 10.1889 13.2431C10.1889 13.115 10.2398 12.9922 10.3304 12.9016C10.4209 12.8111 10.5437 12.7602 10.6718 12.7602H10.6846C10.8127 12.7602 10.9355 12.8111 11.0261 12.9016C11.1167 12.9922 11.1675 13.115 11.1675 13.2431C11.1675 13.3712 11.1167 13.494 11.0261 13.5846C10.9355 13.6751 10.8127 13.726 10.6846 13.726ZM9.33102 16.3523H9.3182C9.19013 16.3523 9.0673 16.3015 8.97674 16.2109C8.88617 16.1203 8.8353 15.9975 8.8353 15.8694C8.8353 15.7414 8.88617 15.6185 8.97674 15.528C9.0673 15.4374 9.19013 15.3865 9.3182 15.3865H9.33102C9.45909 15.3865 9.58192 15.4374 9.67248 15.528C9.76304 15.6185 9.81392 15.7414 9.81392 15.8694C9.81392 15.9975 9.76304 16.1203 9.67248 16.2109C9.58192 16.3015 9.45909 16.3523 9.33102 16.3523ZM6.73898 14.425H6.7243C6.59622 14.425 6.4734 14.3741 6.38283 14.2835C6.29227 14.193 6.24139 14.0702 6.24139 13.9421C6.24139 13.814 6.29227 13.6912 6.38283 13.6006C6.4734 13.5101 6.59622 13.4592 6.7243 13.4592H6.73898C6.86705 13.4592 6.98988 13.5101 7.08044 13.6006C7.17101 13.6912 7.22188 13.814 7.22188 13.9421C7.22188 14.0702 7.17101 14.193 7.08044 14.2835C6.98988 14.3741 6.86705 14.425 6.73898 14.425ZM8.50782 11.2876H8.49501C8.36694 11.2876 8.24411 11.2367 8.15355 11.1461C8.06298 11.0556 8.01211 10.9328 8.01211 10.8047C8.01211 10.6766 8.06298 10.5538 8.15355 10.4632C8.24411 10.3727 8.36694 10.3218 8.49501 10.3218H8.50782C8.6359 10.3218 8.75873 10.3727 8.84929 10.4632C8.93985 10.5538 8.99073 10.6766 8.99073 10.8047C8.99073 10.9328 8.93985 11.0556 8.84929 11.1461C8.75873 11.2367 8.6359 11.2876 8.50782 11.2876Z" fill="#FBBA58"/>
</g>
<defs>
<clipPath id="clip0_2447_4491">
<rect width="32" height="32" fill="white"/>
</clipPath>
</defs>
</svg>
