<svg width="353" height="348" viewBox="0 0 353 348" fill="none" xmlns="http://www.w3.org/2000/svg">
<g clip-path="url(#clip0_2088_452)">
<path d="M347.241 347.566H6.56551C1.55048 347.566 -1.33662 343.569 1.62999 340.734L55.6859 289.087C57.1531 287.686 59.4798 286.855 61.958 286.847L298.21 286.054C300.777 286.045 303.168 286.973 304.521 288.501L351.762 341.867C353.962 344.353 351.414 347.564 347.241 347.564V347.566Z" fill="white"/>
<path d="M347.241 348H6.56553C3.60839 348 1.07532 346.621 0.257467 344.571C-0.314273 343.134 0.0776152 341.62 1.33279 340.42L55.3887 288.773C56.926 287.303 59.3814 286.421 61.9561 286.413L298.208 285.62C300.919 285.609 303.397 286.581 304.843 288.214L352.084 341.58C353.019 342.637 353.252 343.927 352.72 345.115C351.949 346.84 349.747 347.998 347.241 347.998V348ZM298.245 286.488H298.211L61.9599 287.281C59.5991 287.288 57.3652 288.081 55.985 289.403L1.92725 341.048C0.925759 342.004 0.619064 343.141 1.06017 344.248C1.63191 345.684 3.55538 347.133 6.56553 347.133H347.241C349.749 347.133 351.404 345.942 351.932 344.761C352.324 343.885 352.148 342.959 351.438 342.156L304.198 288.791C302.939 287.368 300.659 286.488 298.244 286.488H298.245Z" fill="#111827"/>
<path d="M307.111 314.231C307.111 314.231 314.695 311.85 327.117 287.638C337.603 267.201 328.254 247.449 326.369 234.238C326.176 232.89 324.339 232.694 323.885 233.978C320.742 242.855 315.684 258.996 316.502 268.934C317.681 283.255 307.111 314.231 307.111 314.231Z" fill="white"/>
<path d="M307.111 314.664C306.996 314.664 306.884 314.619 306.803 314.533C306.689 314.415 306.651 314.244 306.704 314.09C306.81 313.782 317.23 283.036 316.072 268.97C315.246 258.929 320.358 242.645 323.478 233.833C323.749 233.069 324.46 232.61 325.261 232.69C326.064 232.77 326.679 233.369 326.795 234.177C327.221 237.153 328.038 240.512 328.904 244.068C331.923 256.465 335.681 271.893 327.499 287.836C315.136 311.932 307.556 314.544 307.238 314.643C307.196 314.657 307.153 314.662 307.109 314.662L307.111 314.664ZM325.085 233.548C324.786 233.548 324.441 233.696 324.292 234.124C321.195 242.872 316.119 259.022 316.931 268.899C317.984 281.686 309.652 307.898 307.855 313.364C310.173 311.941 316.967 306.474 326.734 287.442C334.767 271.786 331.052 256.533 328.067 244.277C327.196 240.7 326.372 237.321 325.941 234.303C325.869 233.801 325.498 233.586 325.174 233.554C325.146 233.552 325.115 233.55 325.085 233.55V233.548Z" fill="#111827"/>
<path d="M315.332 300.993L318.033 279.539C319.205 270.227 317.689 260.768 313.666 252.311C307.804 239.991 307.344 225.734 312.397 213.05L316.736 202.163C317.285 200.786 315.538 199.67 314.55 200.764L308.457 207.497C294.635 222.771 289.969 244.395 296.235 264.128L307.462 299.474L315.333 300.993H315.332Z" fill="white"/>
<path d="M315.331 301.427C315.305 301.427 315.277 301.425 315.25 301.419L307.378 299.9C307.223 299.869 307.096 299.757 307.049 299.607L295.822 264.261C289.522 244.425 294.24 222.564 308.135 207.208L314.228 200.475C314.904 199.727 315.826 199.782 316.437 200.167C317.058 200.556 317.514 201.376 317.136 202.327L312.796 213.214C307.799 225.757 308.257 239.941 314.054 252.127C318.122 260.679 319.646 270.177 318.459 279.594L315.757 301.048C315.742 301.166 315.68 301.275 315.583 301.345C315.509 301.398 315.42 301.427 315.33 301.427H315.331ZM307.793 299.097L314.96 300.482L317.603 279.486C318.768 270.232 317.272 260.901 313.274 252.5C307.373 240.095 306.907 225.66 311.996 212.89L316.335 202.004C316.541 201.484 316.272 201.083 315.979 200.899C315.68 200.71 315.231 200.653 314.866 201.055L308.773 207.788C295.084 222.916 290.436 244.454 296.642 263.995L307.791 299.096L307.793 299.097Z" fill="#111827"/>
<path d="M311.85 301.697L302.481 277.656C299.815 270.816 294.205 265.592 287.258 263.48L280.868 261.536C279.318 261.065 278.276 263.122 279.558 264.124L283.486 267.192C287.742 270.516 290.281 275.616 290.393 281.06C290.459 284.261 291.366 287.383 293.02 290.11L299.37 300.571L311.852 301.697H311.85Z" fill="white"/>
<path d="M311.85 302.131C311.837 302.131 311.823 302.131 311.812 302.131L299.33 301.005C299.194 300.993 299.071 300.915 299.001 300.799L292.651 290.338C290.959 287.551 290.029 284.346 289.961 281.072C289.851 275.73 287.394 270.795 283.221 267.536L279.293 264.469C278.428 263.793 278.409 262.776 278.772 262.071C279.132 261.373 279.957 260.81 280.993 261.124L287.382 263.067C294.501 265.233 300.15 270.493 302.882 277.501L312.251 301.541C312.306 301.68 312.283 301.84 312.194 301.959C312.113 302.07 311.984 302.132 311.85 302.132V302.131ZM299.624 300.16L311.195 301.203L302.079 277.814C299.446 271.056 293.997 265.982 287.133 263.894L280.743 261.951C280.147 261.77 279.721 262.114 279.539 262.466C279.353 262.826 279.316 263.387 279.823 263.782L283.751 266.849C288.132 270.27 290.709 275.447 290.824 281.051C290.889 284.171 291.775 287.225 293.388 289.884L299.624 300.159V300.16Z" fill="#111827"/>
<path d="M310.462 290.835C310.449 290.835 310.436 290.835 310.422 290.833C310.186 290.81 310.012 290.599 310.032 290.361C311.46 275.025 308.393 265.149 305.688 256.438C304.434 252.405 303.251 248.596 302.549 244.496C299.228 225.141 310.547 208.347 310.663 208.18C310.797 207.984 311.066 207.933 311.263 208.07C311.46 208.207 311.509 208.475 311.375 208.673C311.261 208.838 300.142 225.352 303.401 244.349C304.094 248.392 305.269 252.174 306.513 256.179C309.243 264.971 312.336 274.933 310.894 290.443C310.873 290.667 310.686 290.837 310.464 290.837L310.462 290.835Z" fill="#111827"/>
<path d="M322.944 280.57C322.919 280.57 322.897 280.568 322.872 280.564C322.637 280.524 322.478 280.3 322.518 280.064C325.07 264.912 324.186 241.579 324.176 241.345C324.167 241.105 324.352 240.903 324.591 240.894C324.841 240.883 325.03 241.071 325.04 241.31C325.049 241.544 325.937 264.967 323.37 280.208C323.334 280.419 323.152 280.57 322.946 280.57H322.944Z" fill="#111827"/>
<path d="M300.57 293.13C300.334 293.13 300.141 292.938 300.139 292.7C299.959 273.865 284.986 265.6 284.834 265.518C284.624 265.406 284.545 265.144 284.658 264.933C284.772 264.721 285.033 264.642 285.241 264.756C285.397 264.839 300.816 273.349 301.002 292.693C301.004 292.932 300.813 293.128 300.574 293.13H300.57Z" fill="#111827"/>
<path d="M302.604 257.79C302.475 257.79 302.348 257.733 302.263 257.623C298.185 252.361 296.432 245.473 296.36 245.182C296.301 244.95 296.441 244.714 296.672 244.657C296.905 244.598 297.138 244.739 297.197 244.971C297.214 245.041 298.98 251.977 302.943 257.09C303.088 257.279 303.056 257.55 302.867 257.699C302.787 257.76 302.694 257.79 302.602 257.79H302.604Z" fill="#111827"/>
<path d="M309.631 329.632C299.828 329.632 291.881 321.649 291.881 311.802V295.885H327.383V311.802C327.383 321.649 319.436 329.632 309.633 329.632H309.631Z" fill="#111827"/>
<path d="M323.9 302.275H295.358C295.12 302.275 294.927 302.081 294.927 301.842C294.927 301.602 295.12 301.408 295.358 301.408H323.9C324.138 301.408 324.332 301.602 324.332 301.842C324.332 302.081 324.138 302.275 323.9 302.275Z" fill="white"/>
<path d="M85.5566 111.929H79.0857V295.661H85.5566V111.929Z" fill="white"/>
<path d="M85.5584 296.095H79.0875C78.849 296.095 78.6559 295.901 78.6559 295.661V111.929C78.6559 111.689 78.849 111.495 79.0875 111.495H85.5584C85.7969 111.495 85.9901 111.689 85.9901 111.929V295.661C85.9901 295.901 85.7969 296.095 85.5584 296.095ZM79.5192 295.228H85.1268V112.362H79.5192V295.228Z" fill="#111827"/>
<path d="M266.747 111.929H260.708V295.661H266.747V111.929Z" fill="white"/>
<path d="M266.747 296.095H260.708C260.469 296.095 260.276 295.901 260.276 295.661V111.929C260.276 111.689 260.469 111.495 260.708 111.495H266.747C266.985 111.495 267.179 111.689 267.179 111.929V295.661C267.179 295.901 266.985 296.095 266.747 296.095ZM261.139 295.228H266.315V112.362H261.139V295.228Z" fill="#111827"/>
<path d="M89.871 127.53H59.2413V211.595H89.871V127.53Z" fill="#111827"/>
<path d="M71.6738 189.928C64.8073 189.928 59.2413 195.519 59.2413 202.416V217.662H241.725V189.928H71.6738Z" fill="white"/>
<path d="M241.725 218.095H59.2413C59.0028 218.095 58.8097 217.901 58.8097 217.662V202.416C58.8097 195.293 64.5801 189.496 71.6738 189.496H241.725C241.963 189.496 242.156 189.69 242.156 189.93V217.664C242.156 217.903 241.963 218.097 241.725 218.097V218.095ZM59.673 217.228H241.293V190.362H71.6738C65.0572 190.362 59.673 195.77 59.673 202.416V217.228Z" fill="#111827"/>
<path d="M76.9292 127.53H70.89V216.363H76.9292V127.53Z" fill="white"/>
<path d="M76.9293 216.795H70.89C70.6515 216.795 70.4584 216.601 70.4584 216.361V127.528C70.4584 127.288 70.6515 127.094 70.89 127.094H76.9293C77.1678 127.094 77.3609 127.288 77.3609 127.528V216.361C77.3609 216.601 77.1678 216.795 76.9293 216.795ZM71.3217 215.927H76.4976V127.961H71.3217V215.927Z" fill="#111827"/>
<path d="M93.754 127.53H87.7147V216.363H93.754V127.53Z" fill="white"/>
<path d="M93.754 216.795H87.7147C87.4762 216.795 87.2831 216.601 87.2831 216.361V127.528C87.2831 127.288 87.4762 127.094 87.7147 127.094H93.754C93.9925 127.094 94.1856 127.288 94.1856 127.528V216.361C94.1856 216.601 93.9925 216.795 93.754 216.795ZM88.1464 215.927H93.3223V127.961H88.1464V215.927Z" fill="#111827"/>
<path d="M111.01 127.53H104.971V216.363H111.01V127.53Z" fill="white"/>
<path d="M111.01 216.795H104.971C104.732 216.795 104.539 216.601 104.539 216.361V127.528C104.539 127.288 104.732 127.094 104.971 127.094H111.01C111.249 127.094 111.442 127.288 111.442 127.528V216.361C111.442 216.601 111.249 216.795 111.01 216.795ZM105.403 215.927H110.579V127.961H105.403V215.927Z" fill="#111827"/>
<path d="M128.267 127.53H121.796V216.363H128.267V127.53Z" fill="white"/>
<path d="M128.267 216.795H121.796C121.557 216.795 121.364 216.601 121.364 216.361V127.528C121.364 127.288 121.557 127.094 121.796 127.094H128.267C128.505 127.094 128.698 127.288 128.698 127.528V216.361C128.698 216.601 128.505 216.795 128.267 216.795ZM122.227 215.927H127.835V127.961H122.227V215.927Z" fill="#111827"/>
<path d="M145.091 127.53H139.052V216.363H145.091V127.53Z" fill="white"/>
<path d="M145.091 216.795H139.052C138.813 216.795 138.62 216.601 138.62 216.361V127.528C138.62 127.288 138.813 127.094 139.052 127.094H145.091C145.33 127.094 145.523 127.288 145.523 127.528V216.361C145.523 216.601 145.33 216.795 145.091 216.795ZM139.484 215.927H144.66V127.961H139.484V215.927Z" fill="#111827"/>
<path d="M162.348 127.53H155.877V216.363H162.348V127.53Z" fill="white"/>
<path d="M162.348 216.795H155.877C155.638 216.795 155.445 216.601 155.445 216.361V127.528C155.445 127.288 155.638 127.094 155.877 127.094H162.348C162.586 127.094 162.779 127.288 162.779 127.528V216.361C162.779 216.601 162.586 216.795 162.348 216.795ZM156.308 215.927H161.916V127.961H156.308V215.927Z" fill="#111827"/>
<path d="M179.172 127.53H173.133V216.363H179.172V127.53Z" fill="white"/>
<path d="M179.172 216.795H173.133C172.894 216.795 172.701 216.601 172.701 216.361V127.528C172.701 127.288 172.894 127.094 173.133 127.094H179.172C179.411 127.094 179.604 127.288 179.604 127.528V216.361C179.604 216.601 179.411 216.795 179.172 216.795ZM173.565 215.927H178.741V127.961H173.565V215.927Z" fill="#111827"/>
<path d="M196.429 127.53H189.958V216.363H196.429V127.53Z" fill="white"/>
<path d="M196.429 216.795H189.958C189.719 216.795 189.526 216.601 189.526 216.361V127.528C189.526 127.288 189.719 127.094 189.958 127.094H196.429C196.667 127.094 196.86 127.288 196.86 127.528V216.361C196.86 216.601 196.667 216.795 196.429 216.795ZM190.389 215.927H195.997V127.961H190.389V215.927Z" fill="#111827"/>
<path d="M213.251 127.53H207.212V216.363H213.251V127.53Z" fill="white"/>
<path d="M213.253 216.795H207.214C206.975 216.795 206.782 216.601 206.782 216.361V127.528C206.782 127.288 206.975 127.094 207.214 127.094H213.253C213.492 127.094 213.685 127.288 213.685 127.528V216.361C213.685 216.601 213.492 216.795 213.253 216.795ZM207.646 215.927H212.822V127.961H207.646V215.927Z" fill="#111827"/>
<path d="M230.507 127.53H224.468V216.363H230.507V127.53Z" fill="white"/>
<path d="M230.509 216.795H224.47C224.232 216.795 224.039 216.601 224.039 216.361V127.528C224.039 127.288 224.232 127.094 224.47 127.094H230.509C230.748 127.094 230.941 127.288 230.941 127.528V216.361C230.941 216.601 230.748 216.795 230.509 216.795ZM224.902 215.927H230.078V127.961H224.902V215.927Z" fill="#111827"/>
<path d="M241.725 211.595H58.8097V217.662H241.725V211.595Z" fill="white"/>
<path d="M241.725 218.095H58.8097C58.5712 218.095 58.3781 217.901 58.3781 217.662V211.595C58.3781 211.356 58.5712 211.162 58.8097 211.162H241.725C241.963 211.162 242.156 211.356 242.156 211.595V217.662C242.156 217.901 241.963 218.095 241.725 218.095ZM59.2413 217.228H241.293V212.029H59.2413V217.228Z" fill="#111827"/>
<path d="M266.745 259.695H58.8097V265.762H266.745V259.695Z" fill="white"/>
<path d="M266.747 266.195H58.8097C58.5712 266.195 58.3781 266.001 58.3781 265.762V259.695C58.3781 259.456 58.5712 259.262 58.8097 259.262H266.747C266.985 259.262 267.179 259.456 267.179 259.695V265.762C267.179 266.001 266.985 266.195 266.747 266.195ZM59.2413 265.328H266.315V260.129H59.2413V265.328Z" fill="#111827"/>
<path d="M241.725 126.229H58.8097V132.295H241.725V126.229Z" fill="white"/>
<path d="M241.725 132.729H58.8097C58.5712 132.729 58.3781 132.535 58.3781 132.295V126.229C58.3781 125.989 58.5712 125.795 58.8097 125.795H241.725C241.963 125.795 242.156 125.989 242.156 126.229V132.295C242.156 132.535 241.963 132.729 241.725 132.729ZM59.2413 131.862H241.293V126.662H59.2413V131.862Z" fill="#111827"/>
<path d="M244.313 111.929H237.842V295.661H244.313V111.929Z" fill="white"/>
<path d="M244.313 296.095H237.842C237.603 296.095 237.41 295.901 237.41 295.661V111.929C237.41 111.689 237.603 111.495 237.842 111.495H244.313C244.551 111.495 244.744 111.689 244.744 111.929V295.661C244.744 295.901 244.551 296.095 244.313 296.095ZM238.273 295.228H243.881V112.362H238.273V295.228Z" fill="#111827"/>
<path d="M62.6926 111.929H56.6533V295.661H62.6926V111.929Z" fill="white"/>
<path d="M62.6926 296.095H56.6533C56.4148 296.095 56.2217 295.901 56.2217 295.661V111.929C56.2217 111.689 56.4148 111.495 56.6533 111.495H62.6926C62.9311 111.495 63.1242 111.689 63.1242 111.929V295.661C63.1242 295.901 62.9311 296.095 62.6926 296.095ZM57.085 295.228H62.2609V112.362H57.085V295.228Z" fill="#111827"/>
<path d="M264.157 126.229H237.842V217.662H264.157V126.229Z" fill="white"/>
<path d="M264.159 218.095H237.844C237.605 218.095 237.412 217.901 237.412 217.662V126.229C237.412 125.989 237.605 125.795 237.844 125.795H264.159C264.397 125.795 264.591 125.989 264.591 126.229V217.662C264.591 217.901 264.397 218.095 264.159 218.095ZM238.275 217.228H263.727V126.662H238.275V217.228Z" fill="#111827"/>
<path d="M65.6661 112.601C66.4676 109.19 64.3645 105.772 60.9687 104.967C57.5729 104.162 54.1704 106.274 53.3689 109.685C52.5675 113.096 54.6705 116.514 58.0663 117.319C61.4621 118.124 64.8646 116.012 65.6661 112.601Z" fill="white"/>
<path d="M59.5196 117.926C55.7976 117.926 52.7704 114.886 52.7704 111.147C52.7704 107.408 55.7976 104.368 59.5196 104.368C63.2416 104.368 66.2687 107.408 66.2687 111.147C66.2687 114.886 63.2416 117.926 59.5196 117.926ZM59.5196 105.235C56.2747 105.235 53.6337 107.888 53.6337 111.147C53.6337 114.406 56.2747 117.059 59.5196 117.059C62.7645 117.059 65.4055 114.406 65.4055 111.147C65.4055 107.888 62.7645 105.235 59.5196 105.235Z" fill="#111827"/>
<path d="M84.6826 117.01C87.9061 115.669 89.4368 111.957 88.1016 108.719C86.7664 105.481 83.0709 103.943 79.8474 105.285C76.6239 106.626 75.0931 110.338 76.4284 113.576C77.7636 116.814 81.4591 118.351 84.6826 117.01Z" fill="white"/>
<path d="M82.2642 117.926C78.5422 117.926 75.515 114.886 75.515 111.147C75.515 107.408 78.5422 104.368 82.2642 104.368C85.9862 104.368 89.0134 107.408 89.0134 111.147C89.0134 114.886 85.9862 117.926 82.2642 117.926ZM82.2642 105.235C79.0193 105.235 76.3783 107.888 76.3783 111.147C76.3783 114.406 79.0193 117.059 82.2642 117.059C85.5091 117.059 88.1501 114.406 88.1501 111.147C88.1501 107.888 85.5091 105.235 82.2642 105.235Z" fill="#111827"/>
<path d="M243.419 117.01C246.642 115.669 248.173 111.957 246.838 108.719C245.503 105.481 241.807 103.944 238.584 105.285C235.36 106.626 233.829 110.338 235.165 113.576C236.5 116.814 240.195 118.352 243.419 117.01Z" fill="white"/>
<path d="M266.165 117.009C269.388 115.668 270.919 111.956 269.584 108.718C268.248 105.48 264.553 103.943 261.329 105.284C258.106 106.625 256.575 110.337 257.91 113.575C259.246 116.813 262.941 118.35 266.165 117.009Z" fill="white"/>
<path d="M68.9894 47.5657C68.7679 47.5657 68.5786 47.3945 68.5596 47.1682C68.5407 46.9305 68.7168 46.7213 68.9553 46.7004L72.2911 46.4266C72.5315 46.4076 72.736 46.5844 72.7568 46.824C72.7757 47.0617 72.5997 47.2709 72.3611 47.2918L69.0253 47.5657C69.014 47.5657 69.0007 47.5657 68.9894 47.5657Z" fill="#111827"/>
<path d="M61.2197 48.2046C60.9982 48.2046 60.8089 48.0335 60.79 47.8072C60.771 47.5695 60.9471 47.3603 61.1856 47.3394L64.5214 47.0655C64.76 47.0465 64.9682 47.2234 64.9871 47.463C65.0061 47.7007 64.83 47.9099 64.5915 47.9308L61.2557 48.2046C61.2443 48.2046 61.2311 48.2046 61.2197 48.2046Z" fill="#111827"/>
<path d="M66.5906 45.5214C66.3691 45.5214 66.1798 45.3503 66.1609 45.124L65.8882 41.7733C65.8693 41.5356 66.0454 41.3264 66.2839 41.3055C66.5243 41.2865 66.7288 41.4633 66.7496 41.7029L67.0222 45.0536C67.0412 45.2913 66.8651 45.5005 66.6266 45.5214C66.6152 45.5214 66.602 45.5214 66.5906 45.5214Z" fill="#111827"/>
<path d="M67.2268 53.3257C67.0034 53.3257 66.816 53.1546 66.7971 52.9283L66.5245 49.5776C66.5055 49.3399 66.6816 49.1307 66.9201 49.1098C67.1606 49.0908 67.3669 49.2676 67.3859 49.5072L67.6585 52.8579C67.6774 53.0956 67.5013 53.3048 67.2628 53.3257C67.2514 53.3257 67.2382 53.3257 67.2268 53.3257Z" fill="#111827"/>
<path d="M52.1021 67.9798C51.5588 67.9798 51.0155 67.879 50.4948 67.6755C49.3589 67.2324 48.4654 66.3615 47.9769 65.2243C46.9792 62.9024 48.0129 60.1792 50.2828 59.1561C51.3752 58.6636 52.5906 58.6313 53.7057 59.0668C54.8416 59.5099 55.7352 60.3808 56.2236 61.518C57.2213 63.8399 56.1876 66.563 53.9177 67.5861C53.3365 67.8485 52.7193 67.9798 52.1021 67.9798ZM52.1003 59.6278C51.6023 59.6278 51.1063 59.7343 50.6368 59.9453C48.7948 60.7763 47.958 62.9899 48.7701 64.8801C49.1658 65.8024 49.8909 66.5079 50.8091 66.8673C51.7084 67.2172 52.6871 67.1925 53.5656 66.795C55.4076 65.964 56.2444 63.7505 55.4322 61.8603C55.0366 60.938 54.3115 60.2325 53.3933 59.8731C52.973 59.7095 52.5357 59.6278 52.0984 59.6278H52.1003Z" fill="#111827"/>
<path d="M208.382 4.24825C208.244 4.24825 208.108 4.18169 208.024 4.05808C207.89 3.86031 207.943 3.59028 208.14 3.45717L210.911 1.57264C211.108 1.43762 211.377 1.49087 211.51 1.68864C211.644 1.88641 211.591 2.15644 211.394 2.28956L208.623 4.17408C208.549 4.22543 208.464 4.24825 208.38 4.24825H208.382Z" fill="#111827"/>
<path d="M201.926 8.63912C201.788 8.63912 201.652 8.57256 201.569 8.44895C201.434 8.25118 201.487 7.98115 201.684 7.84803L204.456 5.96351C204.653 5.82849 204.921 5.88174 205.054 6.07951C205.188 6.27728 205.135 6.54731 204.938 6.68043L202.167 8.56495C202.093 8.6163 202.008 8.63912 201.925 8.63912H201.926Z" fill="#111827"/>
<path d="M205.293 3.65114C205.154 3.65114 205.018 3.58458 204.935 3.46098L203.059 0.676977C202.924 0.479206 202.977 0.209173 203.174 0.0760585C203.371 -0.0589579 203.64 -0.00571197 203.772 0.192059L205.648 2.97606C205.783 3.17383 205.73 3.44386 205.533 3.57698C205.459 3.62832 205.374 3.65114 205.291 3.65114H205.293Z" fill="#111827"/>
<path d="M209.664 10.1338C209.526 10.1338 209.389 10.0672 209.306 9.94364L207.43 7.15964C207.295 6.96187 207.349 6.69184 207.545 6.55872C207.742 6.42371 208.011 6.47695 208.144 6.67472L210.02 9.45872C210.154 9.6565 210.101 9.92653 209.904 10.0596C209.83 10.111 209.745 10.1338 209.662 10.1338H209.664Z" fill="#111827"/>
<path d="M287.483 53.107C287.076 53.107 286.667 53.031 286.275 52.8769C285.423 52.5442 284.751 51.89 284.384 51.0362C283.636 49.2924 284.412 47.25 286.116 46.4817C286.936 46.1109 287.85 46.0881 288.689 46.4152C289.541 46.748 290.213 47.4021 290.58 48.256C291.328 49.9998 290.552 52.0421 288.848 52.8104C288.41 53.0082 287.947 53.107 287.483 53.107ZM287.483 47.0541C287.138 47.0541 286.796 47.1283 286.472 47.2728C285.196 47.849 284.617 49.3817 285.179 50.6939C285.453 51.3328 285.955 51.8215 286.589 52.0707C287.21 52.3122 287.888 52.295 288.496 52.0212C289.772 51.445 290.351 49.9123 289.789 48.6002C289.514 47.9612 289.013 47.4725 288.378 47.2234C288.089 47.1093 287.786 47.0541 287.483 47.0541Z" fill="#111827"/>
<path d="M313.66 101.401C313.531 101.401 313.406 101.344 313.321 101.236C313.173 101.047 313.207 100.775 313.395 100.627L316.028 98.5525C316.216 98.406 316.486 98.4384 316.634 98.6266C316.782 98.8149 316.748 99.0868 316.56 99.2352L313.927 101.31C313.847 101.373 313.755 101.403 313.66 101.403V101.401Z" fill="#111827"/>
<path d="M307.526 106.235C307.397 106.235 307.272 106.178 307.187 106.07C307.039 105.881 307.073 105.609 307.261 105.461L309.894 103.386C310.082 103.24 310.352 103.272 310.5 103.461C310.648 103.649 310.614 103.921 310.426 104.069L307.793 106.144C307.713 106.207 307.621 106.237 307.526 106.237V106.235Z" fill="#111827"/>
<path d="M310.536 101.023C310.407 101.023 310.282 100.966 310.197 100.857L308.132 98.2121C307.984 98.0238 308.018 97.7519 308.206 97.6036C308.393 97.4571 308.664 97.4895 308.811 97.6777L310.877 100.323C311.025 100.511 310.99 100.783 310.803 100.931C310.724 100.994 310.631 101.025 310.536 101.025V101.023Z" fill="#111827"/>
<path d="M315.349 107.184C315.22 107.184 315.095 107.127 315.01 107.019L312.944 104.373C312.797 104.185 312.831 103.913 313.018 103.765C313.206 103.617 313.476 103.651 313.624 103.839L315.689 106.484C315.837 106.672 315.803 106.944 315.616 107.093C315.536 107.156 315.443 107.186 315.349 107.186V107.184Z" fill="#111827"/>
<path d="M113.345 84.2388C113.14 84.2388 112.957 84.0905 112.921 83.8813C112.631 82.2402 112.394 80.4964 112.216 78.6955C112.194 78.4578 112.366 78.2448 112.602 78.222C112.843 78.1973 113.051 78.3723 113.074 78.61C113.25 80.388 113.483 82.1109 113.769 83.7292C113.81 83.965 113.653 84.1894 113.418 84.2312C113.394 84.235 113.367 84.2388 113.343 84.2388H113.345ZM112.313 73.8977C112.08 73.8977 111.889 73.7113 111.881 73.4774C111.858 72.7035 111.845 71.9162 111.845 71.1403C111.845 70.18 111.864 69.2064 111.9 68.2498C111.91 68.0102 112.112 67.8239 112.347 67.8334C112.585 67.8429 112.771 68.0445 112.762 68.2822C112.726 69.2292 112.707 70.1914 112.707 71.1403C112.707 71.9086 112.718 72.6864 112.741 73.4527C112.748 73.6923 112.561 73.892 112.322 73.8996C112.319 73.8996 112.313 73.8996 112.309 73.8996L112.313 73.8977ZM112.714 63.5128C112.699 63.5128 112.682 63.5129 112.667 63.511C112.43 63.4843 112.26 63.2713 112.286 63.0317C112.478 61.286 112.737 59.5441 113.053 57.8574C113.097 57.6216 113.322 57.4675 113.557 57.5113C113.791 57.555 113.945 57.7832 113.901 58.0171C113.589 59.6829 113.333 61.402 113.144 63.1268C113.119 63.3493 112.932 63.5128 112.716 63.5128H112.714ZM114.64 53.3049C114.602 53.3049 114.564 53.2991 114.526 53.2896C114.297 53.2269 114.161 52.9873 114.225 52.7572C114.689 51.0628 115.225 49.3875 115.821 47.773C115.904 47.5486 116.152 47.4345 116.376 47.5182C116.599 47.6018 116.713 47.851 116.629 48.0753C116.042 49.6651 115.514 51.3195 115.056 52.9892C115.003 53.1812 114.829 53.3087 114.64 53.3087V53.3049Z" fill="#111827"/>
<path d="M141.809 10.246C141.65 10.246 141.498 10.1585 141.422 10.0064C141.316 9.79151 141.402 9.53288 141.615 9.42449C142.753 8.854 143.935 8.30823 145.127 7.80429C145.347 7.71111 145.601 7.8157 145.693 8.03629C145.786 8.25688 145.682 8.5117 145.462 8.60298C144.287 9.10121 143.121 9.63747 142 10.2004C141.937 10.2308 141.873 10.246 141.807 10.246H141.809ZM150.144 6.81924C149.962 6.81924 149.794 6.70325 149.733 6.52069C149.66 6.29249 149.783 6.04908 150.008 5.97302C151.613 5.44246 153.296 4.95564 155.012 4.52206C155.243 4.46311 155.477 4.60574 155.534 4.83774C155.593 5.06974 155.453 5.30554 155.22 5.36259C153.525 5.79046 151.861 6.27157 150.277 6.79452C150.231 6.80974 150.186 6.81544 150.142 6.81544L150.144 6.81924ZM160.174 4.27105C159.97 4.27105 159.79 4.12652 159.75 3.91734C159.707 3.68154 159.86 3.45525 160.095 3.41151C161.715 3.10725 163.393 2.83341 165.225 2.57859C165.458 2.54626 165.68 2.7117 165.712 2.94751C165.744 3.18521 165.579 3.4039 165.345 3.43623C163.525 3.69105 161.861 3.96108 160.254 4.26344C160.227 4.26915 160.201 4.27105 160.174 4.27105ZM170.424 2.80298C170.208 2.80298 170.021 2.63944 169.996 2.41885C169.97 2.18115 170.14 1.96626 170.377 1.93964C172.088 1.74567 173.828 1.58023 175.545 1.44902C175.785 1.43 175.99 1.60875 176.009 1.84836C176.028 2.08606 175.85 2.29525 175.611 2.31426C173.904 2.44547 172.175 2.61092 170.473 2.80298C170.456 2.80298 170.441 2.80488 170.424 2.80488V2.80298ZM196.268 2.16974C196.268 2.16974 196.249 2.16974 196.241 2.16974C194.528 2.06325 192.794 1.98338 191.084 1.93584C190.846 1.93013 190.658 1.73046 190.666 1.49085C190.671 1.25125 190.865 1.06108 191.109 1.07059C192.828 1.11813 194.573 1.198 196.294 1.30639C196.533 1.32161 196.713 1.52698 196.697 1.76659C196.682 1.99669 196.493 2.17354 196.268 2.17354V2.16974ZM180.744 2.0062C180.513 2.0062 180.323 1.82364 180.312 1.59164C180.303 1.35203 180.486 1.15046 180.725 1.14095C182.444 1.06869 184.189 1.02685 185.914 1.01544H185.918C186.154 1.01544 186.347 1.20751 186.349 1.44521C186.349 1.68482 186.16 1.88069 185.921 1.88069C184.206 1.8921 182.47 1.93393 180.761 2.0062C180.755 2.0062 180.749 2.0062 180.742 2.0062H180.744Z" fill="#111827"/>
<path d="M278.157 38.55C278.04 38.55 277.924 38.5025 277.839 38.4093C276.902 37.3786 275.681 36.1444 274.206 34.7448C274.034 34.5813 274.026 34.3056 274.189 34.1325C274.354 33.9595 274.626 33.9518 274.799 34.1154C276.288 35.5302 277.525 36.7777 278.475 37.8255C278.636 38.0023 278.623 38.2762 278.447 38.4378C278.363 38.5139 278.259 38.5519 278.157 38.5519V38.55ZM270.679 31.3523C270.577 31.3523 270.475 31.3162 270.393 31.242C268.877 29.888 267.444 28.6425 266.497 27.8229C266.317 27.6669 266.296 27.3931 266.452 27.2124C266.607 27.0318 266.879 27.0109 267.059 27.1668C268.008 27.9883 269.445 29.2358 270.967 30.5955C271.145 30.7552 271.16 31.029 271.003 31.2078C270.918 31.3048 270.8 31.3523 270.681 31.3523H270.679ZM262.711 24.7118C262.627 24.7118 262.542 24.6871 262.468 24.6357C261.194 23.7648 259.725 22.8444 258.101 21.9012C257.894 21.7814 257.824 21.517 257.944 21.3098C258.063 21.1025 258.326 21.0321 258.532 21.1519C260.174 22.1065 261.662 23.0383 262.953 23.9207C263.15 24.0557 263.201 24.3258 263.067 24.5235C262.983 24.6471 262.847 24.7137 262.709 24.7137L262.711 24.7118ZM253.769 19.4728C253.703 19.4728 253.635 19.4576 253.572 19.4252C252.079 18.6551 250.517 17.8906 248.932 17.1566C248.716 17.0558 248.622 16.7991 248.722 16.5823C248.822 16.3655 249.078 16.2704 249.294 16.3712C250.89 17.1109 252.461 17.8792 253.966 18.657C254.178 18.7654 254.261 19.0278 254.153 19.2408C254.078 19.391 253.926 19.4766 253.769 19.4766V19.4728ZM244.371 15.1085C244.316 15.1085 244.26 15.0971 244.207 15.0743C242.635 14.4182 241.019 13.7774 239.404 13.1726C239.18 13.089 239.067 12.8399 239.15 12.6155C239.233 12.3911 239.481 12.277 239.705 12.3606C241.329 12.9692 242.953 13.6138 244.536 14.2737C244.756 14.365 244.86 14.6198 244.769 14.8404C244.701 15.0077 244.54 15.1066 244.37 15.1066L244.371 15.1085ZM234.673 11.4688C234.627 11.4688 234.582 11.4612 234.536 11.446C232.912 10.9021 231.255 10.381 229.61 9.89421C229.381 9.82575 229.251 9.58615 229.319 9.35605C229.387 9.12595 229.627 8.99474 229.855 9.0632C231.509 9.55192 233.175 10.0768 234.809 10.6244C235.034 10.7005 235.157 10.9458 235.082 11.1721C235.021 11.3528 234.852 11.4688 234.673 11.4688ZM224.741 8.53264C224.705 8.53264 224.669 8.52884 224.633 8.51933C223.91 8.33297 223.181 8.15231 222.443 7.97356C222.212 7.91841 222.068 7.68451 222.123 7.45061C222.178 7.21861 222.412 7.07408 222.643 7.12923C223.386 7.30798 224.12 7.49054 224.847 7.6769C225.078 7.73585 225.216 7.97166 225.158 8.20366C225.108 8.39952 224.932 8.52884 224.739 8.52884L224.741 8.53264Z" fill="#111827"/>
<path d="M309.277 89.1754C309.099 89.1754 308.931 89.0632 308.87 88.8845C308.416 87.5724 307.797 85.8875 307.077 84.0144C306.992 83.7919 307.102 83.5409 307.325 83.4534C307.547 83.3678 307.797 83.4781 307.884 83.7025C308.607 85.5851 309.23 87.2795 309.686 88.6011C309.764 88.8274 309.644 89.0747 309.419 89.1526C309.372 89.1697 309.324 89.1773 309.277 89.1773V89.1754ZM305.57 79.4505C305.4 79.4505 305.239 79.3478 305.171 79.1804C304.512 77.5507 303.842 75.9381 303.179 74.3826C303.085 74.162 303.187 73.9072 303.406 73.814C303.626 73.7189 303.88 73.8216 303.972 74.0422C304.637 75.6015 305.307 77.2217 305.97 78.8552C306.059 79.0777 305.953 79.3307 305.733 79.42C305.68 79.441 305.625 79.4524 305.57 79.4524V79.4505ZM301.49 69.8795C301.326 69.8795 301.171 69.7844 301.097 69.6247C300.317 67.898 299.573 66.3196 298.887 64.9333C298.781 64.7185 298.868 64.4579 299.082 64.3533C299.294 64.2469 299.554 64.3343 299.66 64.5492C300.351 65.945 301.099 67.5329 301.882 69.2691C301.981 69.4878 301.884 69.7445 301.668 69.8434C301.612 69.87 301.549 69.8814 301.49 69.8814V69.8795ZM296.807 60.5957C296.661 60.5957 296.519 60.5215 296.439 60.3884C296.354 60.2496 296.273 60.1165 296.19 59.9872C296.061 59.7856 296.121 59.5175 296.322 59.3882C296.523 59.2589 296.79 59.3197 296.918 59.5213C297.004 59.6544 297.089 59.7932 297.176 59.9358C297.301 60.1393 297.236 60.4074 297.034 60.531C296.964 60.5748 296.886 60.5957 296.809 60.5957H296.807Z" fill="#111827"/>
<path d="M236.064 228.339C235.858 228.339 235.676 228.191 235.64 227.98C235.6 227.744 235.757 227.52 235.992 227.48C236.458 227.398 238.192 227.067 240.967 226.194C241.195 226.124 241.437 226.249 241.509 226.478C241.581 226.706 241.454 226.949 241.225 227.022C238.398 227.91 236.617 228.25 236.138 228.334C236.113 228.337 236.089 228.339 236.064 228.339ZM245.982 225.299C245.81 225.299 245.647 225.194 245.581 225.025C245.494 224.802 245.602 224.551 245.823 224.462C247.391 223.84 248.983 223.148 250.556 222.406C250.772 222.304 251.03 222.397 251.13 222.614C251.232 222.83 251.14 223.089 250.924 223.19C249.335 223.939 247.726 224.639 246.142 225.266C246.09 225.287 246.035 225.297 245.982 225.297V225.299ZM255.363 220.881C255.21 220.881 255.062 220.799 254.985 220.655C254.871 220.444 254.949 220.181 255.157 220.067C256.652 219.25 258.152 218.375 259.613 217.464C259.816 217.338 260.081 217.401 260.208 217.605C260.333 217.808 260.27 218.074 260.068 218.202C258.591 219.12 257.078 220.004 255.568 220.83C255.503 220.866 255.431 220.883 255.361 220.883L255.363 220.881ZM264.165 215.404C264.028 215.404 263.894 215.34 263.811 215.22C263.674 215.024 263.722 214.754 263.917 214.617C265.314 213.636 266.707 212.599 268.059 211.536C268.246 211.388 268.517 211.422 268.665 211.611C268.812 211.799 268.778 212.071 268.591 212.219C267.228 213.292 265.823 214.338 264.411 215.328C264.335 215.382 264.25 215.406 264.165 215.406V215.404ZM272.313 208.996C272.192 208.996 272.072 208.946 271.987 208.848C271.83 208.667 271.849 208.393 272.029 208.235C273.312 207.109 274.588 205.93 275.821 204.73C275.991 204.563 276.266 204.569 276.43 204.74C276.597 204.911 276.591 205.187 276.421 205.352C275.177 206.564 273.892 207.752 272.597 208.887C272.515 208.96 272.413 208.994 272.313 208.994V208.996ZM279.742 201.762C279.636 201.762 279.531 201.724 279.448 201.646C279.274 201.482 279.265 201.209 279.425 201.034C280.586 199.781 281.735 198.476 282.839 197.158C282.992 196.976 283.265 196.951 283.447 197.105C283.628 197.259 283.653 197.533 283.5 197.715C282.386 199.045 281.228 200.361 280.058 201.625C279.973 201.716 279.857 201.764 279.742 201.764V201.762ZM286.4 193.811C286.309 193.811 286.218 193.783 286.139 193.722C285.949 193.577 285.911 193.305 286.057 193.115C287.089 191.754 288.104 190.343 289.077 188.922C289.211 188.724 289.48 188.675 289.677 188.81C289.874 188.945 289.923 189.215 289.789 189.413C288.808 190.845 287.784 192.267 286.744 193.638C286.659 193.75 286.531 193.809 286.4 193.809V193.811ZM292.265 185.256C292.187 185.256 292.108 185.235 292.038 185.191C291.835 185.066 291.773 184.798 291.9 184.594C292.797 183.145 293.681 181.646 294.524 180.14C294.641 179.931 294.904 179.857 295.11 179.975C295.319 180.093 295.393 180.357 295.275 180.564C294.425 182.082 293.535 183.592 292.63 185.052C292.549 185.184 292.407 185.258 292.263 185.258L292.265 185.256ZM297.337 176.202C297.271 176.202 297.204 176.187 297.142 176.155C296.93 176.046 296.845 175.786 296.953 175.573C297.721 174.051 298.475 172.481 299.19 170.908C299.289 170.691 299.544 170.594 299.762 170.695C299.978 170.794 300.074 171.051 299.976 171.269C299.255 172.853 298.497 174.434 297.723 175.966C297.647 176.117 297.496 176.204 297.339 176.204L297.337 176.202ZM301.638 166.755C301.583 166.755 301.528 166.745 301.475 166.722C301.256 166.631 301.15 166.378 301.241 166.158C301.884 164.579 302.513 162.955 303.107 161.329C303.191 161.105 303.439 160.989 303.662 161.073C303.885 161.154 304.001 161.404 303.917 161.628C303.319 163.263 302.687 164.899 302.039 166.487C301.971 166.654 301.81 166.755 301.64 166.755H301.638ZM305.207 157.003C305.163 157.003 305.118 156.996 305.072 156.982C304.845 156.908 304.722 156.663 304.796 156.436C305.324 154.814 305.835 153.149 306.314 151.486C306.381 151.256 306.621 151.125 306.848 151.192C307.077 151.258 307.208 151.498 307.142 151.728C306.659 153.401 306.146 155.075 305.614 156.707C305.555 156.889 305.385 157.005 305.203 157.005L305.207 157.003ZM308.088 147.025C308.052 147.025 308.018 147.021 307.982 147.012C307.751 146.953 307.611 146.717 307.67 146.485C308.09 144.831 308.491 143.134 308.866 141.444C308.917 141.21 309.146 141.062 309.381 141.115C309.614 141.166 309.76 141.398 309.709 141.632C309.332 143.332 308.927 145.036 308.507 146.7C308.457 146.896 308.281 147.027 308.088 147.027V147.025ZM310.337 136.884C310.311 136.884 310.282 136.882 310.256 136.876C310.021 136.831 309.87 136.604 309.913 136.368C310.233 134.689 310.536 132.972 310.814 131.264C310.852 131.029 311.076 130.869 311.308 130.907C311.543 130.945 311.704 131.167 311.664 131.405C311.386 133.12 311.081 134.845 310.759 136.534C310.72 136.741 310.54 136.886 310.335 136.886L310.337 136.884ZM312.005 126.628C311.986 126.628 311.967 126.628 311.946 126.624C311.71 126.592 311.545 126.373 311.577 126.136C311.806 124.443 312.018 122.711 312.208 120.988C312.234 120.75 312.45 120.579 312.685 120.606C312.921 120.632 313.092 120.845 313.067 121.085C312.876 122.815 312.664 124.555 312.433 126.256C312.405 126.472 312.219 126.63 312.005 126.63V126.628ZM313.145 116.295C313.132 116.295 313.12 116.295 313.107 116.295C312.87 116.274 312.694 116.065 312.715 115.825C312.743 115.492 312.772 115.159 312.798 114.825C312.817 114.587 313.029 114.408 313.264 114.427C313.503 114.446 313.679 114.656 313.66 114.895C313.633 115.232 313.605 115.566 313.576 115.899C313.558 116.126 313.368 116.295 313.147 116.295H313.145Z" fill="#111827"/>
<path d="M133.473 50.9316C142.771 50.9316 150.309 43.3602 150.309 34.0203C150.309 24.6805 142.771 17.1091 133.473 17.1091C124.175 17.1091 116.637 24.6805 116.637 34.0203C116.637 43.3602 124.175 50.9316 133.473 50.9316Z" fill="white"/>
<path d="M133.473 51.3652C123.952 51.3652 116.205 43.5837 116.205 34.0203C116.205 24.457 123.952 16.6755 133.473 16.6755C142.994 16.6755 150.741 24.457 150.741 34.0203C150.741 43.5837 142.994 51.3652 133.473 51.3652ZM133.473 17.5407C124.427 17.5407 117.068 24.9324 117.068 34.0184C117.068 43.1045 124.427 50.4961 133.473 50.4961C142.518 50.4961 149.877 43.1045 149.877 34.0184C149.877 24.9324 142.518 17.5407 133.473 17.5407Z" fill="#111827"/>
<path d="M133.566 42.5264C133.399 42.6291 133.189 42.6348 133.018 42.5397C131.534 41.7068 124.651 37.5403 124.921 32.0921C125.205 26.3339 131.428 27.3323 132.964 30.1657C133.022 30.2722 133.136 30.3369 133.257 30.3312C133.378 30.3255 133.486 30.2494 133.533 30.1353C134.287 28.3154 136.722 26.9957 139.014 27.8609C141.748 28.8916 144.525 35.7033 133.566 42.5264Z" fill="#4F46E5"/>
<path d="M200.985 287.138L203.295 305.209L209.736 305.253L210.925 285.432L200.985 287.138Z" fill="white"/>
<path d="M209.736 305.687H209.732L203.291 305.643C203.076 305.643 202.894 305.479 202.867 305.264L200.558 287.193C200.527 286.963 200.684 286.75 200.913 286.71L210.853 285.004C210.981 284.982 211.116 285.021 211.212 285.109C211.311 285.196 211.364 285.326 211.354 285.457L210.165 305.278C210.152 305.506 209.963 305.685 209.736 305.685V305.687ZM203.674 304.778L209.329 304.818L210.461 285.951L201.464 287.494L203.674 304.778Z" fill="#111827"/>
<path d="M165.428 296.758L165.865 311.296L174.354 311.133L175.838 295.701L165.428 296.758Z" fill="white"/>
<path d="M165.865 311.73C165.632 311.73 165.441 311.544 165.433 311.31L164.996 296.774C164.989 296.545 165.159 296.351 165.384 296.329L175.793 295.271C175.922 295.258 176.048 295.304 176.141 295.395C176.232 295.486 176.279 295.614 176.266 295.743L174.784 311.173C174.763 311.392 174.581 311.561 174.362 311.565L165.873 311.728C165.873 311.728 165.867 311.728 165.865 311.728V311.73ZM165.873 297.15L166.283 310.855L173.962 310.707L175.357 296.186L165.871 297.15H165.873Z" fill="#111827"/>
<path d="M177.232 317.121C177.777 316.672 178.065 315.978 178.014 315.271C177.855 313.149 177.408 308.636 176.387 307.027C175.032 304.894 170.693 308.501 170.693 308.501C170.693 308.501 167.586 304.985 165.911 304.35C165.043 304.021 160.538 307.742 156.11 312.641C151.257 318.009 149.003 319.795 148.272 324.072C147.929 326.08 149.553 327.898 151.581 327.839C156.518 327.692 166.354 326.099 177.234 317.121H177.232Z" fill="white"/>
<path d="M151.483 328.274C150.411 328.274 149.396 327.81 148.686 326.989C147.969 326.158 147.662 325.068 147.846 323.999C148.484 320.27 150.222 318.39 153.686 314.645C154.326 313.953 155.027 313.196 155.79 312.352C158.991 308.809 164.604 303.393 166.062 303.947C167.535 304.506 169.93 307.027 170.74 307.912C171.594 307.254 173.826 305.692 175.456 305.949C176.014 306.037 176.45 306.322 176.751 306.795C177.8 308.448 178.262 312.795 178.443 315.24C178.508 316.092 178.156 316.92 177.506 317.458C166.516 326.529 156.554 328.128 151.594 328.274C151.558 328.274 151.52 328.274 151.484 328.274H151.483ZM165.742 304.755C164.992 304.755 160.907 307.976 156.428 312.934C155.661 313.782 154.958 314.541 154.317 315.235C150.97 318.854 149.288 320.672 148.694 324.148C148.556 324.96 148.789 325.789 149.338 326.422C149.902 327.074 150.708 327.436 151.566 327.409C156.416 327.266 166.164 325.696 176.957 316.788C177.391 316.431 177.624 315.876 177.582 315.307C177.44 313.403 177.005 308.813 176.022 307.263C175.855 307.001 175.632 306.856 175.322 306.807C174.002 306.598 171.73 308.203 170.967 308.838C170.787 308.986 170.524 308.965 170.369 308.792C169.525 307.835 167.048 305.247 165.757 304.759C165.753 304.759 165.748 304.759 165.742 304.759V304.755Z" fill="#111827"/>
<path d="M152.45 324.492C151.67 324.492 151.227 324.45 151.204 324.448C150.968 324.423 150.795 324.21 150.82 323.973C150.845 323.735 151.053 323.562 151.293 323.585C151.414 323.596 163.449 324.697 174.646 314.586C174.824 314.427 175.096 314.442 175.255 314.619C175.414 314.797 175.399 315.071 175.223 315.231C165.857 323.689 155.888 324.49 152.452 324.49L152.45 324.492Z" fill="#111827"/>
<path d="M200.736 309.92L199.831 299.989C199.831 299.989 201.508 296.779 204.469 298.949C204.469 298.949 205.964 296.317 209.418 297.715C210.72 298.244 211.805 299.2 212.581 300.377C214.703 303.591 220.254 312.118 223.158 317.711C224.131 319.586 223.622 322.885 220.82 323.286C216.752 323.87 213.957 322.741 212.148 321.761C209.317 320.23 204.211 315.022 201.977 312.666C201.266 311.916 200.83 310.95 200.736 309.92Z" fill="white"/>
<path d="M218.626 323.883C215.57 323.883 213.399 322.933 211.943 322.145C209.139 320.63 204.3 315.744 201.665 312.966C200.891 312.15 200.41 311.083 200.306 309.96L199.401 300.029C199.393 299.946 199.41 299.862 199.448 299.788C199.482 299.723 200.296 298.196 201.832 297.837C202.649 297.645 203.503 297.819 204.369 298.358C204.986 297.616 206.669 296.133 209.579 297.314C210.915 297.856 212.078 298.831 212.941 300.138C215.163 303.503 220.646 311.933 223.541 317.511C224.209 318.796 224.215 320.527 223.558 321.816C223.177 322.564 222.403 323.499 220.883 323.718C220.082 323.832 219.33 323.883 218.626 323.883ZM201.165 309.882C201.25 310.811 201.65 311.694 202.29 312.369C204.384 314.575 209.554 319.869 212.352 321.383C214.037 322.294 216.74 323.438 220.76 322.86C221.914 322.695 222.499 321.986 222.789 321.421C223.317 320.388 223.312 318.945 222.776 317.912C219.9 312.373 214.436 303.971 212.221 300.619C211.457 299.459 210.43 298.595 209.257 298.118C206.19 296.874 204.899 299.071 204.844 299.164C204.783 299.27 204.679 299.347 204.56 299.373C204.439 299.4 204.314 299.373 204.215 299.299C203.441 298.732 202.706 298.523 202.032 298.679C201.08 298.9 200.461 299.784 200.274 300.088L201.167 309.88L201.165 309.882Z" fill="#111827"/>
<path d="M217.596 320.223C215.29 320.223 212.858 319.015 211.606 318.291C209.389 317.007 205.876 313.455 203.318 310.701C203.155 310.526 203.165 310.252 203.339 310.089C203.513 309.925 203.785 309.935 203.948 310.11C206.464 312.82 209.912 316.309 212.036 317.54C213.426 318.344 218.141 320.767 220.519 318.169C220.68 317.992 220.953 317.981 221.129 318.144C221.305 318.306 221.316 318.58 221.154 318.757C220.165 319.837 218.899 320.223 217.594 320.223H217.596Z" fill="#111827"/>
<path d="M205.005 304.732C204.785 304.732 204.598 304.565 204.575 304.342L204.039 298.993C204.015 298.755 204.189 298.542 204.425 298.517C204.666 298.495 204.874 298.668 204.899 298.905L205.434 304.255C205.459 304.492 205.285 304.705 205.048 304.73C205.033 304.73 205.02 304.732 205.005 304.732Z" fill="#111827"/>
<path d="M166.323 298.255C164.387 298.183 162.77 296.743 162.478 294.819C161.062 285.463 156.994 255.936 157.526 228.478C158.169 195.306 168.122 147.02 168.122 147.02C168.122 147.02 183.826 144.698 195.467 145.082C207.106 145.466 213.185 138.289 213.185 138.289C213.185 138.289 221.057 152.399 222.223 171.007C223.336 188.764 213.596 285.234 213.596 285.234C213.596 285.234 213.231 288.8 210.79 289.603C208.696 290.293 205.771 291.287 202.214 291.464C200.213 291.563 198.502 290.029 198.369 288.02L191.595 185.642C191.595 185.642 186.306 208.094 184.295 223.313C183.385 230.207 181.692 235.843 180.367 239.494C179.182 242.759 178.716 246.241 178.958 249.708C179.585 258.697 180.34 276.964 177.838 293.78C177.605 295.351 176.49 296.642 174.971 297.087C172.893 297.694 169.722 298.382 166.323 298.255Z" fill="#111827"/>
<path d="M204.687 240.403C203.687 240.403 203.013 240.306 202.933 240.295C202.699 240.259 202.536 240.038 202.572 239.802C202.608 239.567 202.827 239.403 203.062 239.437C203.115 239.445 208.477 240.206 211.792 237.169C211.968 237.007 212.24 237.02 212.401 237.197C212.562 237.374 212.549 237.648 212.373 237.81C209.961 240.017 206.678 240.403 204.687 240.403Z" fill="white"/>
<path d="M170.732 45.974C166.355 46.36 162.427 51.4564 164.439 58.0665C166.085 63.4672 171.851 63.8418 175.013 66.1808C185.242 73.7455 183.157 83.4192 188.312 93.8497C196.002 109.407 236.02 107.578 243.481 92.5014C250.577 78.1669 248.733 59.6316 236.681 53.3505C225.848 47.7045 221.534 58.3366 210.209 53.3143C199.045 48.3644 200.065 40.7388 193.433 39.1414C184.363 36.9564 183.14 44.8825 170.732 45.974Z" fill="#111827"/>
<path d="M171.705 88.5878C171.705 88.5878 165.537 94.5666 159.26 100.948C155.473 104.797 151.662 109.734 150.119 113.007C147.656 118.232 153.277 128.214 160.377 128.073C167.063 127.942 170.477 125.683 170.477 125.683C170.477 125.683 165.411 122.68 163.447 119.792C161.484 116.905 181.736 102.495 181.736 102.495L171.704 88.5859L171.705 88.5878Z" fill="white"/>
<path d="M160.235 128.509C156.944 128.509 153.637 126.415 151.359 122.88C149.125 119.411 148.486 115.464 149.731 112.822C151.246 109.607 154.953 104.714 158.955 100.644C165.163 94.3308 171.346 88.3349 171.408 88.2759C171.497 88.1885 171.62 88.1447 171.745 88.1561C171.87 88.1676 171.984 88.2322 172.056 88.333L182.088 102.242C182.156 102.335 182.182 102.453 182.163 102.567C182.144 102.681 182.082 102.784 181.987 102.85C181.936 102.886 176.878 106.492 172.128 110.4C163.25 117.702 163.637 119.303 163.805 119.548C165.691 122.323 170.647 125.28 170.696 125.31C170.825 125.386 170.905 125.523 170.908 125.674C170.912 125.824 170.838 125.965 170.715 126.046C170.571 126.141 167.122 128.376 160.386 128.509C160.335 128.509 160.284 128.509 160.233 128.509H160.235ZM171.649 89.2458C170.244 90.6131 164.915 95.814 159.568 101.253C155.689 105.197 151.965 110.107 150.511 113.193C149.392 115.57 150.01 119.187 152.085 122.41C154.233 125.746 157.332 127.703 160.371 127.642C165.252 127.545 168.372 126.284 169.621 125.662C168.177 124.746 164.687 122.382 163.093 120.037C162.417 119.044 162.773 116.975 171.584 109.726C175.63 106.397 179.897 103.289 181.133 102.398L171.647 89.2458H171.649Z" fill="#111827"/>
<path d="M236.147 101.18C234.837 97.9306 233.145 94.1463 231.748 91.7198C227.444 84.2483 224.567 79.4067 215.023 76.6322C213.594 76.2176 212.132 75.9514 210.663 75.7917L205.145 75.1965C205.145 75.1965 184.761 74.0954 172.338 85.258L163.601 94.462C163.601 94.462 178.377 101.106 178.492 109.755C178.61 118.466 174.992 127.003 171.904 131.105C169.95 133.698 165.403 146.778 165.403 146.778C165.403 146.778 164.275 149.362 181.898 151.167C197.886 154.141 209.891 149.566 221.839 157.633C223.064 158.46 224.659 157.332 224.277 155.9C223.291 152.194 221.911 146.017 220.334 136.127C219.383 130.163 219.022 120.883 218.251 111.946C217.842 107.205 221.515 103.183 225.968 102.574L236.151 101.182L236.147 101.18Z" fill="white"/>
<path d="M222.734 158.344C222.338 158.344 221.943 158.226 221.594 157.992C214.205 153.002 206.835 152.92 198.301 152.825C193.142 152.768 187.807 152.709 181.815 151.593C171.9 150.579 166.111 149.128 165.108 147.4C164.869 146.989 164.968 146.687 165.004 146.605C165.178 146.099 169.585 133.465 171.556 130.846C174.767 126.581 178.171 118.164 178.057 109.764C177.945 101.49 163.565 94.9279 163.421 94.8613C163.292 94.8043 163.201 94.6883 163.173 94.5495C163.146 94.4106 163.188 94.268 163.285 94.1672L172.022 84.9633C184.46 73.7854 204.959 74.7553 205.165 74.7667L210.709 75.3638C212.308 75.5369 213.759 75.8164 215.142 76.2176C224.959 79.072 227.961 84.2863 232.119 91.5049C233.349 93.6424 235.004 97.1984 236.545 101.021C236.594 101.144 236.585 101.285 236.518 101.401C236.452 101.517 236.335 101.595 236.204 101.614L226.021 103.006C221.6 103.611 218.306 107.604 218.677 111.91C218.944 115.005 219.162 118.135 219.372 121.163C219.766 126.828 220.137 132.179 220.756 136.06C222.382 146.261 223.792 152.42 224.69 155.79C224.909 156.615 224.605 157.467 223.914 157.963C223.558 158.218 223.145 158.348 222.732 158.348L222.734 158.344ZM165.82 146.884C165.871 147.075 166.795 149.185 181.94 150.735C187.894 151.842 193.189 151.901 198.312 151.958C206.983 152.055 214.472 152.139 222.077 157.273C222.575 157.61 223.096 157.484 223.414 157.256C223.728 157.03 224.01 156.585 223.857 156.012C222.956 152.622 221.538 146.432 219.904 136.195C219.279 132.276 218.906 126.906 218.51 121.22C218.3 118.196 218.083 115.07 217.818 111.982C217.407 107.222 221.034 102.81 225.905 102.145L235.538 100.829C234.072 97.2403 232.529 93.9466 231.373 91.9385C227.166 84.6343 224.385 79.8079 214.902 77.0506C213.567 76.6626 212.166 76.3926 210.616 76.2253L205.095 75.63C204.917 75.6205 184.766 74.6716 172.622 85.5851L164.324 94.3289C167.071 95.6562 178.814 101.793 178.92 109.753C179.036 118.358 175.541 126.99 172.245 131.369C170.403 133.815 166.085 146.128 165.82 146.888V146.884ZM165.814 146.902C165.81 146.913 165.808 146.919 165.806 146.921C165.81 146.915 165.812 146.907 165.814 146.902Z" fill="#111827"/>
<path d="M170.471 93.3419C170.471 93.3419 175.471 101.741 183.892 113.094C192.313 124.449 191.364 128.52 186.857 132.934C182.349 137.348 166.238 131.854 152.813 110.765C139.389 89.6755 152.085 83.6492 156.418 83.0844C164.57 82.0233 170.471 93.3419 170.471 93.3419Z" fill="white"/>
<path d="M182.627 134.786C182.177 134.786 181.703 134.758 181.211 134.701C174.403 133.913 162.785 127.233 152.45 110.999C146.664 101.909 144.997 94.5742 147.494 89.1944C149.595 84.6704 154.057 82.9551 156.363 82.6547C164.659 81.5726 170.526 92.5147 170.848 93.1289C171.05 93.4674 176.058 101.806 184.238 112.836C192.689 124.23 191.853 128.648 187.159 133.244C186.12 134.261 184.57 134.784 182.629 134.784L182.627 134.786ZM157.491 83.4496C157.156 83.4496 156.818 83.4705 156.475 83.5161C154.491 83.7747 150.224 85.3702 148.277 89.5633C145.947 94.5837 147.641 101.835 153.179 110.533C163.351 126.512 174.691 133.075 181.311 133.841C183.621 134.107 185.484 133.676 186.557 132.626C190.986 128.29 191.665 124.301 183.547 113.357C175.21 102.114 170.153 93.6519 170.102 93.5663C170.098 93.5587 170.094 93.553 170.091 93.5454C170.036 93.4389 164.735 83.4515 157.491 83.4515V83.4496Z" fill="#111827"/>
<path d="M160.907 90.1091C160.907 90.1091 164.905 93.9733 165.206 97.9306C165.507 101.888 161.354 103.959 155.742 100.456C150.131 96.9531 151.28 92.6649 153.122 90.6853C157.1 86.4104 160.907 90.1072 160.907 90.1072V90.1091Z" fill="white"/>
<path d="M161.068 102.673C159.404 102.673 157.471 102.046 155.515 100.823C152.321 98.83 151.42 96.6622 151.227 95.1941C151.004 93.4902 151.594 91.6951 152.808 90.3887C154.129 88.97 155.579 88.2303 157.118 88.1904C159.462 88.1352 161.138 89.7269 161.208 89.7953C161.386 89.9665 165.327 93.8249 165.638 97.8963C165.772 99.6706 165.074 101.163 163.718 101.989C162.967 102.447 162.065 102.673 161.068 102.673ZM157.245 89.0575C157.207 89.0575 157.17 89.0575 157.132 89.0575C155.835 89.0936 154.591 89.7402 153.438 90.9801C152.399 92.0982 151.891 93.631 152.083 95.08C152.325 96.9189 153.669 98.6513 155.971 100.087C158.819 101.865 161.549 102.299 163.271 101.247C164.354 100.587 164.888 99.4195 164.778 97.961C164.492 94.211 160.649 90.4552 160.609 90.4172C160.585 90.3944 159.163 89.0537 157.247 89.0537L157.245 89.0575Z" fill="#111827"/>
<path d="M159.938 118.647L159.951 118.668C160.966 120.172 163.008 120.552 164.492 119.512C165.979 118.472 166.16 118.305 167.38 117.012L168.788 115.519C169.841 114.404 171.942 114.188 172.597 115.429C173.515 117.173 175.145 119.779 167.16 127.568C162.512 132.101 157.781 125.054 157.302 121.1C157.179 120.089 157.507 119.305 157.923 118.738C158.421 118.059 159.491 118.012 159.938 118.649V118.647Z" fill="white"/>
<path d="M164.004 129.467C163.459 129.467 162.968 129.359 162.554 129.211C159.39 128.089 157.187 123.732 156.874 121.15C156.757 120.172 156.994 119.275 157.577 118.478C157.91 118.023 158.438 117.755 159.031 117.763C159.553 117.768 160.013 117.999 160.291 118.396C160.291 118.398 160.295 118.4 160.295 118.402L160.309 118.423C160.735 119.054 161.378 119.476 162.124 119.615C162.87 119.754 163.623 119.59 164.244 119.155C165.723 118.118 165.874 117.972 167.065 116.711L168.474 115.218C169.193 114.456 170.359 114.037 171.382 114.178C172.107 114.277 172.675 114.65 172.978 115.226L173.033 115.332C174.023 117.198 175.516 120.02 167.459 127.878C166.217 129.089 165.015 129.467 164 129.467H164.004ZM159.012 118.632C158.72 118.632 158.436 118.771 158.271 118.995C157.823 119.607 157.641 120.298 157.73 121.047C158.022 123.462 160.108 127.425 162.84 128.395C164.227 128.887 165.579 128.505 166.859 127.258C174.452 119.853 173.14 117.379 172.272 115.741L172.215 115.633C171.997 115.22 171.579 115.081 171.264 115.04C170.518 114.937 169.629 115.258 169.1 115.817L167.692 117.31C166.486 118.588 166.272 118.793 164.739 119.868C163.926 120.436 162.94 120.651 161.967 120.469C160.992 120.288 160.15 119.735 159.593 118.909L159.936 118.645L159.583 118.894C159.468 118.729 159.262 118.632 159.019 118.63H159.01L159.012 118.632Z" fill="#111827"/>
<path d="M201.362 73.7988C198.785 69.6114 193.683 61.2518 193.185 59.9416C193.185 59.9416 194.342 58.7455 193.613 56.5053C192.226 52.2437 188.829 55.6058 188.829 55.6058L188.464 55.8283C186.332 57.1233 183.884 57.7338 181.412 57.5893L176.217 57.2831C176.217 57.2831 175.763 59.4205 177.926 62.6134C178.958 64.1347 179.416 66.1314 179.719 68.2727C179.799 68.8374 180.295 69.2368 180.827 69.1626L182.141 68.9839C183.259 70.4025 184.123 71.1841 185.509 71.8915C185.885 72.0835 186.319 72.1197 186.709 71.9771C187.241 71.7812 188.04 71.4028 188.856 70.6973L190.874 75.5769C191.169 76.2919 190.976 77.121 190.401 77.5926L189.047 78.7032C188.441 79.2014 188.405 80.1731 188.988 80.7227C189.886 81.5689 191.635 82.6091 194.973 83.0199C199.889 83.6227 205.34 81.6279 208.053 79.9449C208.886 79.4277 208.728 78.1041 207.795 77.7999L205.385 77.0145C203.734 76.4763 202.309 75.3392 201.364 73.8007L201.362 73.7988Z" fill="white"/>
<path d="M196.817 83.5599C196.177 83.5599 195.541 83.5238 194.92 83.4477C191.429 83.0199 189.605 81.8998 188.691 81.0365C188.322 80.6885 188.121 80.1902 188.138 79.673C188.155 79.1595 188.386 78.6822 188.772 78.3666L190.126 77.256C190.554 76.9042 190.696 76.2824 190.472 75.7423L188.672 71.3932C187.972 71.9105 187.313 72.2129 186.851 72.3821C186.357 72.5628 185.794 72.5247 185.308 72.2775C183.979 71.6005 183.08 70.8456 181.951 69.446L180.88 69.5924C180.117 69.697 179.399 69.1322 179.288 68.3335C179.028 66.5003 178.621 64.4161 177.565 62.8587C175.323 59.5498 175.77 57.2888 175.791 57.1937C175.836 56.9845 176.024 56.84 176.238 56.8514L181.433 57.1576C183.822 57.2983 186.177 56.7107 188.237 55.4594L188.562 55.2616C188.835 55.0049 190.408 53.6015 191.949 53.9799C192.881 54.2081 193.579 55.0125 194.022 56.3741C194.639 58.2738 194.022 59.5156 193.681 60.0081C194.31 61.3393 197.201 66.217 201.727 73.5744C202.617 75.0216 203.963 76.0979 205.516 76.6037L207.926 77.3891C208.518 77.5831 208.935 78.1003 209.012 78.7412C209.09 79.382 208.808 79.9868 208.278 80.3157C205.588 81.9854 201.08 83.5637 196.817 83.5637V83.5599ZM188.852 70.2599C188.886 70.2599 188.918 70.2637 188.952 70.2713C189.087 70.3036 189.198 70.3987 189.251 70.5261L191.27 75.4057C191.639 76.2957 191.393 77.3321 190.671 77.9235L189.318 79.034C189.125 79.1919 189.009 79.4353 189 79.6996C188.99 79.9696 189.092 80.2245 189.28 80.4032C190.1 81.1791 191.762 82.1851 195.022 82.5863C199.581 83.1454 204.853 81.4168 207.822 79.5741C208.066 79.422 208.191 79.1481 208.153 78.842C208.117 78.5358 207.931 78.2981 207.657 78.2106L205.247 77.4252C203.501 76.8567 201.989 75.6491 200.991 74.027C198.138 69.3908 193.278 61.4153 192.778 60.0956C192.72 59.9378 192.756 59.7609 192.873 59.6392C192.909 59.5993 193.831 58.58 193.201 56.6384C192.858 55.583 192.368 54.9707 191.747 54.8186C190.758 54.5751 189.522 55.526 189.128 55.9139C189.104 55.9367 189.077 55.9576 189.049 55.9748L188.683 56.1972C186.472 57.5398 183.949 58.1711 181.381 58.019L176.607 57.7376C176.596 58.4469 176.766 60.1336 178.279 62.3662C179.435 64.0719 179.869 66.2759 180.141 68.208C180.187 68.537 180.467 68.7709 180.764 68.731L182.078 68.5522C182.23 68.5313 182.379 68.5921 182.474 68.7119C183.604 70.1458 184.418 70.8494 185.7 71.5016C185.978 71.6443 186.283 71.6671 186.557 71.5663C187.053 71.3837 187.803 71.0281 188.572 70.3664C188.651 70.2979 188.752 70.2618 188.854 70.2618L188.852 70.2599Z" fill="#111827"/>
<path d="M188.854 71.127C188.738 71.127 188.625 71.0814 188.54 70.9901C188.377 70.8151 188.386 70.5413 188.558 70.3777L189.295 69.6837C189.469 69.5201 189.742 69.5296 189.904 69.7027C190.067 69.8776 190.058 70.1515 189.886 70.315L189.149 71.0091C189.066 71.0871 188.96 71.127 188.854 71.127Z" fill="#111827"/>
<path d="M217.999 111.345C218.009 107.342 220.451 103.388 224.19 102.881L232.902 101.696C232.902 101.696 236.388 125.004 231.632 133.59C231.632 133.59 225.072 146.628 195.028 131.331C195.028 131.331 191.718 129.536 190.075 124.738C189.026 121.674 184.113 121.064 181.681 119.303C180.817 118.677 181.234 117.259 182.271 117.293L190.637 117.571C191.881 117.613 193.025 118.337 193.657 119.484L196.076 123.873C196.538 124.711 197.282 125.331 198.155 125.615C200.143 126.259 206.65 127.246 212.992 126.775C215.663 126.577 217.78 124.354 217.958 121.522C218.102 119.223 217.99 116.059 218.001 111.345H217.999Z" fill="white"/>
<path d="M219.616 139.19C214.084 139.19 206.104 137.456 194.833 131.717C194.681 131.635 191.345 129.779 189.668 124.879C189.049 123.072 186.84 122.161 184.704 121.281C183.477 120.775 182.319 120.298 181.427 119.653C180.867 119.248 180.643 118.527 180.868 117.864C181.082 117.232 181.629 116.839 182.285 116.86L190.65 117.137C192.036 117.183 193.333 118 194.034 119.273L196.453 123.662C196.862 124.403 197.513 124.949 198.286 125.2C200.177 125.812 206.625 126.811 212.958 126.341C215.44 126.157 217.359 124.118 217.524 121.494C217.617 120.018 217.604 118.143 217.585 115.772C217.575 114.467 217.564 113.001 217.568 111.343C217.577 107.464 219.881 103.027 224.131 102.451L232.844 101.266C233.082 101.236 233.294 101.397 233.328 101.631C233.472 102.59 236.78 125.185 232.009 133.801C231.956 133.908 230.475 136.764 225.856 138.285C224.256 138.812 222.204 139.192 219.616 139.192V139.19ZM182.233 117.727C181.857 117.727 181.718 118.046 181.684 118.145C181.605 118.379 181.622 118.729 181.931 118.953C182.739 119.539 183.852 119.997 185.03 120.482C187.343 121.435 189.734 122.42 190.482 124.599C192.046 129.163 195.202 130.934 195.232 130.953C210.552 138.751 219.55 138.981 224.398 137.8C229.586 136.538 231.229 133.425 231.246 133.394C235.534 125.651 232.971 105.372 232.535 102.183L224.249 103.308C220.619 103.801 218.44 107.781 218.433 111.345C218.429 112.999 218.44 114.463 218.45 115.764C218.469 118.155 218.482 120.041 218.387 121.547C218.194 124.609 215.94 126.988 213.022 127.204C206.57 127.684 199.969 126.655 198.023 126.024C197.04 125.704 196.215 125.014 195.7 124.08L193.28 119.691C192.725 118.685 191.707 118.039 190.624 118.002L182.258 117.725C182.258 117.725 182.243 117.725 182.235 117.725L182.233 117.727Z" fill="#111827"/>
</g>
<defs>
<clipPath id="clip0_2088_452">
<rect width="353" height="348" fill="white"/>
</clipPath>
</defs>
</svg>
