<svg width="32" height="32" viewBox="0 0 32 32" fill="none" xmlns="http://www.w3.org/2000/svg">
<g clip-path="url(#clip0_2447_4464)">
<path d="M4.48499 14.2539V25.9557H23.8787V14.2539H4.48499Z" fill="#C7C7F9"/>
<path d="M24.5782 15.1868C26.2338 14.3315 27.2726 12.6236 27.2726 10.7604V6.69638C27.2726 4.83332 26.2338 3.12538 24.5782 2.27007C21.5587 0.709884 17.6855 -0.0456784 13.839 0.00213412C0.606262 1.1317 -0.428051 16.0002 13.8386 17.4548C17.6867 17.5024 21.5604 16.7461 24.5782 15.1868Z" fill="#F0EDFF"/>
<path d="M7.05856 10.9526V6.50377C7.05856 4.46427 8.09744 2.59464 9.753 1.65839C10.9911 0.958078 12.3737 0.406266 13.8391 0.00195312C10.2197 0.0469531 6.62406 0.803203 3.78556 2.26989C2.13 3.12514 1.09113 4.83308 1.09113 6.6962V10.7603C1.09113 12.6233 2.13 14.3313 3.78556 15.1866C6.62556 16.6541 10.2208 17.4097 13.8387 17.4546C12.3738 17.0503 10.9914 16.4986 9.753 15.7981C8.09738 14.8618 7.05856 12.9921 7.05856 10.9526Z" fill="#DCDBFF"/>
<path d="M20.4951 7.00522C20.3426 6.81191 20.3658 6.53847 20.5404 6.36522C20.8256 6.08003 20.9746 5.70484 20.9696 5.31341C20.9586 4.51247 20.2837 3.87891 19.4821 3.87891H16.1661C11.7784 4.19053 9.66274 6.95322 9.05205 10.1637C8.74743 11.7652 9.61474 13.3739 11.1278 13.9808C12.1732 14.4002 13.7291 14.6598 16.2641 14.5611C18.8264 14.3102 21.1714 13.6477 22.4235 12.5893C22.4138 10.4632 21.6904 8.51666 20.4951 7.00522Z" fill="#BD7558"/>
<path d="M10.5782 12.505C10.5926 8.49909 12.9262 5.10122 16.1662 3.87891H14.1819C9.64051 3.87891 5.95764 7.77897 5.93958 12.5983C7.61864 14.3251 12.2131 14.9578 16.2642 14.5611C13.7958 14.3071 11.6227 13.6275 10.5782 12.505Z" fill="#A66040"/>
<path d="M16.5641 17.9724C15.2251 17.58 13.4831 17.4753 11.7997 17.9724C10.0175 18.6893 8.54995 20.1535 7.84533 22.098C7.49595 23.1357 8.26782 24.21 9.3627 24.21H19.0004C20.0767 24.21 20.8464 23.1695 20.5314 22.1404L20.5185 22.098C19.8138 20.1535 18.3463 18.6892 16.5641 17.9724Z" fill="#5A6CD9"/>
<path d="M16.5641 17.9726C16.5919 18.1187 16.6061 18.27 16.6061 18.4245C16.6061 19.7633 15.5207 20.8487 14.1819 20.8487C12.8431 20.8487 11.7577 19.7633 11.7577 18.4245C11.7577 18.27 11.772 18.1187 11.7997 17.9726C12.5335 18.2389 13.3383 18.3812 14.1819 18.3812C15.0255 18.3812 15.8303 18.2389 16.5641 17.9726ZM8.21508 10.6967C9.82251 10.9579 10.0607 14.0447 8.26226 14.5076C7.07289 14.7505 5.93951 13.8386 5.93951 12.6064C5.93951 11.5361 6.80676 10.667 7.87889 10.667C8.05676 10.667 8.16114 10.6895 8.21508 10.6967Z" fill="#F9BBAF"/>
<path d="M22.4242 12.6139C22.419 13.8436 21.2874 14.7495 20.1015 14.5074C18.409 14.3516 18.5412 10.9577 20.1493 10.6965C21.3021 10.4838 22.4242 11.3738 22.4242 12.6139Z" fill="#FFCBBE"/>
<path d="M20.4292 12.5507C20.4292 11.1629 19.9755 9.8638 19.1833 8.80718C19.0445 8.62212 18.8112 8.53755 18.5843 8.58268C17.0173 8.89424 15.2621 8.70705 13.8791 7.99405L13.8733 7.99224C7.76033 7.14568 6.90921 17.4547 14.9779 18.3381C18.0634 18.0014 20.4292 15.7166 20.4292 12.5507Z" fill="#FFDDCF"/>
<path d="M11.3895 12.7788C11.3895 11.7439 11.6213 10.7605 12.0321 9.88965C12.4389 9.02765 13.0997 8.37903 13.8734 7.99221C11.9281 7.02334 9.54088 7.83565 8.57707 9.78834C8.16632 10.6209 7.93451 11.5612 7.93451 12.5507C7.93451 15.9962 10.7262 18.381 14.1819 18.381C14.4517 18.381 14.7174 18.3665 14.9779 18.338C12.8556 17.4187 11.3895 15.3902 11.3895 12.7788Z" fill="#FFCBBE"/>
<path d="M26.833 27.8409C26.2682 25.2957 24.0602 23.3952 21.3944 23.2788H10.0279C1.44786 23.7579 0.606239 32.0002 8.09424 32.0002H23.4966C25.6897 32.0002 27.3071 29.9664 26.833 27.8409Z" fill="#FB8798"/>
<path d="M6.04157 27.8531C6.50351 25.6452 8.05451 23.9194 10.0278 23.2788H6.96932C4.33251 23.3919 2.10113 25.27 1.53069 27.8409C1.05619 29.9754 2.68076 32.0001 4.86707 32.0001H8.09432C6.60438 31.3599 5.66638 29.6434 6.04157 27.8531Z" fill="#FB6276"/>
<path d="M24.8484 7.75793H23.3939C23.3038 7.75796 23.2155 7.73291 23.1389 7.68558C23.0623 7.63825 23.0004 7.57051 22.9601 7.48996C22.9198 7.40941 22.9028 7.31924 22.9109 7.22955C22.919 7.13986 22.9519 7.0542 23.006 6.98218L23.8787 5.81855H23.3938C23.2652 5.81855 23.1419 5.76747 23.051 5.67655C22.9601 5.58563 22.909 5.46232 22.909 5.33374C22.909 5.20516 22.9601 5.08184 23.051 4.99092C23.1419 4.9 23.2652 4.84893 23.3938 4.84893H24.8483C24.9384 4.84889 25.0267 4.87394 25.1033 4.92127C25.1799 4.9686 25.2418 5.03634 25.2821 5.11689C25.3223 5.19744 25.3394 5.28761 25.3313 5.3773C25.3232 5.46699 25.2902 5.55265 25.2362 5.62468L24.3635 6.7883H24.8483C24.9769 6.78829 25.1002 6.83936 25.1911 6.93028C25.2821 7.02119 25.3331 7.1445 25.3332 7.27308C25.3332 7.40166 25.2821 7.52498 25.1912 7.61591C25.1003 7.70683 24.977 7.75792 24.8484 7.75793ZM30.4241 3.87918H28.2422C28.1522 3.87921 28.0639 3.85416 27.9873 3.80683C27.9107 3.7595 27.8488 3.69176 27.8085 3.61121C27.7682 3.53066 27.7512 3.44049 27.7593 3.3508C27.7674 3.26111 27.8003 3.17545 27.8544 3.10343L29.4544 0.970113H28.2422C28.1137 0.970113 27.9904 0.919035 27.8994 0.828115C27.8085 0.737195 27.7574 0.613881 27.7574 0.485301C27.7574 0.356721 27.8085 0.233407 27.8994 0.142487C27.9904 0.0515666 28.1137 0.000488318 28.2422 0.000488318H30.4241C30.5141 0.000453471 30.6024 0.0255057 30.679 0.072836C30.7556 0.120166 30.8175 0.187903 30.8578 0.268451C30.8981 0.349 30.9151 0.439175 30.907 0.528865C30.8989 0.618555 30.866 0.704215 30.8119 0.776238L29.2119 2.90955H30.4241C30.5526 2.90955 30.676 2.96063 30.7669 3.05155C30.8578 3.14247 30.9089 3.26578 30.9089 3.39436C30.9089 3.52294 30.8578 3.64626 30.7669 3.73718C30.676 3.8281 30.5526 3.87918 30.4241 3.87918Z" fill="#00C5FD"/>
<path d="M21.0627 23.7577H17.9676C17.7446 23.7577 17.5736 23.5524 17.6221 23.3348C17.8147 22.4712 18.5846 21.8184 19.5151 21.8184C20.4381 21.8184 21.2146 22.4657 21.4081 23.3345C21.4566 23.5522 21.2858 23.7577 21.0627 23.7577ZM10.3961 23.7577H7.30093C7.07786 23.7577 6.90705 23.5522 6.95555 23.3345C7.14905 22.4652 7.92599 21.8184 8.84861 21.8184C9.77868 21.8184 10.5489 22.4709 10.7416 23.3348C10.7901 23.5524 10.6191 23.7577 10.3961 23.7577Z" fill="#F9BBAF"/>
</g>
<defs>
<clipPath id="clip0_2447_4464">
<rect width="32" height="32" fill="white"/>
</clipPath>
</defs>
</svg>
