<svg width="97" height="96" viewBox="0 0 97 96" fill="none" xmlns="http://www.w3.org/2000/svg">
<g clip-path="url(#clip0_2443_2505)">
<path d="M62.5636 46.3229H54.1029C52.8221 46.3229 51.7741 45.275 51.7741 43.9942L50.6098 24.262C50.6098 24.262 48.7258 7.91747 58.4981 5.76966C58.4981 5.76966 62.4714 -1.96228 75.1968 0.514784C75.3708 0.548722 75.5381 0.611159 75.7068 0.663284C80.934 2.28478 85.0605 5.9851 87.3369 10.5764C90.4036 16.766 89.4024 21.3605 88.1756 43.994C88.1756 45.2748 87.1276 46.3227 85.8468 46.3227H76.8461" fill="#7F7369"/>
<path d="M64.0348 46.323V43.554C58.8082 41.2444 55.496 36.2666 55.2618 30.7673C55.2442 30.3615 55.2418 21.9546 55.2547 21.7993C55.1673 17.1497 55.8868 7.39519 63.2823 5.76994C63.2823 5.76994 65.7174 1.03275 72.8786 0.162563C66.4421 -0.544687 61.8421 1.55325 59.3015 4.62056C58.7381 5.30081 58.5116 5.75063 58.4983 5.76994C51.8401 7.23319 50.2691 15.4504 50.4813 22.2356C50.4823 22.2639 51.773 43.9725 51.7743 43.9944C51.7743 45.2752 52.8223 46.3232 54.1031 46.3232L64.0348 46.323Z" fill="#72655A"/>
<path d="M43.299 89.4876L46.0188 65.183C46.6843 60.5659 46.2956 57.7995 48.4991 55.1259C47.8258 54.3075 46.8652 53.5442 46.2315 53.1574L46.1619 53.1401C43.8052 51.7285 41.8211 51.6694 37.4419 50.4645L32.9636 48.321V42.9717C29.4289 44.5347 25.12 44.6695 21.286 43.0022L21.2667 48.343L16.8078 50.4645C12.4565 51.6617 10.4491 51.7256 8.08774 53.1401L8.01818 53.1574C7.10675 53.7135 6.01813 54.6557 5.27975 55.7582C3.70063 58.1167 3.90707 59.4924 2.34408 73.4594C0.51221 90.0927 0.494398 89.4055 0.51371 90.5339V90.5406C0.484273 92.7158 1.81852 95.9998 5.87263 95.9998C6.17825 95.9998 48.2388 96.001 48.4993 95.9967C45.3939 95.9445 42.9319 93.7322 43.299 89.4876Z" fill="#FFDFCF"/>
<path d="M5.37802 89.4875L7.17182 73.459C8.77232 57.3477 8.45732 56.0978 10.1075 53.6335C10.6169 52.8729 11.2317 52.2335 11.9561 51.6719C11.6208 51.7782 9.92712 52.0379 8.08757 53.1399L8.01801 53.1571C5.27508 54.8309 4.20127 57.1313 3.83659 60.1212L0.550099 89.4875C0.508474 89.97 0.513536 90.2658 0.513536 90.5401C0.484099 92.7153 1.81834 95.9994 5.87245 95.9994H10.7004C7.04301 95.9994 5.05121 93.2741 5.37802 89.4875ZM26.0957 52.9105V44.162C24.4503 44.0516 22.8642 43.688 21.2858 43.002L21.2665 48.3427L26.0957 52.9105Z" fill="#FFCEBF"/>
<path d="M93.1618 60.1214C92.814 57.2699 91.8095 54.8849 88.9803 53.1573L88.9108 53.14C86.4296 51.6537 84.6261 51.7147 76.2533 49.4842C75.9338 49.3394 75.7125 48.8636 75.7125 48.3209V43.5787C71.9781 45.2073 67.6587 45.1559 64.0349 43.554V48.3209C64.0349 48.8636 63.8136 49.3396 63.4941 49.4842C55.1772 51.6999 53.3274 51.6481 50.8366 53.14L50.7671 53.1573C47.9174 54.8975 46.9297 57.2992 46.5856 60.1214C43.142 91.1677 43.2431 89.3898 43.2628 90.5338C43.2125 93.4261 45.1687 95.9996 48.6215 95.9996H91.1263C94.6546 95.9996 96.5576 93.3118 96.4852 90.5338C96.5045 89.3912 96.5921 91.0468 93.1618 60.1214Z" fill="#FFDFCF"/>
<path d="M48.0904 90.5338C48.0712 89.4199 48.0075 90.8659 51.4132 58.3834C51.7644 55.5026 52.7458 53.2268 55.5126 51.4712C54.7003 51.7172 52.8486 51.9347 50.8363 53.1401L50.7667 53.1574C47.9171 54.8976 46.9294 57.2996 46.5853 60.1215C43.1407 91.3684 43.2622 89.0252 43.2622 90.5408C43.2326 92.7159 44.5671 95.9998 48.6212 95.9998H53.4491C49.9477 95.9996 48.0602 93.3913 48.0904 90.5338Z" fill="#FFCEBF"/>
<path d="M94.6541 73.4556C93.1044 59.6993 93.1713 59.8589 92.9251 58.6675C92.4269 56.2582 90.9665 54.3699 88.9803 53.1573L88.9108 53.14C86.4296 51.6537 84.626 51.7147 76.2533 49.4842C75.9338 49.3394 75.7125 48.8636 75.7125 48.3207V43.554C72.0443 45.1747 67.7519 45.1961 64.0349 43.554V48.3209C64.0349 48.8636 63.8136 49.3396 63.4941 49.4844C55.1772 51.7 53.3274 51.6481 50.8366 53.1402L50.767 53.1575C48.0764 54.8 46.9541 57.101 46.5856 60.1216L45.0935 73.4558L54.4994 74.4426C54.7403 74.4678 54.9623 74.5844 55.1199 74.7684C55.2774 74.9524 55.3584 75.1898 55.3462 75.4316L54.313 95.9996H85.4915L84.4084 75.5111C84.3944 75.248 84.4821 74.9895 84.6532 74.7891C84.8244 74.5887 85.0659 74.4616 85.328 74.4341L94.6541 73.4556Z" fill="#F76868"/>
<path d="M45.0931 73.4556L49.769 73.9463C51.4314 58.539 51.3307 58.4734 51.65 56.9295C52.1362 54.5784 53.5093 52.7423 55.5125 51.4712C54.9148 51.6651 52.8485 51.9347 50.8363 53.1401L50.7667 53.1574C48.7918 54.363 47.3238 56.2412 46.8219 58.6676C46.5193 60.1311 46.5765 60.4506 45.0931 73.4556Z" fill="#C75858"/>
<path d="M46.1966 53.1571L46.127 53.1399C43.7653 51.725 41.7493 51.6586 37.4376 50.4717L37.4417 50.464L32.9634 48.3206L32.931 48.3695L32.9301 48.3519L27.0897 53.8507L21.2663 48.3425L16.8074 50.464C12.4561 51.6612 10.4485 51.7252 8.08735 53.1397L8.01779 53.1569C5.26624 54.8369 4.20293 57.1152 3.83637 60.121L2.34369 73.4588L11.5698 74.4268C11.8499 74.4563 12.1081 74.5919 12.2913 74.8058C12.4745 75.0198 12.5688 75.2958 12.5547 75.5771L11.5289 95.9992H42.7076L41.6246 75.5134C41.6107 75.2496 41.6986 74.9905 41.8701 74.7896C42.0417 74.5886 42.2838 74.4612 42.5465 74.4336L45.0127 74.1748L46.019 65.1827C46.692 60.4405 46.3078 57.8088 48.4826 55.1468C48.002 54.5587 46.7206 53.477 46.1966 53.1571Z" fill="#7AA7CC"/>
<path d="M7.17181 73.4592C8.82518 56.8164 8.41456 55.6497 10.5603 53.0225C10.9449 52.5517 11.3977 52.1051 11.9561 51.6721C11.5177 51.7966 9.86937 52.0726 8.08756 53.1401L8.018 53.1573C6.78856 53.9081 5.67481 55.0027 4.94787 56.3034C3.57106 58.7675 3.98956 60.3056 2.34387 73.4594L7.11593 73.9601L7.17181 73.4592Z" fill="#5E8FB7"/>
<path d="M80.1907 50.4642L76.2534 49.484C75.9339 49.3392 75.7126 48.8634 75.7126 48.3206V42.9744C72.0444 44.5951 67.7519 44.6165 64.0349 42.9744V48.3207C64.0349 48.8634 63.8137 49.3394 63.4942 49.4842L59.4976 50.4792C64.3006 58.5579 75.3911 58.5611 80.1907 50.4642Z" fill="#FFDFCF"/>
<path d="M8.78621 23.3627C8.79108 18.0321 8.77383 18.2475 8.80421 17.5399C9.41358 3.16633 25.6921 -4.95223 37.5545 3.31146C45.5325 8.88171 45.386 15.7768 45.3931 23.3627" fill="#4C4846"/>
<path d="M8.78621 23.3627C8.79108 18.0321 8.77383 18.2475 8.80421 17.5399C9.41358 3.16633 25.6921 -4.95223 37.5545 3.31146C45.5325 8.88171 45.386 15.7768 45.3931 23.3627" fill="#4C4846"/>
<path d="M28.9147 0.116567C18.4038 -0.926871 9.16441 7.08819 8.79859 17.6913C8.77591 18.3523 8.79109 18.1996 8.78641 23.3626H12.4363V18.3288C12.4361 8.9195 19.5828 1.04375 28.9147 0.116567Z" fill="#3F3B39"/>
<path d="M46.304 24.9992C46.304 27.1086 44.2621 28.8184 41.7432 28.8184V21.1804C44.2621 21.1804 46.304 22.89 46.304 24.9992ZM7.87531 24.9992C7.87531 27.1086 9.91718 28.8184 12.4362 28.8184V21.1804C9.91718 21.1804 7.87531 22.89 7.87531 24.9992Z" fill="#FFCEBF"/>
<path d="M41.7433 25.3858V28.8185C45.1663 28.8185 47.3287 25.7936 45.8171 23.283C45.0665 24.53 43.5247 25.3858 41.7433 25.3858ZM8.36207 23.283C6.84875 25.7964 9.01982 28.8185 12.4361 28.8185V25.3858C10.6546 25.3858 9.11282 24.53 8.36207 23.283Z" fill="#FFCEBF"/>
<path d="M40.3721 20.3891C39.0476 19.2412 38.4305 17.6343 38.3671 15.8741C38.3137 14.4054 37.148 13.6038 35.8411 13.8056C34.7725 13.9694 33.6996 14.1042 32.6236 14.2097C27.6898 14.694 22.9792 14.5265 18.2341 13.7897C17.0803 13.6098 15.8654 14.399 15.8128 15.8745C15.7704 17.037 15.4903 18.1543 14.882 19.13C13.9749 20.5916 12.8223 21.0238 12.4361 21.2469C12.4361 30.4458 12.2519 31.6935 13.0584 34.3644C15.6459 42.9446 25.2913 47.159 33.3086 43.3972C37.9676 41.2102 41.273 36.6581 41.6958 31.2963C41.7624 30.456 41.7438 30.8107 41.7438 21.2469C41.6741 21.2118 41.0919 21.012 40.3721 20.3891Z" fill="#FFEEE6"/>
<path d="M18.2105 37.1761C18.02 36.6493 17.855 36.1136 17.7161 35.5709C16.9625 32.6249 17.1914 30.9162 17.1869 23.0035C17.1869 21.58 18.1453 21.493 19.1073 20.3047C20.0975 19.0835 20.5316 17.5353 20.5679 15.9383C20.585 15.2116 20.9253 14.5876 21.4278 14.1965C20.3597 14.0896 19.2947 13.9539 18.2339 13.7896C16.9927 13.5963 15.8489 14.5285 15.8171 15.7842C15.7769 17.3232 15.3179 18.7778 14.2901 19.9156C13.4379 20.86 12.6208 21.14 12.4359 21.2467C12.4359 30.3685 12.0478 32.7815 13.9516 36.6233C15.0281 38.7953 16.2821 39.9922 16.3726 40.118L16.3728 40.1182C18.4198 42.3029 21.0198 43.741 23.4868 44.3294C23.2166 44.1277 19.4161 40.4528 18.2105 37.1761Z" fill="#FFDFCF"/>
<path d="M28.5383 64.3759V52.4871L27.0899 53.8508L25.6414 52.4807V64.3757C25.6414 64.7599 25.794 65.1283 26.0657 65.3999C26.3373 65.6715 26.7057 65.8241 27.0899 65.8241C27.2801 65.8242 27.4684 65.7868 27.6442 65.714C27.8199 65.6412 27.9796 65.5346 28.1141 65.4001C28.2486 65.2656 28.3553 65.1059 28.4281 64.9302C28.5009 64.7545 28.5383 64.5661 28.5383 64.3759Z" fill="#5E8FB7"/>
<path d="M32.9635 48.3208L27.0898 53.8509L30.2607 57.0463C30.8661 57.6564 31.8696 57.597 32.3989 56.9195L37.4419 50.4643L32.9635 48.3208Z" fill="#DADADA"/>
<path d="M35.2185 49.4L32.9635 48.3208L27.0898 53.8509L29.188 55.9654L35.2185 49.4ZM30.6919 57.3427C30.9545 57.46 31.2463 57.4953 31.5293 57.4442L30.6919 57.3427Z" fill="#CECCCA"/>
<path d="M21.2665 48.3428L27.0899 53.851L23.9191 57.0463C23.3137 57.6565 22.3102 57.597 21.7809 56.9196L16.7379 50.4643L21.2665 48.3428Z" fill="#DADADA"/>
<path d="M22.9846 53.8296L24.9918 55.9654L27.0899 53.851L21.2667 48.3428L18.8793 49.4612L22.9846 53.8296Z" fill="#CECCCA"/>
<path d="M68.8872 51.2714V44.1607C67.1506 44.0416 65.5106 43.6265 64.0349 42.9744C63.8881 47.1969 64.4176 49.0657 63.4942 49.4842L59.4976 50.4792C60.4925 52.1527 61.8378 53.5674 63.4237 54.6084L67.5729 53.0827C67.5731 53.0823 68.8872 52.43 68.8872 51.2714Z" fill="#FFCEBF"/>
<path d="M83.0813 25.3317C83.906 25.3701 84.5557 26.049 84.5557 26.8746V27.9827C84.5517 30.0252 85.2164 36.4442 79.2689 41.3939C72.479 47.0466 62.1333 45.4285 57.4319 37.8263C54.5602 33.1862 55.2582 29.1104 55.2479 22.6922V21.9501C55.2479 21.0878 55.8554 20.3505 56.699 20.172C58.1956 19.8555 60.6138 18.9959 62.8075 16.6609C63.3588 16.0742 64.2993 16.1048 64.8119 16.7256C66.9406 19.3045 72.6888 24.846 83.0813 25.3317Z" fill="#FFEEE6"/>
<path d="M60.0884 30.7029C60.071 30.2523 60.0761 31.2805 60.0761 18.8499C58.7868 19.6062 57.5821 19.9852 56.6992 20.1719C55.8556 20.3504 55.2481 21.0877 55.2481 21.95V22.6921C55.2592 29.6845 54.6558 33.3406 57.4321 37.8262C60.4267 42.6723 66.1773 45.5941 72.3161 44.5769C65.6058 43.4649 60.3695 37.7658 60.0884 30.7029Z" fill="#FFDFCF"/>
<path d="M83.0155 51.1677L80.1906 50.4646C78.0274 54.1139 74.2015 56.5409 69.8395 56.5409C69.8395 56.5409 83.074 69.7767 83.0155 51.1677Z" fill="#DA6161"/>
<path d="M56.726 51.1677L59.5508 50.4646C61.714 54.1139 65.54 56.5409 69.902 56.5409C69.902 56.5409 56.6675 69.7767 56.726 51.1677Z" fill="#DA6161"/>
<path d="M63.6065 54.6874C61.2714 55.9307 58.5806 56.5238 56.8572 54.2183C58.2284 68.2151 69.902 56.5408 69.902 56.5408C67.5985 56.5406 65.4449 55.8634 63.6065 54.6874Z" fill="#C75858"/>
<path d="M76.135 54.6874C78.4701 55.9307 81.1609 56.5238 82.8842 54.2183C81.513 68.2151 69.8395 56.5408 69.8395 56.5408C72.1429 56.5406 74.2964 55.8634 76.135 54.6874Z" fill="#C75858"/>
</g>
<defs>
<clipPath id="clip0_2443_2505">
<rect width="96" height="96" fill="white" transform="translate(0.5)"/>
</clipPath>
</defs>
</svg>
