<svg width="16" height="17" viewBox="0 0 16 17" fill="none" xmlns="http://www.w3.org/2000/svg">
<path d="M14.6463 12.7199C14.6463 12.9599 14.593 13.2066 14.4797 13.4466C14.3663 13.6866 14.2197 13.9133 14.0263 14.1266C13.6997 14.4866 13.3397 14.7466 12.933 14.9133C12.533 15.0799 12.0997 15.1666 11.633 15.1666C10.953 15.1666 10.2263 15.0066 9.45967 14.6799C8.69301 14.3533 7.92634 13.9133 7.16634 13.3599C6.39967 12.7999 5.67301 12.1799 4.97967 11.4933C4.29301 10.7999 3.67301 10.0733 3.11967 9.31325C2.57301 8.55325 2.13301 7.79325 1.81301 7.03992C1.49301 6.27992 1.33301 5.55325 1.33301 4.85992C1.33301 4.40659 1.41301 3.97325 1.57301 3.57325C1.73301 3.16659 1.98634 2.79325 2.33967 2.45992C2.76634 2.03992 3.23301 1.83325 3.72634 1.83325C3.91301 1.83325 4.09967 1.87325 4.26634 1.95325C4.43967 2.03325 4.59301 2.15325 4.71301 2.32659L6.25967 4.50659C6.37967 4.67325 6.46634 4.82659 6.52634 4.97325C6.58634 5.11325 6.61967 5.25325 6.61967 5.37992C6.61967 5.53992 6.57301 5.69992 6.47967 5.85325C6.39301 6.00658 6.26634 6.16658 6.10634 6.32658L5.59967 6.85325C5.52634 6.92658 5.49301 7.01325 5.49301 7.11992C5.49301 7.17325 5.49967 7.21992 5.51301 7.27325C5.53301 7.32658 5.55301 7.36658 5.56634 7.40658C5.68634 7.62658 5.89301 7.91325 6.18634 8.25992C6.48634 8.60659 6.80634 8.95992 7.15301 9.31325C7.51301 9.66658 7.85967 9.99325 8.21301 10.2933C8.55967 10.5866 8.84634 10.7866 9.07301 10.9066C9.10634 10.9199 9.14634 10.9399 9.19301 10.9599C9.24634 10.9799 9.29967 10.9866 9.35967 10.9866C9.47301 10.9866 9.55967 10.9466 9.63301 10.8733L10.1397 10.3733C10.3063 10.2066 10.4663 10.0799 10.6197 9.99992C10.773 9.90658 10.9263 9.85992 11.093 9.85992C11.2197 9.85992 11.353 9.88658 11.4997 9.94658C11.6463 10.0066 11.7997 10.0933 11.9663 10.2066L14.173 11.7733C14.3463 11.8933 14.4663 12.0333 14.5397 12.1999C14.6063 12.3666 14.6463 12.5333 14.6463 12.7199Z" stroke="#6B7280" stroke-miterlimit="10"/>
</svg>
