<svg width="32" height="32" viewBox="0 0 32 32" fill="none" xmlns="http://www.w3.org/2000/svg">
<path d="M28.3005 13.5319C27.9993 12.9284 27.5834 12.3432 27.0563 11.816C25.0447 9.80444 22.191 9.39682 20.6823 10.9054C19.1736 12.4141 19.5813 15.2678 21.5929 17.2794C22.1201 17.8066 22.7053 18.2224 23.3088 18.5236L28.3005 13.5319Z" fill="#BE7D65"/>
<path d="M27.9668 18.1901C29.08 17.0768 29.1486 15.2313 28.3005 13.532C26.6012 12.6838 24.7557 12.7525 23.6424 13.8657C22.5291 14.979 22.4605 16.8245 23.3087 18.5238C25.008 19.372 26.8535 19.3033 27.9668 18.1901Z" fill="#CC8E73"/>
<path d="M21.5932 20.4164C19.0102 19.2947 16.0276 18.9166 15.5772 18.8645C14.5172 18.7421 13.559 19.5015 13.4363 20.5611C13.3137 21.6208 14.0733 22.5793 15.133 22.7021C16.1765 22.8228 18.1293 23.2033 19.6875 23.803H19.6875C19.6875 23.803 21.589 20.4176 21.5932 20.4164Z" fill="#1EA3FD"/>
<path d="M24.1114 24.2905H20.7569C20.3225 24.5548 19.6444 24.9062 18.6026 25.3251C17.2203 25.8809 15.9506 26.2512 15.9386 26.2547C14.9139 26.5511 14.3235 27.6222 14.62 28.647C14.8646 29.4925 15.6364 30.0422 16.4746 30.0422C16.6523 30.0422 16.8331 30.0175 17.0123 29.9656L24.1114 24.2905Z" fill="#F4B8AB"/>
<path d="M24.3245 22.1572C23.6058 21.4385 22.6318 20.8675 21.5932 20.4165C21.589 20.4178 19.568 21.0176 19.6875 23.8031H19.6875C20.075 23.9523 20.4384 24.1148 20.757 24.2905C21.3994 24.6394 21.7594 25.3199 21.7594 25.3199C21.7594 25.3199 17.2071 26.8146 17.0123 29.9656C17.0811 29.9457 18.7175 29.4696 20.4382 28.7473C23.3142 27.54 24.762 26.3594 25.1326 24.9192C25.3868 23.9316 25.0921 22.9249 24.3245 22.1572Z" fill="#FFCBBE"/>
<path d="M9.4594 21.7951C9.34602 22.9543 8.86415 23.9876 8.23352 24.8715L10.8791 27.7636C11.7063 26.7488 12.4398 25.5476 12.8884 24.1662C13.824 24.2623 14.7645 24.0387 15.6226 23.5623L16.0645 18.7842L9.11446 15.8823C9.04319 16.0834 8.97987 16.2872 8.92465 16.4932C8.40477 18.4333 8.65133 20.3561 9.4594 21.7951Z" fill="#3CBDFE"/>
<path d="M16.0646 18.7845L16.6836 12.0904C16.3367 11.8758 15.9604 11.7131 15.5664 11.6074C12.9853 10.9158 10.2051 12.8042 9.11444 15.8826C10.7276 18.8829 13.288 18.4556 16.0646 18.7845Z" fill="#E0DFFB"/>
<path d="M15.6227 23.5624C17.0252 22.7837 18.2067 21.3274 18.7838 19.4744L16.5029 17.5078L13.1598 18.5245C13.1559 20.6902 14.0822 22.6117 15.6227 23.5624Z" fill="#5AD6FF"/>
<path d="M18.8754 19.1598C19.6615 16.2256 18.6949 13.331 16.6835 12.0903C15.2028 12.9127 13.9682 14.491 13.4316 16.4935C13.2477 17.1797 13.1609 17.8634 13.1597 18.5246C14.8869 18.7514 16.8396 18.6207 18.7837 19.4745C18.8164 19.3702 18.8469 19.2653 18.8754 19.1598Z" fill="#EFEDFF"/>
<path d="M21.2309 0.709813C20.3492 0.256188 19.3492 0 18.2894 0C15.1044 0 12.4599 2.31281 11.9427 5.35044L14.0529 7.79669H15.7535L21.2309 0.709813Z" fill="#D94B63"/>
<path d="M24.7281 6.43877C24.7281 3.94265 23.3076 1.7784 21.2309 0.709961C18.1117 1.15715 15.714 3.83965 15.714 7.08265C15.714 7.32409 15.7277 7.56234 15.7536 7.7969H23.1546L24.7281 6.43877Z" fill="#EA5B70"/>
<path d="M16.5376 3.93039C16.4778 3.88018 16.4187 3.82907 16.3603 3.77708C15.857 3.32676 15.0923 3.34839 14.6067 3.81783C13.4853 4.90214 11.9504 5.34845 11.9428 5.35064C11.8816 5.71013 11.8508 6.07415 11.8508 6.43883C11.8508 9.99476 14.7335 12.8775 18.2895 12.8775C18.6025 12.8775 18.9101 12.8546 19.2111 12.8115L16.5376 3.93039Z" fill="#FFCBBE"/>
<path d="M24.7281 6.43861C20.3494 6.43861 17.8253 5.01424 16.5376 3.93018C16.0134 4.86199 15.7139 5.93718 15.7139 7.08249C15.7139 9.57861 17.1344 11.7429 19.2111 12.8113C22.3304 12.3641 24.7281 9.68155 24.7281 6.43861Z" fill="#FFDDCF"/>
<path d="M18.2233 11.8946C19.2341 11.7832 20.1591 12.474 20.3364 13.4753C20.3954 13.8095 20.4602 14.1427 20.5309 14.4747C20.7654 15.5729 20.9956 16.3011 21.1817 16.7743C21.7242 16.0978 22.2374 15.1596 22.6666 14.226C23.0734 13.341 24.0773 12.8995 25.0057 13.194C26.1114 13.5446 26.666 14.7853 26.1804 15.8386C25.3758 17.5839 24.1949 19.5828 22.6734 20.6541C21.7856 21.2792 20.7433 21.3973 19.8138 20.978C18.4582 20.3665 17.5427 18.738 16.8451 15.698C16.7214 15.159 16.6178 14.6311 16.533 14.1531C16.3377 13.0529 17.1126 12.017 18.2233 11.8946Z" fill="#FFDDCF"/>
<path d="M4.18957 28.3411C3.23588 28.8191 2.85019 29.9798 3.32825 30.9335C3.33232 30.9416 3.33644 30.9496 3.34057 30.9576C3.82594 31.8936 4.975 32.2687 5.92057 31.7948C6.10119 31.7042 8.78807 30.329 10.8791 27.7637C10.9611 25.43 8.2335 24.8716 8.2335 24.8716C6.67769 27.0521 4.22175 28.3248 4.18957 28.3411Z" fill="#FFCBBE"/>
<path d="M15.9828 8.21665C15.9159 8.21674 15.8497 8.2025 15.7887 8.17488C15.7278 8.14727 15.6735 8.10692 15.6294 8.05656C15.5853 8.00619 15.5526 7.94698 15.5333 7.88289C15.514 7.81881 15.5087 7.75134 15.5177 7.68503L15.6005 7.07196C15.6172 6.94876 15.6821 6.83722 15.781 6.76189C15.8799 6.68655 16.0047 6.65359 16.1279 6.67024C16.2511 6.6869 16.3626 6.75182 16.438 6.85072C16.5133 6.94961 16.5463 7.07439 16.5296 7.19759L16.4467 7.81065C16.4315 7.92297 16.3762 8.02599 16.2909 8.10064C16.2056 8.17528 16.0961 8.21649 15.9828 8.21665ZM22.3634 9.07896C22.2965 9.07905 22.2303 9.06481 22.1694 9.03719C22.1084 9.00958 22.0541 8.96923 22.01 8.91887C21.966 8.86851 21.9332 8.80929 21.9139 8.74521C21.8946 8.68112 21.8893 8.61365 21.8983 8.54734L21.9812 7.93428C21.9978 7.81107 22.0627 7.69954 22.1616 7.6242C22.2605 7.54886 22.3853 7.5159 22.5085 7.53256C22.6317 7.54922 22.7432 7.61413 22.8186 7.71303C22.8939 7.81193 22.9269 7.9367 22.9102 8.0599L22.8274 8.67296C22.8122 8.78529 22.7568 8.8883 22.6715 8.96295C22.5862 9.03759 22.4768 9.07881 22.3634 9.07896ZM19.2739 9.02278C19.0099 9.02271 18.75 8.95708 18.5176 8.8318C18.2852 8.70651 18.0876 8.52548 17.9425 8.30496C17.8741 8.20115 17.8497 8.07442 17.8748 7.95265C17.8998 7.83088 17.9722 7.72404 18.076 7.65565C18.1274 7.62177 18.185 7.59835 18.2455 7.58673C18.3059 7.5751 18.3681 7.5755 18.4284 7.58791C18.4887 7.60031 18.5459 7.62447 18.5969 7.65901C18.6478 7.69355 18.6915 7.7378 18.7254 7.78921C18.777 7.86767 18.8448 7.93417 18.9242 7.98422C19.0037 8.03428 19.0929 8.06673 19.186 8.0794C19.2791 8.09195 19.3738 8.08439 19.4637 8.05722C19.5536 8.03005 19.6366 7.9839 19.7072 7.9219C19.8009 7.84205 19.9224 7.80232 20.0452 7.8113C20.1681 7.82027 20.2825 7.87723 20.3636 7.96986C20.4448 8.06249 20.4863 8.18335 20.4791 8.30631C20.4719 8.42928 20.4166 8.54446 20.3251 8.62696C20.0343 8.882 19.6607 9.02267 19.2739 9.02278Z" fill="#425E70"/>
</svg>
