<svg width="32" height="32" viewBox="0 0 32 32" fill="none" xmlns="http://www.w3.org/2000/svg">
<path d="M22.6666 29.333H9.33325C8.78659 29.333 8.33325 28.8797 8.33325 28.333C8.33325 27.7863 8.78659 27.333 9.33325 27.333H22.6666C23.2133 27.333 23.6666 27.7863 23.6666 28.333C23.6666 28.8797 23.2133 29.333 22.6666 29.333Z" fill="#818CF8"/>
<path d="M27.1334 7.35973L21.8 11.1731C21.0934 11.6797 20.08 11.3731 19.7734 10.5597L17.2534 3.83973C16.8267 2.67973 15.1867 2.67973 14.76 3.83973L12.2267 10.5464C11.92 11.3731 10.92 11.6797 10.2134 11.1597L4.88005 7.34639C3.81338 6.59973 2.40005 7.65306 2.84005 8.89306L8.38671 24.4264C8.57338 24.9597 9.08005 25.3064 9.64005 25.3064H22.3467C22.9067 25.3064 23.4134 24.9464 23.6 24.4264L29.1467 8.89306C29.6 7.65306 28.1867 6.59973 27.1334 7.35973ZM19.3334 19.6664H12.6667C12.12 19.6664 11.6667 19.2131 11.6667 18.6664C11.6667 18.1197 12.12 17.6664 12.6667 17.6664H19.3334C19.88 17.6664 20.3334 18.1197 20.3334 18.6664C20.3334 19.2131 19.88 19.6664 19.3334 19.6664Z" fill="#818CF8"/>
</svg>
