<svg width="32" height="32" viewBox="0 0 32 32" fill="none" xmlns="http://www.w3.org/2000/svg">
<path d="M24.6268 22.4403L25.1468 26.6537C25.2801 27.7603 24.0934 28.5337 23.1468 27.9603L18.5334 25.2137C18.2134 25.027 18.1334 24.627 18.3068 24.307C18.9734 23.0803 19.3334 21.6937 19.3334 20.307C19.3334 15.427 15.1468 11.4537 10.0001 11.4537C8.94677 11.4537 7.9201 11.6137 6.9601 11.9337C6.46677 12.0937 5.98677 11.6403 6.10677 11.1337C7.3201 6.28033 11.9868 2.66699 17.5601 2.66699C24.0668 2.66699 29.3334 7.58699 29.3334 13.6537C29.3334 17.2537 27.4801 20.4403 24.6268 22.4403Z" fill="#818CF8"/>
<path d="M17.3334 20.3065C17.3334 21.8931 16.7467 23.3598 15.7601 24.5198C14.4401 26.1198 12.3467 27.1465 10.0001 27.1465L6.52008 29.2131C5.93341 29.5731 5.18675 29.0798 5.26675 28.3998L5.60008 25.7731C3.81341 24.5331 2.66675 22.5465 2.66675 20.3065C2.66675 17.9598 3.92008 15.8931 5.84008 14.6665C7.02675 13.8931 8.45341 13.4531 10.0001 13.4531C14.0534 13.4531 17.3334 16.5198 17.3334 20.3065Z" fill="#818CF8"/>
</svg>
