<svg width="24" height="24" viewBox="0 0 24 24" fill="none" xmlns="http://www.w3.org/2000/svg">
<path d="M12.15 10.87C12.05 10.86 11.93 10.86 11.82 10.87C9.43999 10.79 7.54999 8.84 7.54999 6.44C7.54999 3.99 9.52999 2 11.99 2C14.44 2 16.43 3.99 16.43 6.44C16.42 8.84 14.53 10.79 12.15 10.87Z" stroke="#4F46E5" stroke-width="1.5" stroke-linecap="round" stroke-linejoin="round"/>
<path d="M11.99 21.8097C10.17 21.8097 8.35998 21.3497 6.97998 20.4297C4.55998 18.8097 4.55998 16.1697 6.97998 14.5597C9.72998 12.7197 14.24 12.7197 16.99 14.5597" stroke="#4F46E5" stroke-width="1.5" stroke-linecap="round" stroke-linejoin="round"/>
<path d="M17.0002 23.1998C18.7602 23.1998 20.2002 21.7598 20.2002 19.9998C20.2002 18.2398 18.7602 16.7998 17.0002 16.7998C15.2402 16.7998 13.8002 18.2398 13.8002 19.9998C13.8002 21.7598 15.2402 23.1998 17.0002 23.1998Z" stroke="#4F46E5" stroke-width="0.8" stroke-linecap="round" stroke-linejoin="round"/>
<path d="M17.0021 18.4004V20.1782" stroke="#4F46E5" stroke-width="0.8" stroke-linecap="round" stroke-linejoin="round"/>
<path d="M17.0002 21.2451H17.0034" stroke="#4F46E5" stroke-width="0.8" stroke-linecap="round" stroke-linejoin="round"/>
</svg>
