<svg width="32" height="32" viewBox="0 0 32 32" fill="none" xmlns="http://www.w3.org/2000/svg">
<g clip-path="url(#clip0_2447_4515)">
<path d="M32 27.9951V24.1319C32 22.7085 30.5134 21.7754 29.2304 22.3917C28.5963 22.6962 27.9314 22.9859 26.6666 22.9859C23.9999 22.9859 23.9999 21.6982 21.3331 21.6982C18.6666 21.6982 18.6666 22.9859 15.9999 22.9859C13.3333 22.9859 13.3334 21.6982 10.6667 21.6982C8.00006 21.6982 8.00006 22.9859 5.33331 22.9859C4.0685 22.9859 3.40356 22.6962 2.7695 22.3917C1.48656 21.7754 0 22.7084 0 24.1319V27.9951H32Z" fill="#59B4E2"/>
<path d="M19.2196 19.3774C18.2209 18.9908 17.1355 18.7783 16.0003 18.7783C11.0736 18.7783 7.07977 22.7722 7.07971 27.6989H13.5183L19.2196 19.3774Z" fill="#FFCBBE"/>
<path d="M19.2196 19.3774C15.884 20.6688 13.5184 23.9074 13.5183 27.6988H24.9207C24.9207 23.9074 22.5551 20.6688 19.2196 19.3774Z" fill="#FFD4C7"/>
<path d="M14.4097 26.6456L14.4098 26.6455C13.165 26.2827 12.6631 25.561 10.6669 25.561C8.00019 25.561 8.00019 26.8487 5.33344 26.8487C4.06862 26.8487 3.40369 26.559 2.76962 26.2545C1.48656 25.6382 0 26.5713 0 27.9947V29.4243C0 30.8466 1.15306 31.9997 2.57538 31.9997H13.2417L14.4097 26.6456Z" fill="#6BC0F1"/>
<path d="M32 29.4242V27.9947C32 26.5713 30.5134 25.6382 29.2304 26.2545C28.5963 26.559 27.9314 26.8487 26.6666 26.8487C23.9999 26.8487 23.9999 25.561 21.3331 25.561C18.6666 25.561 18.6666 26.8487 15.9999 26.8487C15.3296 26.8487 14.8278 26.7673 14.4097 26.6454L14.4096 26.6455C12.54 26.1008 10.6663 27.4768 10.6663 29.4242C10.6663 30.8466 11.8193 31.9996 13.2416 31.9996H29.4245C30.8469 31.9996 32 30.8465 32 29.4242Z" fill="#77CCF7"/>
<path d="M20.2782 0.795062C18.9498 0.282062 17.5074 0 16.0002 0C9.43218 0 4.08875 5.34344 4.08875 11.9114H12.6447L20.2782 0.795062Z" fill="#536172"/>
<path d="M20.2783 0.794922C15.8176 2.51742 12.6448 6.85048 12.6448 11.9114H27.9118C27.9117 6.85048 24.7389 2.51742 20.2783 0.794922Z" fill="#617184"/>
<path d="M6.98611 17.706C9.11969 17.706 10.8493 15.3999 10.8493 12.5552C10.8493 9.71042 9.11969 7.4043 6.98611 7.4043C4.85253 7.4043 3.12292 9.71042 3.12292 12.5552C3.12292 15.3999 4.85253 17.706 6.98611 17.706Z" fill="#FF8A98"/>
<path d="M25.0143 17.706C27.1479 17.706 28.8775 15.3999 28.8775 12.5552C28.8775 9.71042 27.1479 7.4043 25.0143 7.4043C22.8807 7.4043 21.1511 9.71042 21.1511 12.5552C21.1511 15.3999 22.8807 17.706 25.0143 17.706Z" fill="#FFA1AC"/>
<path d="M14.3888 5.73779C12.318 5.87692 10.8452 6.26561 9.92441 6.59673C9.12722 6.88342 8.47503 7.47754 8.11716 8.24542C7.5711 9.41717 7.27847 10.7308 7.31041 12.1161C7.4181 16.7932 11.262 20.5717 15.9402 20.6033C16.7211 20.609 17.4993 20.5097 18.2537 20.3079L14.3888 5.73779Z" fill="#FFD4C7"/>
<path d="M24.6924 11.9115C24.6924 10.6136 24.4076 9.38225 23.8974 8.27625C23.7171 7.88553 23.4605 7.5348 23.1427 7.24464C22.8249 6.95447 22.4523 6.73073 22.0468 6.58656C20.8983 6.17718 18.9119 5.68506 16.0002 5.68506C15.4273 5.68506 14.8907 5.70431 14.3888 5.73806C12.7996 7.31312 11.8151 9.49725 11.8151 11.9116C11.8151 15.9326 14.5458 19.3154 18.2537 20.3081C21.9617 19.3153 24.6924 15.9326 24.6924 11.9115Z" fill="#FFDDCF"/>
<path d="M10.6198 13.6034C11.7162 13.6034 12.6051 12.8956 12.6051 12.0224C12.6051 11.1492 11.7162 10.4414 10.6198 10.4414C9.52332 10.4414 8.63446 11.1492 8.63446 12.0224C8.63446 12.8956 9.52332 13.6034 10.6198 13.6034Z" fill="#FFA1AC"/>
<path d="M21.3807 13.6034C22.4772 13.6034 23.366 12.8956 23.366 12.0224C23.366 11.1492 22.4772 10.4414 21.3807 10.4414C20.2842 10.4414 19.3954 11.1492 19.3954 12.0224C19.3954 12.8956 20.2842 13.6034 21.3807 13.6034Z" fill="#FFA1AC"/>
<path d="M11.7768 10.9497C11.6525 10.9497 11.5332 10.9003 11.4453 10.8124C11.3574 10.7245 11.308 10.6052 11.308 10.4809V9.70828C11.308 9.58396 11.3574 9.46473 11.4453 9.37682C11.5332 9.28891 11.6525 9.23953 11.7768 9.23953C11.9011 9.23953 12.0203 9.28891 12.1083 9.37682C12.1962 9.46473 12.2455 9.58396 12.2455 9.70828V10.4809C12.2455 10.6052 12.1962 10.7245 12.1083 10.8124C12.0203 10.9003 11.9011 10.9497 11.7768 10.9497ZM16.0002 11.4522C15.7221 11.4521 15.4473 11.3925 15.1943 11.2773C14.9413 11.162 14.7159 10.9939 14.5333 10.7842C14.4516 10.6905 14.4105 10.5681 14.419 10.4441C14.4276 10.3201 14.485 10.2045 14.5787 10.1228C14.6725 10.0412 14.7948 10.0001 14.9188 10.0086C15.0429 10.0171 15.1584 10.0745 15.2401 10.1683C15.432 10.3885 15.709 10.5148 16.0002 10.5148C16.2914 10.5148 16.5684 10.3885 16.7604 10.1683C16.8426 10.0766 16.9576 10.0209 17.0806 10.0133C17.2035 10.0058 17.3245 10.0469 17.4174 10.1278C17.5103 10.2088 17.5675 10.323 17.5769 10.4458C17.5862 10.5686 17.5468 10.6902 17.4672 10.7842C17.2846 10.9939 17.0591 11.162 16.8061 11.2772C16.553 11.3925 16.2782 11.4521 16.0002 11.4522ZM21.2682 10.9281C21.1438 10.9281 21.0246 10.8787 20.9367 10.7908C20.8488 10.7029 20.7994 10.5837 20.7994 10.4593C20.7994 10.2241 20.608 10.0327 20.3728 10.0327C20.1375 10.0327 19.9462 10.2241 19.9462 10.4593C19.9462 10.5837 19.8968 10.7029 19.8089 10.7908C19.721 10.8787 19.6017 10.9281 19.4774 10.9281C19.3531 10.9281 19.2339 10.8787 19.146 10.7908C19.0581 10.7029 19.0087 10.5837 19.0087 10.4593C19.0087 9.70715 19.6206 9.09521 20.3728 9.09521C21.125 9.09521 21.7369 9.70715 21.7369 10.4593C21.7369 10.5837 21.6875 10.7029 21.5996 10.7908C21.5117 10.8787 21.3925 10.9281 21.2682 10.9281Z" fill="#495560"/>
</g>
<defs>
<clipPath id="clip0_2447_4515">
<rect width="32" height="32" fill="white"/>
</clipPath>
</defs>
</svg>
