<svg width="20" height="20" viewBox="0 0 20 20" fill="none" xmlns="http://www.w3.org/2000/svg">
<path d="M10.0001 1.66699C5.40841 1.66699 1.66675 5.40866 1.66675 10.0003C1.66675 14.592 5.40841 18.3337 10.0001 18.3337C14.5917 18.3337 18.3334 14.592 18.3334 10.0003C18.3334 5.40866 14.5917 1.66699 10.0001 1.66699ZM13.9834 8.08366L9.25841 12.8087C9.14175 12.9253 8.98342 12.992 8.81675 12.992C8.65008 12.992 8.49175 12.9253 8.37508 12.8087L6.01675 10.4503C5.77508 10.2087 5.77508 9.80866 6.01675 9.56699C6.25841 9.32533 6.65841 9.32533 6.90008 9.56699L8.81675 11.4837L13.1001 7.20033C13.3417 6.95866 13.7417 6.95866 13.9834 7.20033C14.2251 7.44199 14.2251 7.83366 13.9834 8.08366Z" fill="#4F46E5"/>
</svg>
